<?xml version="1.0" encoding="UTF-8"?>
<svg xmlns="http://www.w3.org/2000/svg" version="1.1" viewBox="0 0 1920 5000">
  <defs>
    <style>
      .cls-1, .cls-2, .cls-3, .cls-4, .cls-5, .cls-6, .cls-7, .cls-8, .cls-9, .cls-10, .cls-11, .cls-12, .cls-13, .cls-14, .cls-15, .cls-16, .cls-17, .cls-18, .cls-19, .cls-20, .cls-21, .cls-22, .cls-23, .cls-24, .cls-25, .cls-26, .cls-27, .cls-28, .cls-29, .cls-30, .cls-31, .cls-32, .cls-33, .cls-34, .cls-35, .cls-36, .cls-37 {
        stroke-miterlimit: 10;
      }

      .cls-1, .cls-2, .cls-3, .cls-4, .cls-5, .cls-6, .cls-8, .cls-9, .cls-10, .cls-11, .cls-12, .cls-13, .cls-17, .cls-18, .cls-19, .cls-21, .cls-22, .cls-23, .cls-24, .cls-25, .cls-26, .cls-27, .cls-28, .cls-30, .cls-31, .cls-32, .cls-33, .cls-34, .cls-35, .cls-36, .cls-37 {
        stroke: #000;
      }

      .cls-1, .cls-22, .cls-24 {
        fill: #24a2bf;
      }

      .cls-2 {
        stroke-width: 10px;
      }

      .cls-2, .cls-4 {
        fill: #f9eee4;
      }

      .cls-3, .cls-38 {
        fill: #000;
      }

      .cls-4, .cls-19 {
        stroke-width: 8px;
      }

      .cls-5, .cls-9, .cls-11, .cls-14, .cls-16, .cls-17, .cls-20, .cls-25, .cls-28, .cls-32, .cls-37 {
        fill: none;
      }

      .cls-5, .cls-9, .cls-16, .cls-26 {
        stroke-width: 2px;
      }

      .cls-6 {
        fill: #fafdfc;
      }

      .cls-6, .cls-15, .cls-21, .cls-22, .cls-32, .cls-37 {
        stroke-width: 3px;
      }

      .cls-7, .cls-13, .cls-18, .cls-21, .cls-27, .cls-39 {
        fill: #f9d281;
      }

      .cls-7, .cls-14, .cls-27, .cls-34, .cls-35 {
        stroke-width: 6px;
      }

      .cls-7, .cls-15, .cls-16, .cls-29 {
        stroke: #231f20;
      }

      .cls-8 {
        fill: #fff;
      }

      .cls-8, .cls-23, .cls-25, .cls-28, .cls-29, .cls-30, .cls-33 {
        stroke-width: 5px;
      }

      .cls-38, .cls-40, .cls-39 {
        stroke-width: 0px;
      }

      .cls-9, .cls-11, .cls-14, .cls-16, .cls-17, .cls-25, .cls-30, .cls-32 {
        stroke-linecap: round;
      }

      .cls-10 {
        fill: #88746b;
      }

      .cls-10, .cls-12, .cls-13, .cls-17, .cls-24 {
        stroke-width: 4px;
      }

      .cls-12 {
        fill: #349dc3;
      }

      .cls-14, .cls-20 {
        stroke: #fff;
      }

      .cls-15 {
        fill: #231f20;
      }

      .cls-19, .cls-35 {
        fill: #f9f0e5;
      }

      .cls-40, .cls-29, .cls-33, .cls-34 {
        fill: #ffccb0;
      }

      .cls-23, .cls-26, .cls-31 {
        fill: #fdcaaf;
      }

      .cls-30 {
        fill: #020202;
      }

      .cls-36 {
        fill: #f4e9e1;
        stroke-width: 7px;
      }
    </style>
  </defs>
  <g id="_스케치" data-name="스케치">
    <path class="cls-36" d="M544.9,2320.22s-21.53,9.65-21.26,22.43.58,32.68,16.45,23.6,20.22-15.65,20.22-15.65c0,0-14.79-7.96-15.42-13.04s.72-17.35.72-17.35"/>
    <path class="cls-36" d="M559.43,2352.69s3.8,14.16,14.45,16.04c10.65,1.89,31.01-14.6,31.55-18.22s6.34-11.46-1.75-20.28c-8.09-8.82-16.72-10.98-16.72-10.98l-1.62,17.26s-20.79,16.18-24.89,16.18"/>
  </g>
  <g id="_두꺼운선" data-name="두꺼운선">
    <path class="cls-29" d="M578.53,2833.16l-2.17,54.97s-46.54,43.81-45.52,50.35c0,0-3.98,11.13-2.36,18.01s23.06,5.66,35.19,4.04c12.13-1.62,33.57-16.18,45.71-29.12s7.28-10.52,5.66-19.82c-1.62-9.3-9.3-23.06-7.28-29.12,2.02-6.07,15.78-44.9,21.44-63.91,5.66-19.01-3.24-79.69-3.24-79.69"/>
    <polygon class="cls-40" points="576.36 2736.88 583.38 2826.88 626.43 2734.94 576.36 2736.88"/>
    <path class="cls-33" d="M523.17,2735.25s25.48,129.44,23.06,137.53-42.07,35.19-52.18,41.26-17.8,8.9-16.58,16.58,12.54,12.13,25.08,10.92,33.98-8.9,33.98-8.9c0,0,38.43-46.52,39.64-54.61s7.97-143.01-5.93-145.53c-13.89-2.52-45.44,0-45.44,0"/>
    <path class="cls-24" d="M488.99,2344.08s-29.07,1.63-34.76,16.19c-5.69,14.56-3.67,23.07-3.67,23.07-.29,2.32-.91,9.8,3.67,17.43,5.16,8.59,13.34,11.38,15.37,12.02l17.77,7.75,1.62-76.46Z"/>
    <path class="cls-39" d="M614.65,2423.78l-.22,2.93-2.53,34.28,2.74,5.26s36.51-16.04,38.07-14.7-12.79-22.11-12.79-22.11c0,0-.48,1.89-9.65,0s-13.51-7.09-13.51-7.09"/>
    <path class="cls-39" d="M502.47,2428.09s-8.63,6.97-9.84,6.97-12.13,24.98-12.13,24.98l35.17,4.56,1.07-4.19-13.18-31.09"/>
    <path class="cls-39" d="M674.31,2220.66s-3.01,11.58-3.76,12.18,6.04,5.19,5.84,11.18c-.22,6.64-.36,12.27-1.23,14.58-1.79,4.77-4.49,7.79-6.94,10.52-2.74,3.05-4.95,5.52-8,7.06-8.97,4.51-15.93-3.75-25.57-.99-6.45,1.85-4.99,6.02-13.75,13.35-14.38,12.02-27.81,8.74-33.54,19.99-1.46,2.87-1.87,5.6-2,7.39,4.76,2.91,8.79,5.37,12.38,7.49,1.22.72,3.66,2.15,5.82,4.82,1.33,1.64,1.97,3.03,2.22,3.64.75,1.76,1,3.34,1.09,4.42,11.73,3.86,23.45,7.72,35.18,11.58,0,0,44.52,18.37,47.71,27.36s.86,22.95-1.24,25.81c-2.11,2.86-12.33,12.87-12.33,12.87l-3.5,8.84,29.25,46.71c3.85-.61,9.83-2.07,16.08-5.95,10.02-6.23,14.72-14.95,16.52-18.83,1.98-1,4.65-2.44,7.69-4.38.29-.18,2.78-1.78,4.72-3.24,2.19-1.64,5.67-4.61,11.46-12.39,3.12-4.19,5.94-7.98,8.09-12.15,2.26-4.37,6.63-14.67,4.91-30.83-4.12-12.46-9.6-21.59-13.68-27.42-6.22-8.89-12.18-14.36-13.75-15.78-5.08-4.57-9.2-7.18-10.52-8.09-17.72-12.27-10.92-52.13-27.84-81.11-4.76-8.14-13.58-19.17-31.33-28.64Z"/>
    <path class="cls-27" d="M464.64,2199.35s-13.27,52.69-23.38,66.24-27.3,32.15-34.18,49.35-21.24,43.48-20.22,56.63c1.01,13.15,5.87,35.4,12.74,41.47,6.88,6.07,46.72,31.15,48.94,30.13,2.22-1.01,14.36-24.27,14.36-24.27,0,0-9.91-14.97-10.92-17.8s-5.87-34.79,10.92-42.07c16.79-7.28,29.73-9.3,29.73-9.3l-1.21-6.47,26.49-6.88,10.09-2.63,18.22-14.36s-27.68-2.58-30.56-5.06c-2.88-2.48-39.21-11.93-50.94-63.71l7.41-43.45-7.5-7.82Z"/>
    <path class="cls-21" d="M547.24,2108.53s-4.49,16.72,5.39,28.5c9.88,11.78,32.07,34.53,32.07,34.53l32.43,30.12,31.23,27.93-1.44,4.65,19.34-9.77c.08-13.85-1.18-25.31-2.44-33.58-4.18-27.32-12.02-42.67-14.69-47.58-2.72-5-5.32-8.83-8.57-12.51-6.47-7.34-13.45-11.74-18.21-14.26-11.35-6.38-22.71-12.76-34.06-19.15l-19.96-3.87s-20.37,4.73-21.09,14.99Z"/>
    <path class="cls-13" d="M552.9,2088.85s-38.14,6.2-48.6,12.4c-10.46,6.2-27.99,24.81-27.99,24.81,0,0-19.42,18.34-19.42,30.74s3.62,34.43,8.69,38.65c5.07,4.22,6.88,6.23,6.88,6.23l1.04-9.64,1.45-23.53,15.4-10.99,29.64-21.23,22.12-22.13,18.88-22.08-6.74-3.24h-1.35Z"/>
    <path class="cls-23" d="M558.83,2093.3s-7.53,7.94-13.92,14.97c-.75.83-1.49,1.64-2.19,2.43-.86.96-1.67,1.87-2.41,2.72-2.28,2.61-3.9,4.6-4.13,5.23-2.43,6.47-21.33,22.43-31.43,29.15-10.1,6.72-23.85,14.54-27.22,22.09-3.37,7.55-4.45,29.88-5.66,35.57-1.21,5.69-11.42,45.87-2.95,59.89s35.92,53.3,74.95,48.87c39.02-4.43,41.5-3.73,66.73-20.56,25.09-16.74,23.88-23.19,23.88-23.19,0,0,20.78,12.16,31.22-2.14,19.87-12.7,20.33-38.12-4.66-36.96-19.25.9-20.25,9.17-20.25,9.17l4.45-11.73s-95.03-84.27-97.72-100.72c-2.7-16.45-1.08-7.21-1.08-7.21l-1.51-12.61"/>
    <path class="cls-24" d="M643.2,2353.29c-7.96,9.25-35.39,42.74-31.08,60.22.1.4.3.76.58,1.07h0c.47.53.7,1.22.65,1.91-.16,2.42.11,5.53,2.21,7.66,3.68,3.74,11.01,2.79,17.07.89,16.66-5.22,33.42-10.55,38.51-12.17.97-.31,1.67-1.09,1.86-2.06l3.37-17.45c.12-.62.01-1.26-.31-1.8l-10.61-18.25c-.09-.16-.2-.31-.33-.45l-17.66-19.61c-1.13-1.26-3.16-1.24-4.26.04Z"/>
    <ellipse class="cls-38" cx="552.24" cy="2069.05" rx="14.89" ry="32.77" transform="translate(-1388.68 1164.19) rotate(-50.06)"/>
    <ellipse class="cls-38" cx="605" cy="2073.05" rx="33.44" ry="14.89" transform="translate(-916.42 540.45) rotate(-28.52)"/>
    <path class="cls-20" d="M389.08,2139.42"/>
    <line class="cls-5" x1="511.64" y1="2107.87" x2="483.17" y2="2120.47"/>
    <path class="cls-5" d="M535.1,2110.29s-50.16,21.44-55.82,40.45c-5.66,19.01-6.07,30.34-5.66,33.17s2.13,5.75,2.13,5.75"/>
    <path class="cls-5" d="M540.76,2114.17l-29.12,21.2s-24.27,15.78-26.7,19.42l-2.43,3.64"/>
    <path class="cls-15" d="M569.89,2102.61s15.78,4.04,17.39,5.26"/>
    <line class="cls-15" x1="569.89" y1="2110.29" x2="587.28" y2="2120.47"/>
    <path class="cls-13" d="M611.83,2088.88s107.83,26.7,105.45,162.2c0,0,.4,62.29,20.22,80.09,25.85,23.21,30.99,34.54,33.7,55.01,1.65,12.45-1.95,23.12-4.76,29.53-14.69,13.61-25.56,23.58-28.94,26.7-.21.2-.75.7-.96.54-.76-.58,7.95-13.13,9.68-21.98,2.45-12.49,7.39-30.82-7.14-64.31"/>
    <path class="cls-25" d="M558.56,2110.29s29.53,51.37,84.13,65.93l18.04,8.27"/>
    <line class="cls-16" x1="620.76" y1="2184.5" x2="651.19" y2="2195.64"/>
    <path class="cls-9" d="M609.65,2187.72s36.33,22.1,44.78,21.67l8.45-.42"/>
    <line class="cls-16" x1="639.06" y1="2215.06" x2="660.74" y2="2225.57"/>
    <path class="cls-32" d="M464.72,2260.76s-9.25,20.63-10.49,23.46"/>
    <path class="cls-32" d="M448.54,2288.27s-27.1,19.42-35.19,38.43c-8.09,19.01-12.54,38.43-7.69,62.29,4.85,23.87,33.57,47.33,42.88,48.54"/>
    <path class="cls-32" d="M448.54,2299.19s-17.8,31.15-19.01,50.97c-1.21,19.82,2.02,54.2,9.51,66.74l7.48,12.54"/>
    <path class="cls-38" d="M419.42,2369.98s-.81,26.29,4.04,33.98l4.85,7.69"/>
    <path class="cls-32" d="M482.11,2284.22s-4.85,29.12-11.73,44.49c-6.88,15.37-5.66,23.46-5.66,23.46"/>
    <path class="cls-37" d="M473.5,2285.84s-8.73,23.46-19.27,33.98c0,0-8.93,10.52-9.74,19.82s-4.85,26.29-4.04,30.34-.4,18.61,3.24,27.91,10.54,23.46,10.54,23.46"/>
    <polyline class="cls-37" points="488.99 2311.93 476.45 2342.07 476.45 2345.3"/>
    <path class="cls-5" d="M687.19,2195.64s2.74,15.78,1.92,19.42"/>
    <path class="cls-5" d="M706.77,2248.79s7.8,48.2,15.67,59.12l7.87,10.93"/>
    <path class="cls-9" d="M736.37,2331.98s15.37,19.82,21.03,38.83c5.66,19.01,9.3,42.07,9.3,42.07v3.64"/>
    <path class="cls-23" d="M547.78,2318.07s-6.47,18.47,0,23.25c6.47,4.78,13.88,10.1,19.89,7.44,6-2.66,21.64-12.44,21.64-14.99v-24.87s-10.65,2.92-18.34,3.99c-7.69,1.06-22.52.93-22.52.93l-.67,4.25Z"/>
    <path class="cls-24" d="M640.96,2350c4.23.95,47.5,11.08,55.86,30.22.82,1.87,2.32,5.31,1.86,9.81-1.27,12.36-16.42,22.52-16.82,22.16-.01,0-.01-.02-.01-.02l-9.45-.58s3.84-17.84,1.73-20.2c-.93-1.04-1.11-1.32-1.17-1.44,0-.02-.02-.05-.04-.09-.22-.42-.59-.67-.89-.83"/>
    <path class="cls-32" d="M613.52,2417.96s7.23,10.13,25.46,10.13,37.76-15.3,37.76-15.3"/>
    <path class="cls-34" d="M675.74,2411.3c.82,3.79-1.93,6.5-1.93,7.59s17.96,29.31,17.96,29.31c0,0,11.88,11.94,24.87,40.16,12.99,28.22,17.13,40.16,35.1,50.47,17.96,10.31,18.24,21.17,20.45,26.59s-.28,7.06-3.59,8.41c-3.32,1.36-6.63-2.35-6.63-2.35,0,0-7.46-8.51-7.74-9.32s-1.17-7.6-1.17-7.6l-15.55-7.06s7.05,20.08,5.39,22.52-4.42,1.36-8.57,0-3.59-8.68-6.63-13.3c-3.04-4.61-7.74-10.04-8.29-15.2s-1.93-5.16-6.63-11.13-21-27.41-27.36-35.28-45.6-69.47-45.6-69.47"/>
    <path class="cls-32" d="M633.53,2410.06s9.38,4.01,12.24,3.74"/>
    <path class="cls-32" d="M657.53,2386.26s6.47,9.17,4.58,17.8l-1.89,8.63-.23,2.61"/>
    <path class="cls-17" d="M758.59,2544.05s15.7,4.85,16.78,9.98c1.08,5.12,3.53,7.57,0,8.09l-3.53.52"/>
    <path class="cls-32" d="M514.47,2311.93s6.26,14.36,4.04,20.43"/>
    <line class="cls-17" x1="514.47" y1="2314.56" x2="508.81" y2="2337.48"/>
    <path class="cls-32" d="M597.93,2304.45s-2.68,9.9,0,13.75"/>
    <path class="cls-32" d="M622.07,2288.27s-3.24,18.2,2.43,31.15,9.03,20.22,9.03,20.22"/>
    <path class="cls-32" d="M633.53,2277.75s-2.7,21.84,0,36.81,14.02,30.5,14.02,30.5"/>
    <path class="cls-9" d="M651.19,2280.18s-1.78,29.12-1.29,38.02,5.74,28.72,5.74,28.72"/>
    <path class="cls-32" d="M665.75,2283.82s-3.64,22.04,0,38.32c3.64,16.28,6.47,24.78,6.47,24.78"/>
    <path class="cls-38" d="M672.22,2319.42s8.9,22.65,10.92,27.51,5.57,9.3,5.57,9.3"/>
    <path class="cls-32" d="M681.09,2283.82s6.17,41.66,12.2,58.65c6.03,16.99,12.1,28.72,11.29,41.66-.81,12.94,2.98,36.14.07,43.96-2.9,7.82-5.93,16.88-5.93,16.88-1.33,1.83-2.66,3.67-3.98,5.5"/>
    <path class="cls-32" d="M693.43,2330.74s21.27,27.91,25.11,45.51c3.84,17.6,8.7,32.97,6.67,39.84s-8.25,20.55-15.65,28.88c-7.4,8.33-9.99,11.38-9.99,11.38"/>
    <path class="cls-17" d="M733.71,2369.98s14.56,54.2,3.24,72c-11.33,17.8-25.24,23.46-27.38,24.27"/>
    <path class="cls-32" d="M473.37,2395.87s-1.94,16.38,4.48,20.63,14.78-4.56,14.78-4.56"/>
    <path class="cls-33" d="M488.99,2434.83c4.85,21.57-62.89,90.07-62.89,90.07-4.24,15.37-12.75,21.84-22.45,29.12-9.7,7.28-10.12,3.64-11.33-1.21-1.21-4.85,11.33-12.14,11.33-12.14,0,0-10.93,5.26-20.64,8.9-9.71,3.64-10.52,7.69-16.99,7.28-6.47-.4,2.43-7.28,4.45-13.35,2.02-6.07,34.79-21.03,44.09-30.56,3.2-3.28,5.15-5.56,6.72-7.89,6.63-9.86,9.79-18.38,10.67-21.01,2.79-8.33,10.34-25.31,31.35-63.51"/>
    <path class="cls-27" d="M491.42,2435.71s-2.43,7.89,4.65,16.99c7.08,9.1,10.3,12.62,15.57,12.34,5.28-.29,3.84.02,3.84.02l-34.99-2.04s-9.33,8.49-6.99,13.75,6.59,11.53,6.59,11.53l2.02,2.83,27.1-15.98s7.06-.74-4.45-6.07l-11.51-5.32"/>
    <path class="cls-12" d="M610.68,2464.6l8.15,8.88s15.78,10.16,31.69,17.65,63.37,58.04,88.85,95.26c25.48,37.21,34.66,94.65,34.66,94.65l-75.31,38.83s-20.43,8.9-41.2,14.56-38.7,0-38.7,0h-60.27c-42.88,0-33.98,0-33.98,0,0,0-8.9-1.62-46.73-4.04-37.83-2.43-38.94-14.56-38.94-14.56,0,0,23.38,3.24-4.93,0-28.31-3.24-63.1-32.36-63.1-32.36v-6.47s6.47-18.61,16.18-42.07,34.79-68.76,47.73-90.88c12.94-22.11,45.57-51.51,45.57-51.51,8.28-3.99,16.59-7.97,24.94-11.93,1.66-.79,3.32-1.58,4.99-2.36"/>
    <path class="cls-7" d="M611.91,2466.98s32.58-17.33,37.53-14.08c4.95,3.25,16.29,12.23,10.18,25.46l-6.11,13.23"/>
    <path class="cls-30" d="M624.09,2472.04s15.39-1.79,16.73-1.97"/>
    <path class="cls-2" d="M508.81,2485.14s-102.39,135.22-84.97,165.96c10.28,5.17,24.14,11.38,41.07,16.89,13.49,4.38,38.15,11.32,69.99,13.65,11.15.82,31.84-.67,73.21-3.64,0,0,47.8-3.43,67.48-20.43,1.73-1.5,2.46-3.38,2.46-3.38.62-1.6.6-3.14.44-4.31-1.21-7.63-3.34-18.89-7.28-32.16-4.91-16.55-7.97-20.57-20.09-49.05-14.78-34.73-16.19-42.77-27.44-61.78-5.65-9.55-10.9-17-14.43-21.76-22.54,11.22-39.73,11.89-51.78,9.58-8.66-1.66-43.01-15.78-43.01-15.78l-5.66,6.2Z"/>
    <path class="cls-11" d="M535.37,2494.72c-4.11,2.36-9.76,6.48-13.89,13.33-.86,1.43-1.57,2.83-2.16,4.18"/>
    <path class="cls-32" d="M567.66,2495.51s-24.24,31.75-26.65,37.18l-2.41,5.43"/>
    <path class="cls-32" d="M547.24,2494.72s-16.42,32.18-20.36,39.49"/>
    <line class="cls-11" x1="578.06" y1="2498.38" x2="566.66" y2="2524.06"/>
    <path class="cls-17" d="M439.91,2681.86s-7.63,22.63-4.31,28.29"/>
    <path class="cls-32" d="M615.19,2732s31.99-2.56,50.51-8.97l18.52-6.4"/>
    <path class="cls-11" d="M695.01,2702.31s32.37-16.14,38.37-21.26l5.99-5.12"/>
    <path class="cls-32" d="M698.25,2705.84s25.35-7.55,30.2-10.52,13.75-13.46,13.75-13.46"/>
    <path class="cls-3" d="M524.99,2750.2s34.63,2.83,42.6,0l7.98-2.83,3.28,14.16s5.63,3.64-14.07,5.26c-19.7,1.62-33.31,2.02-33.31,2.02l-6.48-18.61Z"/>
    <path class="cls-38" d="M531.88,2786s6.16,5.06,21.23,2.02,26.48-5.87,26.48-5.87v19.01s-12.33,5.66-18.72,6.67c-6.39,1.01-22.6,3.03-24.66,0-2.05-3.03-4.34-21.84-4.34-21.84Z"/>
    <path class="cls-38" d="M541.17,2828.46s3.86,3.95,15.79,2.85c11.93-1.1,22.07-4.58,22.07-4.58l-1.64,21.17s-7.14,4.31-16.51,3.59c-9.38-.73-17.01-1.32-17.01-1.32l-2.7-21.71Z"/>
    <path class="cls-38" d="M544.58,2869.33s6.08,1.62,19.47,0c13.39-1.62,15.43-3.02,15.43-3.02l-2.49,13.94s-9.05,4.25-18.29,4.25-17.52-1.42-17.52-1.42l3.41-13.75Z"/>
    <path class="cls-38" d="M531.88,2897.24s7.06-.4,11.71,6.27,4.04,11.73,4.04,11.73"/>
    <path class="cls-38" d="M517.71,2907.15s-.2,6.07,10.72,9.51,12.74,3.44,12.74,3.44"/>
    <path class="cls-3" d="M580.09,2747s5.59,4.65,25,1.62c19.42-3.03,23.46-4.25,23.46-4.25l1.42,16.18s-16.71,6.27-24.94,6.07c-8.23-.2-21.23-1.08-23.8-4.25-2.57-3.17-1.14-15.37-1.14-15.37Z"/>
    <path class="cls-38" d="M579.69,2781.89s8.28,8.49,23.75,6.47c15.47-2.02,29.95-8.73,29.95-8.73l-2.07,26.73s-12.2,4.65-20.97,4.04c-8.77-.61-26.75-2.43-28.25-5.66s-2.42-22.85-2.42-22.85Z"/>
    <path class="cls-38" d="M580.84,2824.75s8.48,4.85,19.14,4.85,29.98-3.92,29.98-3.92l-11.71,26.17s-13.71,3.03-22.41,0c-8.7-3.03-16.16-7.28-16.16-7.28l1.15-19.82Z"/>
    <path class="cls-38" d="M577.85,2867.48s1.74,4.25,16.71,4.45,15.98,0,15.98,0l-5.02,15.37s.64,4.85-11.33,2.02-17.84-7.08-17.84-7.08l1.49-14.76Z"/>
    <path class="cls-38" d="M605.63,2890.57s2.65,9.85,1.07,14.15-5.42,10.17-5.42,10.17c0,0-5.87-6.71-11.28-9.23s-18.28-6.92-21.67-7.13c-3.39-.21-9.93,9.44-9.93,9.44,0,0,8.35-.63,10.83-.63s16.7,2.73,18.06,5.03c1.35,2.31,7,7.97,4.74,10.69-2.26,2.73-5.87,3.56-7.9,2.73-2.03-.84-12.19-2.52-12.19-2.52l-22.34-4.19-5.64,7.02s7.67-.52,14.67.95c7,1.47,19.64,3.76,19.64,4.6s-11.28,6.93-11.28,6.93c0,0-16.48,6.5-21.22,5.45s-13.32-5.24-13.32-5.24c0,0-2.26,3.37,2.26,5.36,4.51,1.98,19.64,4.49,26.41,1.98,6.77-2.51,35.66-15.72,35.66-15.72,0,0,7.31-6.5,11.1-10.48,3.79-3.98,8.53-11.74,8.53-11.74l-8.96-20.86-.74,3.03"/>
    <path class="cls-38" d="M487.78,2175.26s1.82-9.1,10.42-8.8c5.88.21,9.06,1.69,10.39,4,.94,1.64.73,3.68.73,3.68,0,.55-.06,1-.11,1.33h-.39s-8.09-.72-12.34.19-7.89,1.31-7.89,1.31l-.81-1.72Z"/>
    <path class="cls-38" d="M575.25,2177.65s-1.21-4.62,4.45-4.26,11.53,1.18,11.53,1.18l11.12,8.78s1.01,3.01,0,3.46-2.73,1.81-6.47,0-2.49-1.9-6.91-2.9-10.89-1.28-12.41-3.36-1.31-2.9-1.31-2.9Z"/>
    <path class="cls-28" d="M512.58,2215.73"/>
    <path class="cls-14" d="M610.2,2211.01"/>
    <path class="cls-5" d="M504.3,2232.58"/>
    <path class="cls-38" d="M599.82,2223.54c0,8.08-6.55,14.63-14.63,14.63s-14.63-6.55-14.63-14.63c0-5.36,2.89-10.05,7.19-12.6,2.18-1.29,4.72-2.03,7.44-2.03,8.08,0,14.63,6.55,14.63,14.63Z"/>
    <path class="cls-37" d="M531.33,2237.71s-13.89,2.83-11.73,8.63c2.16,5.8,5.12,7.96,5.12,7.96"/>
    <path class="cls-38" d="M536.58,2277.35c0,3.2-2.9,5.8-6.47,5.8s-6.47-2.6-6.47-5.8,2.9-5.8,6.47-5.8,6.47,2.6,6.47,5.8Z"/>
    <path class="cls-38" d="M613.26,2091.38s58.7,41.21,64.8,80.32c0,0,6.91,43.73,0,62.24h-15.04s6.5-77.38-30.08-105.97c-36.58-28.6-51.62-34.06-59.75-34.06s-12.19.84-12.19.84l52.27-5.89v2.52Z"/>
    <path class="cls-22" d="M528.16,2368.32c1.12-2,7.22,3.19,15.13,0,6.75-2.73,15.04-11.59,15.87-13.68.05-.12.11-.18.18-.21,1.18-.36,3.15,9.07,9.03,12.42,7.96,4.53,18.72,1.72,20.34,1.2,1.82-.58,3.17-1.23,4.31-1.78,5.79-2.78,9.85-6.29,12.37-8.85-5.66,8.84-16,21.63-32.5,28.22-8.36,3.34-13.62,3.22-15.1,3.16-17.7-.73-31.42-17.29-29.63-20.48Z"/>
    <path class="cls-31" d="M563.39,2350.25c.35.04.69.07,1.04.11l1.01-.89"/>
    <path class="cls-1" d="M647.55,2352.18"/>
    <path class="cls-5" d="M649.81,2248.79s-.31-3.46,4.44-4.79c.42-.12,3.04-.48,3.41-.5,1.18-.05,2.2-.09,3.07-.13l5.22-.21"/>
    <path class="cls-26" d="M657.66,2243.51s2.02,2.49,1.42,6.94l-.61,4.45-.81,3.64"/>
    <path class="cls-37" d="M606.7,2213.67"/>
    <path class="cls-8" d="M576.13,2214.85s14.33-13.62,21.8-8.21c7.47,5.41,15.03,25.7,5.72,31.43,0,0-6.77,7.5-15.21,5.08-8.43-2.42-11.62-7.61-11.62-7.61l9.08,2.34s13.53-5.49,11.77-16.58c0,0-1.07-8.62-6.99-10.56-5.92-1.94-14.55,4.11-14.55,4.11Z"/>
    <path class="cls-32" d="M602.8,2211.01s1.67.4,5.11,0"/>
    <path class="cls-32" d="M606.96,2223.35s2.77.95,6-1.35,2.63-1.69,2.63-1.69"/>
    <path class="cls-28" d="M483.58,2197.2s14.66-3.22,20.43,2.83c5.76,6.05,7.48,18.83,7.48,18.83v1.66"/>
    <path class="cls-6" d="M511.49,2221.18c-.3,1.06-2.38,7.91-9.1,10.78-3.59,1.53-10.08,2.6-13.92-1.13-1.4-1.36-2.04-2.97-2.36-4.06,0,0,2.33.69,4.99,1.1,2,.31,4.75.45,7.04-.58,4.7-2.12,5.69-8.84,6.07-11.4.32-2.15,1.11-7.52-1.82-12.01-2.02-3.09-6.17-6.31-6.17-6.31l-1.31-1.32c-.03-.26-.07-.53-.1-.79"/>
    <ellipse class="cls-38" cx="493.48" cy="2212.13" rx="11.51" ry="15.87"/>
    <path class="cls-3" d="M537.33,2102.61"/>
    <path class="cls-37" d="M545.93,2109.7"/>
    <path class="cls-18" d="M639.76,2128.49"/>
    <path class="cls-19" d="M516.57,2339.64l-.78.16c-8.14,1.83-16.28,3.67-24.43,5.5-8.21,80.17,6.23,107.18,22.55,115.9,12.97,6.93,47.66,13.27,47.66,13.27h0l45.48-8.1s3.03-95.15,29.2-108.29l11.29-3.98-30.3-12.34h-4.46s3.5,11.97-5.73,19.11c-9.23,7.14-23.78,23.17-35.78,26.17-12,3-26.12,4.56-35.02-3.8-8.9-8.36-12.4-16.62-15.29-26.93-1.85-6.59-.77-12.54,0-16.67"/>
    <path class="cls-4" d="M516.73,2470.07v4.4s51.13,34.3,76.62,16.65,17.95-12.18,17.95-12.18l-3.39-12.69s-23.41,8.99-37.35,8.22-51.19-8.22-51.19-8.22l-3.88-1.2.18,7"/>
    <path class="cls-10" d="M483.33,2921.84s-5.39,12.94,23.19,2.16,47.35-20.22,47.35-20.22l8.34-4.85-26.83,33.98s-34.79,11.6-45.3,8.36-11.33-4.04-12.4-5.12c-1.08-1.08-2.7-8.9,0-12.13s4.58-3.63,4.58-3.63l1.08,1.47Z"/>
    <path class="cls-10" d="M531.33,2941.74s-5.9,12.15-2.48,15.68,32.55,4.38,32.55,4.38l24.21-10.97,31.78-30.74-2.33-8.49s-41.64,30.34-54.73,32.09c-13.09,1.75-19.83,1.41-24.41-.27l-4.58-1.68Z"/>
    <path class="cls-35" d="M645.77,2429.13l4.41,10.08,25.73-13.54-2.99-11.87-6.43.74s-22.64,6.05-21.04,11.78.32,2.81.32,2.81Z"/>
    <polygon class="cls-35" points="462.49 2413.06 465.53 2420.54 485.96 2431.46 490.61 2433.28 488.99 2418.92 462.49 2410.83 462.49 2413.06"/>
  </g>
</svg>