<svg xmlns="http://www.w3.org/2000/svg" xmlns:xlink="http://www.w3.org/1999/xlink" fill="none" version="1.1" width="459.1175537109375" height="725.84423828125" viewBox="0 0 459.1175537109375 725.84423828125"><g><g><g><path d="M450.570068359375,93.29626640625L450.590068359375,93.27626640625Q455.540068359375,88.49616640625,456.940068359375,81.40626640625C458.590068359375,73.00626640625,446.960068359375,60.38626640625,433.960068359375,55.36616640625C422.110068359375,50.78626640625,411.16006835937503,53.29626640625,406.41006835937503,54.71616640625C408.270068359375,52.88626640625,410.140068359375,51.06616640625,412.000068359375,49.23616640625Q419.66006835937503,27.78626640625,420.170068359375,20.89626640625C420.680068359375,14.00626640625,417.110068359375,9.15624640625,404.850068359375,2.51623540625Q392.590068359375,-4.12378359375,390.810068359375,33.40626640625L369.870068359375,64.04626640625Q368.080068359375,62.76626640625,361.960068359375,58.17626640625Q355.830068359375,53.57626640625,349.450068359375,62.77626640625C340.640078359375,90.88626640625,340.580078359375,112.42606640625,349.450068359375,117.15606640625C351.530058359375,118.26606640625,355.640068359375,119.27606640625,363.520068359375,115.34606640625Q373.000068359375,129.58606640625,393.100068359375,131.70606640625C407.500068359375,143.08606640625,423.940068359375,143.75606640625,431.560068359375,136.30606640625C432.850068359375,135.04606640625,436.400068359375,131.09606640625,436.690068359375,122.73606640625C440.010068359375,120.42606640625,442.380068359375,118.12606640625,443.900068359375,116.47606640625Q452.380068359375,107.29606640625,452.790068359375,97.27626640625C452.820068359375,96.43626640625,452.920068359375,94.17626640625,451.770068359375,93.57626640625C451.150068359375,93.24636640625,450.41006835937503,93.52626640625,450.110068359375,93.63636640625C449.500068359375,93.86636640625,450.360068359375,93.49636640625,450.380068359375,93.46626640625Q450.470068359375,93.37636640625,450.560068359375,93.29626640625L450.570068359375,93.29626640625Z" fill="#FFFFFF" fill-opacity="1"/></g><g><path d="M453.80206835937497,92.75521224193572Q454.901068359375,94.23911224193573,454.790068359375,97.30811224193573Q454.789068359375,97.33171224193573,454.788068359375,97.35801224193573Q454.348068359375,108.11241224193573,445.371068359375,117.83141224193572Q442.356568359375,121.10341224193573,438.639968359375,123.80341224193573Q438.071668359375,132.74141224193573,432.958268359375,137.73641224193574Q426.367468359375,144.18041224193573,414.681468359375,143.05841224193574Q403.042868359375,141.94141224193572,392.315768359375,133.63241224193573Q372.72846835937503,131.38641224193572,362.848068359375,117.87741224193573Q353.987068359375,121.84441224193573,348.509018359375,118.92141224193573Q340.807378359375,114.81441224193573,340.820088359375,98.73221224193573Q340.832058359375,83.58621224193573,347.541618359375,62.17811224193573L347.632818359375,61.88711224193573L347.806608359375,61.63651224193573Q351.356728359375,56.51721224193573,355.077368359375,55.14911224193573Q359.225668359375,53.62381224193573,363.160068359375,56.57631224193573Q367.238668359375,59.63521224193573,369.382368359375,61.21531224193573L388.865768359375,32.70671224193573Q390.579468359375,14.21531224193573,394.600868359375,6.38179224193573Q396.880968359375,1.94041284193573,400.053168359375,0.5877122419357299Q403.448668359375,-0.8602277580642701,407.362668359375,1.2595442419357301Q416.530468359375,6.22482224193573,419.710068359375,10.70613224193573Q422.625668359375,14.81551224193573,422.164668359375,21.04391224193573Q421.634668359375,28.20371224193573,413.883568359375,49.90881224193573L413.728868359375,50.34221224193573L412.842868359375,51.21071224193573Q424.244668359375,49.46711224193573,434.680568359375,53.50051224193573Q445.00606835937504,57.48781224193573,452.43406835937503,65.78471224193572Q460.317068359375,74.59041224193572,458.902068359375,81.79371224193574Q457.652068359375,88.12291224193574,453.80206835937497,92.75521224193572ZM449.30906835937503,91.73231224193573Q453.719068359375,87.39671224193573,454.978068359375,81.01881224193573Q456.008068359375,75.77421224193573,449.454068359375,68.45271224193573Q442.66776835937503,60.87261224193573,433.239668359375,57.23191224193573Q420.913668359375,52.46811224193573,406.982968359375,56.63241224193573L399.236368359375,58.94811224193573L407.790268359375,50.56241224193573L410.271068359375,48.13051224193573Q417.69066835937497,27.30051224193573,418.175568359375,20.74861224193573Q418.530368359375,15.95591224193573,416.447768359375,13.02081224193573Q413.806868359375,9.29874224193573,405.457668359375,4.77681224193573Q403.241568359375,3.5765822419357303,401.622168359375,4.26714224193573Q399.779368359375,5.05295224193573,398.159368359375,8.20858224193573Q394.437068359375,15.45941224193573,392.801968359375,33.58591224193573L392.755268359375,34.10471224193573L370.368568359375,66.86151224193573L368.706768359375,65.67311224193574Q366.898668359375,64.38011224193573,360.760068359375,59.77631224193573Q358.564568359375,58.12871224193573,356.457768359375,58.90341224193573Q354.000868359375,59.80681224193573,351.266308359375,63.66941224193573Q344.831488359375,84.30291224193573,344.820088359375,98.73531224193573Q344.809278359375,112.41441224193574,350.391158359375,115.39141224193573Q354.524868359375,117.59741224193573,362.62746835937503,113.55641224193573L364.206868359375,112.76841224193574L365.184868359375,114.23741224193573Q374.144268359375,127.69541224193573,393.309868359375,129.71741224193573L393.885768359375,129.7784122419357L394.340168359375,130.13741224193572Q404.350868359375,138.04841224193572,415.063668359375,139.07641224193574Q424.899868359375,140.02041224193573,430.16186835937503,134.87641224193572Q434.411768359375,130.72541224193574,434.691268359375,122.66641224193573L434.725968359375,121.66641224193573L435.547768359375,121.09441224193573Q439.38766835937497,118.42241224193573,442.429068359375,115.12141224193573Q450.412068359375,106.47941224193573,450.792068359375,97.19451224193573L450.793068359375,97.16401224193574Q450.840068359375,95.86661224193573,450.846068359375,95.49681224193573Q450.830068359375,95.50251224193573,450.813068359375,95.50891224193573L450.799068359375,95.51391224193573Q450.62906835937497,95.57821224193573,450.526068359375,95.61061224193573Q450.223068359375,95.70661224193573,449.923068359375,95.71111224193572Q449.058068359375,95.72391224193574,448.45606835937497,95.10271224193573Q447.276068359375,93.88561224193573,448.28306835937497,92.52171224193573Q448.503068359375,92.22421224193573,448.817068359375,92.02231224193574Q448.943068359375,91.94131224193573,449.225068359375,91.80731224193573Q449.228068359375,91.80471224193573,449.231068359375,91.80211224193573L449.30906835937503,91.73231224193573ZM449.098068359375,91.92321224193573Q448.990068359375,92.01391224193573,448.891068359375,92.12701224193573L448.966068359375,92.05181224193574Q449.032068359375,91.98591224193574,449.098068359375,91.92321224193573Z" fill-rule="evenodd" fill="#231F20" fill-opacity="1"/></g></g><g><path d="M0,675.20613671875C11.84,678.02613671875,213.93,724.48613671875,250.21,653.75613671875C255.49,643.45613671875,255.42,634.25613671875,255.32,620.05613671875C254.81,553.27613671875,206.79,524.04613671875,156.26,435.20613671875C147.53,419.85613671875,134.48,395.27613671875,121.55,362.86613671875C112.94,340.75613671875,102.17,308.06613671875,95.88,267.32613671875004C87.48,212.87613671875,83.07,165.46613671875,103.16,115.53623671875Q138.9,26.68627671875,206.31,24.64623671875Q250.22,15.45629671875,295.16,39.96613671875Q340.1,64.47623671875,345.2,66.51623671875001Q340.09,98.17623671875,345.2,108.38623671875Q350.31,118.59623671875,326.82,99.19633671875C309.5,84.43623671875,293.3,75.36633671875,281.63,69.83633671875C268.77,63.73633671875,258.69,59.06623671875,244.61,57.57633671875C224.1,55.41623671875,207.38,61.32633671875,198.14,65.48633671875001C192.18,66.98633671875001,184.57,70.08633671875,176.18,74.93623671875C164.69,81.57633671875,152.18,92.04623671875,148.09,107.36633671875C137.65,128.02613671875,124.81,160.10613671875,122.56,200.30613671875C121.26,223.42613671875,122.89,259.61613671875,162.39,351.45613671875C179.61,391.49613671875,204.94,444.20613671875,241.4,503.60613671875C266.53,534.90613671875,281.31,563.83613671875,290.05,584.30613671875C307.88,626.06613671875,304.98,642.90613671875,302.31,651.70613671875C297.08,668.92613671875,285.43,679.43613671875,277.09,686.76613671875C267.94,694.81613671875,245.61,712.04613671875,192.44,721.14613671875C140.88,729.97613671875,97.05,724.85613671875,38.94,718.08613671875C22.84,716.20613671875,9.67,714.29613671875,1.04,712.97613671875C0.700001,700.37613671875,0.360001,687.78613671875,0.0200009,675.18613671875L0,675.20613671875Z" fill="#231F20" fill-opacity="1"/></g><g><path d="M380.6083921035156,87.253331640625Q396.7676061035156,92.859011640625,408.1974061035156,93.642721640625L408.4026061035156,90.649751640625Q397.37240610351563,89.893431640625,381.59162010351565,84.419031640625L380.6083921035156,87.253331640625Z" fill-rule="evenodd" fill="#231F20" fill-opacity="1"/></g><g transform="matrix(0.9219948649406433,0.38720205426216125,-0.38720205426216125,0.9219948649406433,69.15508543983742,-139.63256067980547)"><path d="M381.3613419375,100.33748421875Q394.5490359375,102.37707521875,400.5853359375,102.23030121875Q400.60363593750003,102.22985821875,400.6218359375,102.22985821875Q400.6955359375,102.22985821875,400.7688359375,102.23708121875Q400.8422359375,102.24430421875,400.9144359375,102.25868021875Q400.9867359375,102.27305721875,401.0572359375,102.29444821875Q401.1277359375,102.31583921875,401.1958359375,102.34403921875Q401.2639359375,102.37223921875,401.3289359375,102.40697621875Q401.3939359375,102.44171421875,401.4551359375,102.48265421875Q401.5164359375,102.52359421875,401.5734359375,102.57034321875Q401.6303359375,102.61709121875,401.6824359375,102.66919821875Q401.7346359375,102.72130521875,401.7813359375,102.77826821875Q401.8281359375,102.83523421875,401.86903593750003,102.89650421875Q401.9099359375,102.95777421875,401.9447359375,103.02276421875Q401.9794359375,103.08775421875,402.0076359375,103.15583421875Q402.0358359375,103.22391421875,402.0572359375,103.29443421875Q402.0786359375,103.36494421875,402.0930359375,103.43722421875Q402.1073359375,103.50949421875,402.1146359375,103.58283421875Q402.1218359375,103.65616421875,402.1218359375,103.72985421875Q402.1218359375,103.80240421875,402.1148359375,103.87461421875Q402.1078359375,103.94682421875,402.0938359375,104.01802421875Q402.0799359375,104.08922421875,402.0592359375,104.15874421875Q402.0384359375,104.22826421875,402.0111359375,104.29545421875Q401.9837359375,104.36265421875,401.9500359375,104.42689421875Q401.9163359375,104.49113421875,401.8765359375,104.55181421875Q401.8368359375,104.61250421875,401.7914359375,104.66907421875Q401.7459359375,104.72564421875,401.6953359375,104.77756421875Q401.64463593749997,104.82947421875,401.5891359375,104.87626421875Q401.5337359375,104.92305421875,401.4740359375,104.96426421875Q401.4143359375,105.00548421875,401.3509359375,105.04074421875Q401.2875359375,105.07601421875,401.2210359375,105.10499421875Q401.1544359375,105.13397421875,401.0855359375,105.15639421875Q401.0165359375,105.17882421875,400.9456359375,105.19448421875Q400.8748359375,105.21014421875,400.8028359375,105.21890421875Q400.7307359375,105.22765421875,400.6582359375,105.22941421875L400.6570359375,105.22944421875Q394.3533359375,105.38248421875,380.9025729375,103.30220421875Q380.7709129375,103.28183421875,380.6449029375,103.23859421875Q380.5188919375,103.19534421875,380.4024759375,103.13056421875Q380.2860599375,103.06578421875,380.1828839375,102.98150421875Q380.0797059375,102.89721421875,379.9929959375,102.79606821875Q379.9062959375,102.69492021875,379.8387659375,102.58007421875Q379.7712459375,102.46522821875,379.7250259375,102.34027921875Q379.6787959375,102.21533021875,379.6553159375,102.08419021875Q379.6318359375,101.95304921875,379.6318359375,101.81982421875Q379.6318359375,101.74613391875,379.6390559375,101.67279821875Q379.6462859375,101.59946321875,379.6606559375,101.52718921875Q379.6750359375,101.45491421875,379.6964259375,101.38439721875Q379.7178159375,101.31388021875,379.7460159375,101.24579921875Q379.7742159375,101.17771821875,379.8089559375,101.11272921875Q379.8436959375,101.04774021875,379.8846359375,100.98646921875Q379.9255759375,100.92519721875,379.9723159375,100.86823421875Q380.0190659375,100.81127421875,380.0711759375,100.75916421875Q380.1232859375,100.70705421875,380.1802459375,100.66030421875Q380.2372089375,100.61356421875,380.2984809375,100.57262421875Q380.3597519375,100.53168421875,380.4247409375,100.49694421875Q380.4897299375,100.46220421875,380.5578109375,100.43400421875Q380.6258919375,100.40580421875,380.6964089375,100.38441421875Q380.7669259375,100.36302421875,380.8392009375,100.34864421875Q380.9114749375,100.33427421875,380.9848099375,100.32704421875Q381.0581456375,100.31982421875,381.1318359375,100.31982421875Q381.2471449375,100.31982421875,381.3610989375,100.33744421875L381.3613419375,100.33748421875Z" fill-rule="evenodd" fill="#231F20" fill-opacity="1"/></g></g></svg>