<svg xmlns="http://www.w3.org/2000/svg" xmlns:xlink="http://www.w3.org/1999/xlink" fill="none" version="1.1" width="465.0782470703125" height="728.49462890625" viewBox="0 0 465.0782470703125 728.49462890625"><g><g><g><g><path d="M427.7802123886719,103.0009805078125C427.5502013886719,102.9809605078125,427.2602233886719,102.9509305078125,427.2602233886719,102.9409205078125C427.2602233886719,102.8908705078125,432.99023338867187,103.5308805078125,438.3202233886719,103.2509805078125C440.8202233886719,103.1209705078125,444.5502233886719,102.7309605078125,449.14022338867187,101.4210205078125" fill="#FFFFFF" fill-opacity="1"/><path d="M438.4241233886719,105.2482805078125Q444.04082338867187,104.9562005078125,449.6891233886719,103.3442305078125L448.59132338867187,99.4978105078125Q443.37962338867186,100.9851735078125,438.21632338867187,101.2536755078125Q434.1405333886719,101.4677190078125,428.12456238867185,100.9924205078125Q427.71094738867185,100.9597425078125,427.5798593886719,100.9508245078125Q427.45009338867186,100.9419965078125,427.3691683886719,100.9394835078125Q427.26506529867186,100.9362505078125,427.1728393886719,100.9408315078125Q427.00527938867185,100.9491535078125,426.84406938867187,100.9837045078125Q426.55899938867185,101.0448005078125,426.30361338867186,101.1840365078125Q425.26023338867185,101.7528835078125,425.2602233886719,102.9409005078125Q425.2602233886719,104.7377505078125,427.2128784886719,104.9549405078125Q427.3874433886719,104.9743505078125,427.60679238867186,104.9934405078125L427.6093313886719,104.9642805078125Q427.6979843886719,104.9711805078125,427.8095193886719,104.9799905078125Q434.0876733886719,105.4760105078125,438.4241233886719,105.2482805078125ZM427.6142073886719,104.9082505078125Q427.6482723886719,104.9021805078125,427.6823193886719,104.8948905078125Q427.9644263886719,104.8344205078125,428.2183243886719,104.6960005078125Q429.2602133886719,104.1279705078125,429.2602233886719,102.9409405078125Q429.2602233886719,101.8391015078125,428.32912338867186,101.2509805078125Q428.1485713886719,101.1369405078125,427.9487953886719,101.0640805078125L427.6142073886719,104.9082505078125Z" fill-rule="evenodd" fill="#231F20" fill-opacity="1"/></g></g></g><g><g><g><path d="M455.5302734375,93.47107109375L455.5502734375,93.45107109375Q460.5002734375,88.67097109375,461.9002734375,81.58107109375C463.5502734375,73.18107109375,451.9202734375,60.56107109375,438.9202734375,55.54097109375C427.0702734375,50.96107109375,416.12027343750003,53.47107109375,411.37027343750003,54.89097109375C413.2302734375,53.06107109375,415.1002734375,51.24097109375,416.9602734375,49.41097109375Q424.62027343750003,27.96107109375,425.1302734375,21.07107109375C425.6402734375,14.18107109375,422.0702734375,9.33105109375,409.8102734375,2.69104009375Q397.5502734375,-3.94897890625,395.7702734375,33.58107109375L374.8302734375,64.22107109375Q373.0402734375,62.94107109375,366.9202734375,58.35107109375Q360.7902734375,53.75107109375,354.4102734375,62.95107109375C345.6002834375,91.06107109375,345.5402834375,112.60087109375,354.4102734375,117.33087109375C356.4902634375,118.44087109375,360.6002734375,119.45087109375,368.4802734375,115.52087109375Q377.9602734375,129.76087109375,398.0602734375,131.88087109375C412.4602734375,143.26087109375,428.9002734375,143.93087109375,436.5202734375,136.48087109375C437.8102734375,135.22087109375,441.3602734375,131.27087109375,441.6502734375,122.91087109375C444.9702734375,120.60087109375,447.3402734375,118.30087109375,448.8602734375,116.65087109375Q457.3402734375,107.47087109375,457.7502734375,97.45107109375C457.7802734375,96.61107109375,457.8802734375,94.35107109375,456.7302734375,93.75107109375C456.1102734375,93.42117109375,455.37027343750003,93.70107109375,455.0702734375,93.81117109375C454.4602734375,94.04117109375,455.3202734375,93.67117109375,455.3402734375,93.64107109375Q455.4302734375,93.55117109375,455.5202734375,93.47107109375L455.5302734375,93.47107109375Z" fill="#FFFFFF" fill-opacity="1"/></g><g><path d="M416.3888734375,1.5549405255889892Q412.4215734375,-0.5938094744110107,407.0104734375,0.2266805255889892Q401.6301734375,1.0424905255889894,398.4278734375,6.084360525588989Q395.2842734375,11.033600525588989,394.3636734375,14.74028052558899Q393.6638734375,17.557880525588992,392.9939734375,26.23458052558899Q392.6346734375,30.88838052558899,392.3525734375,34.125980525588986L374.1370734375,59.994780525588986Q372.0915734375,58.47948052558899,368.7202734375,55.95108052558899Q364.3510734375,52.67238052558899,359.6924734375,54.38538052558899Q355.6752634375,55.86248052558899,351.9450734375,61.24148052558899L351.6843934375,61.61738052558899L351.5475934375,62.05388052558899Q344.7923834375,83.60768052558899,344.7802934375,98.906180525589Q344.7671134375,115.58888052558899,352.9986834375,119.97788052558899Q358.6715734375,123.00588052558899,367.4806734375,119.28488052558899Q377.5325734375,132.464880525589,396.8848734375,134.767880525589Q407.7395734375,143.094880525589,419.5460734375,144.22888052558898Q431.6945734375,145.394880525589,438.6175734375,138.625880525589Q443.8698734375,133.495880525589,444.5651734375,124.51088052558899Q448.1392734375,121.86188052558899,451.0662734375,118.68388052558899Q460.2922734375,108.69588052558899,460.7482734375,97.57378052558899Q460.7482734375,97.55658052558898,460.7502734375,97.51898052558899Q460.8512734375,94.69868052558898,459.9872734375,93.00778052558898Q463.6172734375,88.370680525589,464.8432734375,82.16228052558898Q466.3542734375,74.46928052558899,458.1392734375,65.29258052558899Q450.5512734375,56.81638052558899,440.00097343749997,52.74238052558899Q430.38367343749997,49.025380525588986,419.97877343749997,50.09808052558899Q430.6659734375,29.16968052558899,431.2120734375,21.79258052558899Q431.7011734375,15.18448052558899,428.8414734375,11.07474052558899Q425.7421734375,6.62067052558899,416.3888734375,1.5549405255889892ZM453.6152734375,91.14708052558899Q457.7662734375,87.03098052558899,458.9572734375,80.99988052558899Q459.8912734375,76.24498052558899,453.6692734375,69.29458052558898Q447.04327343750003,61.89368052558899,437.8395734375,58.33958052558899Q425.8325734375,53.698980525588986,412.2295734375,57.76528052558899L400.6096734375,61.23888052558899L412.0504734375,50.02308052558899L414.51247343750003,47.60958052558899Q424.7682734375,27.56618052558899,425.2283734375,21.34958052558899Q425.5603734375,16.86428052558899,423.91647343750003,14.50178052558899Q421.6312734375,11.21770052558899,413.5314734375,6.8308405255889895Q411.3325734375,5.639900525588989,407.9099734375,6.1588705255889895Q405.2303734375,6.565170525588989,403.4925734375,9.30125052558899Q400.8721734375,13.42688052558899,400.1867734375,16.186580525588987Q399.6075734375,18.518580525588987,398.9761734375,26.69648052558899Q398.5683734375,31.97818052558899,398.2584734375,35.45918052558899L398.1869734375,36.261680525588986L375.5433734375,68.419080525589L373.0852734375,66.66138052558898Q371.2675734375,65.36148052558899,365.1202734375,60.75108052558899Q363.3594734375,59.42978052558899,361.7631734375,60.01678052558899Q359.6347734375,60.79938052558899,357.1338434375,64.29388052558899Q350.7915334375,84.68338052558899,350.7802934375,98.91098052558898Q350.7699534375,111.98988052558899,355.8218934375,114.68388052558899Q359.5006734375,116.64688052558898,367.1413734375,112.836880525589L369.5104734375,111.654880525589L370.9775734375,113.85888052558899Q379.6764734375,126.92488052558899,398.3749734375,128.897880525589L399.2388734375,128.988880525589L399.9203734375,129.52688052558898Q409.6998734375,137.255880525589,420.1194734375,138.255880525589Q429.4931734375,139.155880525589,434.4229734375,134.33588052558898Q438.3864734375,130.464880525589,438.6520734375,122.806880525589L438.7041734375,121.30588052558899L439.9368734375,120.44888052558899Q443.6867734375,117.83888052558899,446.65377343750004,114.61888052558899Q454.3882734375,106.24588052558899,454.7532734375,97.32838052558898L454.7532734375,97.30278052558899Q454.7612734375,97.07988052558899,454.7632734375,96.88518052558899Q453.5532734375,96.85618052558898,452.6982734375,95.97348052558898Q450.9282734375,94.14798052558899,452.4392734375,92.10258052558899Q452.7682734375,91.657080525589,453.2372734375,91.35578052558898Q453.3762734375,91.26598052558899,453.6152734375,91.14708052558899ZM453.4002734375,91.344580525589Q453.2522734375,91.46988052558899,453.1192734375,91.619780525589L453.21927343749996,91.51948052558899Q453.3092734375,91.42968052558899,453.4002734375,91.344580525589Z" fill-rule="evenodd" fill="#231F20" fill-opacity="1"/></g></g><g><path d="M4.960205078125,675.38094140625C16.800205078125,678.20094140625,218.890205078125,724.66094140625,255.170205078125,653.93094140625C260.450205078125,643.63094140625,260.38020507812496,634.43094140625,260.280205078125,620.23094140625C259.770205078125,553.45094140625,211.750205078125,524.22094140625,161.220205078125,435.38094140625C152.490205078125,420.03094140625,139.440205078125,395.45094140625,126.510205078125,363.04094140625C117.900205078125,340.93094140625,107.130205078125,308.24094140625,100.840205078125,267.50094140625004C92.440205078125,213.05094140625,88.030205078125,165.64094140625,108.120205078125,115.71104140625Q143.860205078125,26.86108140625,211.270205078125,24.82104140625Q255.180205078125,15.63110140625,300.120205078125,40.14094140625Q345.060205078125,64.65104140625,350.160205078125,66.69104140625001Q345.050205078125,98.35104140625,350.160205078125,108.56104140625Q355.270205078125,118.77104140625,331.780205078125,99.37114140625C314.460205078125,84.61104140625,298.260205078125,75.54114140625,286.590205078125,70.01114140625C273.730205078125,63.91114140625,263.650205078125,59.24104140625,249.570205078125,57.75114140625C229.060205078125,55.59104140625,212.340205078125,61.50114140625,203.100205078125,65.66114140625001C197.140205078125,67.16114140625001,189.530205078125,70.26114140625,181.140205078125,75.11104140625C169.650205078125,81.75114140625,157.140205078125,92.22104140625,153.050205078125,107.54114140625C142.610205078125,128.20094140625,129.770205078125,160.28094140625,127.520205078125,200.48094140625C126.220205078125,223.60094140625,127.850205078125,259.79094140625,167.350205078125,351.63094140625C184.570205078125,391.67094140625,209.900205078125,444.38094140625,246.360205078125,503.78094140625C271.490205078125,535.08094140625,286.270205078125,564.01094140625,295.010205078125,584.48094140625C312.840205078125,626.24094140625,309.940205078125,643.08094140625,307.270205078125,651.88094140625C302.040205078125,669.10094140625,290.390205078125,679.61094140625,282.050205078125,686.94094140625C272.900205078125,694.99094140625,250.570205078125,712.22094140625,197.400205078125,721.32094140625C145.840205078125,730.15094140625,102.010205078125,725.03094140625,43.900205078125,718.26094140625C27.800205078125,716.38094140625,14.630205078125,714.47094140625,6.000205078125,713.15094140625C5.660206078125,700.55094140625,5.3202060781250005,687.96094140625,4.980205978125,675.36094140625L4.960205078125,675.38094140625Z" fill="#231F20" fill-opacity="1"/><path d="M7.428015078125,673.39394140625L7.323685078125,669.52894140625L3.222495078125,673.58294140625L0.000055078125000385114,676.76994140625L2.533595078125,677.37294140625L2.994205078125,694.43794140625L3.557475078125,715.30694140625L5.622230078125,715.62294140625Q24.576405078125,718.52194140625,43.610905078125,720.74494140625L43.772405078125,720.76294140625Q98.331905078125,727.11994140625,123.072205078125,728.14194140625Q162.798205078125,729.78294140625,197.822205078125,723.78594140625Q255.100205078125,713.98194140625,283.700205078125,688.81894140625Q292.838205078125,680.78894140625,297.770205078125,674.69294140625Q306.070205078125,664.43294140625,309.662205078125,652.60694140625Q312.687205078125,642.63794140625,311.312205078125,630.26494140625Q309.214205078125,611.38194140625,297.309205078125,583.49994140625Q278.869205078125,540.31194140625,248.408205078125,502.33894140625Q203.205205078125,428.67494140625,169.647205078125,350.64394140625Q143.401205078125,289.61994140625,134.576205078125,249.74594140625Q128.737205078125,223.36394140625,130.01620507812498,200.62094140625Q132.657205078125,153.44094140625,155.281205078125,108.66864140625L155.398205078125,108.43684140625L155.465205078125,108.18594140625Q160.311205078125,90.03554140625,182.391205078125,77.27544140625Q194.109205078125,70.50204140625,203.710205078125,68.08554140625L203.925205078125,68.03154140625L204.126205078125,67.94074140625Q226.558205078125,57.84144140625,249.307205078125,60.23724140625Q258.536205078125,61.21384140625,267.692205078125,64.50494140625Q273.707205078125,66.66704140625001,285.519205078125,72.27034140625Q309.407205078125,83.58994140625,330.188205078125,101.29864140625Q342.153205078125,111.18004140625,347.002205078125,113.60464140625Q351.194205078125,115.70084140625,352.950205078125,113.28494140625Q354.353205078125,111.35364140625,352.396205078125,107.44214140625Q347.647205078125,97.95324140625,352.628205078125,67.08934140625L352.947205078125,65.11324140625L351.089205078125,64.36984140625Q346.127205078125,62.38504140625,301.317205078125,37.946241406249996Q255.679205078125,13.05560140625,210.974205078125,22.32909600625Q142.093205078125,24.55610140625,105.801205078125,114.77784140625Q91.880405078125,149.37494140625,91.296705078125,189.87494140625Q90.872905078125,219.28894140625,98.369505078125,267.88294140625Q105.989205078125,317.23294140625,124.188205078125,363.96794140625Q139.366205078125,402.01294140625,159.047205078125,436.61694140625Q177.024205078125,468.22394140625,209.977205078125,513.17494140625Q235.756205078125,548.34094140625,244.214205078125,565.15394140625Q257.562205078125,591.68494140625,257.780205078125,620.24894140625L257.780205078125,620.28994140625Q257.87020507812497,633.06494140625,257.258205078125,638.26694140625Q256.32420507812503,646.19994140625,252.946205078125,652.78994140625Q240.972205078125,676.13194140625,201.876205078125,685.08094140625Q169.753205078125,692.43394140625,121.038205078125,689.74094140625Q85.435405078125,687.77294140625,44.372905078125,680.70194140625Q23.002205078125,677.02194140625,7.428015078125,673.39394140625ZM7.567405078125001,678.55794140625L7.992385078125,694.30294140625L8.442885078125,710.99394140625Q26.278605078125,713.68594140625,44.189505078125,715.77794140625L44.351005078125,715.79694140625Q98.725605078125,722.13194140625,123.278205078125,723.14594140625Q162.476205078125,724.76494140625,196.978205078125,718.85694140625Q252.860205078125,709.29294140625,280.400205078125,685.06394140625Q289.218205078125,677.31294140625,293.883205078125,671.54794140625Q301.570205078125,662.04594140625,304.878205078125,651.15494140625Q311.475205078125,629.41194140625,292.711205078125,585.46294140625Q274.511205078125,542.83594140625,244.411205078125,505.34594140625L244.312205078125,505.22394140625L244.229205078125,505.08894140625Q198.785205078125,431.05194140625,165.053205078125,352.61894140625Q138.620205078125,291.16094140625,129.69420507812498,250.82594140625Q123.707205078125,223.77094140625,125.024205078125,200.34194140625Q127.716205078125,152.23894140625,150.703205078125,106.64264140625Q156.165205078125,86.65644140625,179.889205078125,72.94664140625Q192.082205078125,65.89824140625001,202.274205078125,63.29144140625Q225.840205078125,52.73814140625,249.833205078125,55.26494140625Q259.661205078125,56.30494140625,269.383205078125,59.79974140625Q275.628205078125,62.04454140625,287.661205078125,67.75194140625Q312.147205078125,79.35494140624999,333.372205078125,97.44354140625Q342.552205078125,105.02494140625,347.173205078125,107.94454140625Q342.979205078125,96.71564140625,347.393205078125,68.18194140624999Q338.568205078125,63.95804140625,298.923205078125,42.33574140625Q254.791205078125,18.26663140625,211.782205078125,27.26803140625L211.566205078125,27.31323140625L211.346205078125,27.31990140625Q145.569205078125,29.310301406249998,110.439205078125,116.64424140625Q96.866305078125,150.37794140625,96.296205078125,189.94694140625Q95.878405078125,218.94094140625,103.310905078125,267.11994140625Q110.846205078125,315.92894140625,128.832205078125,362.11494140625Q143.883205078125,399.83994140625,163.393205078125,434.14494140625Q181.227205078125,465.50094140625,214.009205078125,510.21894140625Q240.035205078125,545.72094140625,248.681205078125,562.90694140625Q262.553205078125,590.47994140625,262.780205078125,620.21394140625L262.780205078125,620.25494140625Q262.872205078125,633.34094140625,262.224205078125,638.85194140625Q261.184205078125,647.67994140625,257.39420507812497,655.07194140625Q233.844205078125,700.98494140625,120.762205078125,694.73294140625Q84.871505078125,692.74894140625,43.524405078125,685.62894140625Q22.877005078125,682.07394140625,7.567405078125001,678.55794140625Z" fill-rule="evenodd" fill="#231F20" fill-opacity="1"/></g><g><path d="M385.5685971816406,87.428136328125Q401.7278111816406,93.033816328125,413.1576111816406,93.817526328125L413.3628111816406,90.824556328125Q402.33261118164063,90.068236328125,386.55182518164065,84.593836328125L385.5685971816406,87.428136328125Z" fill-rule="evenodd" fill="#231F20" fill-opacity="1"/></g><g transform="matrix(0.9219948649406433,0.38720205426216125,-0.38720205426216125,0.9219948649406433,69.60969164097332,-141.53952661235962)"><path d="M386.321547015625,100.51228890625Q399.509241015625,102.55187990625,405.545541015625,102.40510590625Q405.56384101562503,102.40466290625,405.582041015625,102.40466290625Q405.655741015625,102.40466290625,405.729041015625,102.41188590625Q405.802441015625,102.41910890625,405.874641015625,102.43348490625Q405.946941015625,102.44786190625,406.017441015625,102.46925290625Q406.087941015625,102.49064390625,406.156041015625,102.51884390625Q406.224141015625,102.54704390625,406.289141015625,102.58178090625Q406.354141015625,102.61651890625,406.415341015625,102.65745890625Q406.476641015625,102.69839890625,406.533641015625,102.74514790625Q406.590541015625,102.79189590625,406.642641015625,102.84400290625Q406.694841015625,102.89610990625,406.741541015625,102.95307290625Q406.788341015625,103.01003890625,406.82924101562503,103.07130890625Q406.870141015625,103.13257890625,406.904941015625,103.19756890625Q406.939641015625,103.26255890625,406.967841015625,103.33063890625Q406.996041015625,103.39871890625,407.017441015625,103.46923890625Q407.038841015625,103.53974890625,407.053241015625,103.61202890625Q407.067541015625,103.68429890625,407.074841015625,103.75763890625Q407.082041015625,103.83096890625,407.082041015625,103.90465890625Q407.082041015625,103.97720890625,407.075041015625,104.04941890625Q407.068041015625,104.12162890625,407.054041015625,104.19282890625Q407.040141015625,104.26402890625,407.019441015625,104.33354890625Q406.998641015625,104.40306890625,406.971341015625,104.47025890625Q406.943941015625,104.53745890625,406.910241015625,104.60169890625Q406.876541015625,104.66593890625,406.836741015625,104.72661890625Q406.797041015625,104.78730890625,406.751641015625,104.84387890625Q406.706141015625,104.90044890625,406.655541015625,104.95236890625Q406.60484101562497,105.00427890625,406.549341015625,105.05106890625Q406.493941015625,105.09785890625,406.434241015625,105.13906890625Q406.374541015625,105.18028890625,406.311141015625,105.21554890625Q406.247741015625,105.25081890625,406.181241015625,105.27979890625Q406.114641015625,105.30877890625,406.045741015625,105.33119890625Q405.976741015625,105.35362890625,405.905841015625,105.36928890625Q405.835041015625,105.38494890625,405.763041015625,105.39370890625Q405.690941015625,105.40245890625,405.618441015625,105.40421890625L405.617241015625,105.40424890625Q399.313541015625,105.55728890625,385.862778015625,103.47700890625Q385.731118015625,103.45663890625,385.605108015625,103.41339890625Q385.479097015625,103.37014890625,385.362681015625,103.30536890625Q385.246265015625,103.24058890625,385.143089015625,103.15630890625Q385.039911015625,103.07201890625,384.953201015625,102.97087290625Q384.866501015625,102.86972490625,384.798971015625,102.75487890625Q384.731451015625,102.64003290625,384.685231015625,102.51508390625Q384.639001015625,102.39013490625,384.615521015625,102.25899490625Q384.592041015625,102.12785390625,384.592041015625,101.99462890625Q384.592041015625,101.92093860625,384.599261015625,101.84760290625Q384.606491015625,101.77426790625,384.620861015625,101.70199390625Q384.635241015625,101.62971890625,384.656631015625,101.55920190625Q384.678021015625,101.48868490625,384.706221015625,101.42060390625Q384.734421015625,101.35252290625,384.769161015625,101.28753390625Q384.803901015625,101.22254490625,384.844841015625,101.16127390625Q384.885781015625,101.10000190625,384.932521015625,101.04303890625Q384.979271015625,100.98607890625,385.031381015625,100.93396890625Q385.083491015625,100.88185890625,385.140451015625,100.83510890625Q385.197414015625,100.78836890625,385.258686015625,100.74742890625Q385.319957015625,100.70648890625,385.384946015625,100.67174890625Q385.449935015625,100.63700890625,385.518016015625,100.60880890625Q385.586097015625,100.58060890625,385.656614015625,100.55921890625Q385.727131015625,100.53782890625,385.799406015625,100.52344890625Q385.871680015625,100.50907890625,385.945015015625,100.50184890625Q386.018350715625,100.49462890625,386.092041015625,100.49462890625Q386.207350015625,100.49462890625,386.321304015625,100.51224890625L386.321547015625,100.51228890625Z" fill-rule="evenodd" fill="#231F20" fill-opacity="1"/></g></g></g></svg>