<svg xmlns="http://www.w3.org/2000/svg" xmlns:xlink="http://www.w3.org/1999/xlink" fill="none" version="1.1" width="1143.64990234375" height="651.17578125" viewBox="0 0 1143.64990234375 651.17578125"><g><path d="M1139.8,266.532L1062.1,228.833L1096.1,177.893C1099.53,172.743,1096.57,165.772,1090.48,164.663L983.843,145.343L995.302,96.7725C997.002,89.5825,991.223,82.8125,983.853,83.3525L879.273,91.0425L849.633,29.4325C847.283,24.5525,841.713,22.1224,836.533,23.7325L731.883,56.2227C731.813,56.2427,731.743,56.2727,731.673,56.2927L669.823,2.67273C666.303,-0.377319,661.233,-0.86731,657.193,1.46277L571.623,50.8628L484.833,8.76282C480.643,6.73279,475.613,7.57288,472.323,10.8728L411.793,71.4929C410.943,71.093,410.013,70.793,409.003,70.603L304.433,51.6531C299.173,50.7031,293.993,53.6931,292.193,58.7231L269.483,122.063L152.593,127.913C150.583,128.013,149.173,129.953,149.713,131.893L166.543,193.323L50.5626,219.773C46.1826,220.773,44.6226,226.203,47.8026,229.373L100.133,281.483L3.43256,323.433C-0.937439,325.333,-1.19745,331.443,3.01254,333.693L68.8026,368.913L19.4125,427.233C16.6525,430.493,18.3326,435.523,22.4925,436.473L126.293,460.113L94.7325,519.933C92.7726,523.643,95.3625,528.133,99.5626,528.293L215.093,532.703L217.803,593.513C217.943,596.763,220.783,599.233,224.023,598.933L348.713,587.483L383.863,637.783C386.753,641.923,392.113,643.543,396.813,641.703L495.793,602.933L570.953,649.533C574.823,651.933,579.763,651.683,583.372,648.913L650.853,597.083L757.863,623.903C762.383,625.033,767.133,623.183,769.673,619.273L810.443,556.854L925.993,563.924C931.553,564.264,936.483,560.374,937.433,554.884L948.473,491.333L1053.43,477.753C1058.64,477.083,1061.17,471.023,1057.99,466.844L1023.59,421.664L1123.77,382.424C1128.73,380.484,1129.65,373.854,1125.41,370.634L1066.56,325.954L1140.51,278.444C1144.99,275.564,1144.6,268.884,1139.8,266.554L1139.8,266.532ZM262.383,141.873C262.242,141.943,262.102,142.012,261.963,142.093L262.653,141.143L262.393,141.873L262.383,141.873Z" fill="#231F20" fill-opacity="1"/></g></svg>