<svg xmlns="http://www.w3.org/2000/svg" xmlns:xlink="http://www.w3.org/1999/xlink" fill="none" version="1.1" width="95.33695220947266" height="55.9852294921875" viewBox="0 0 95.33695220947266 55.9852294921875"><g><path d="M13.1932,18.0347Q21.3695,0.03466800000000003,38.2508,1.0546875Q59.8,2.7146600000000003,64.8644,18.0347Q95.2407,16.5046,93.2983,36.1647Q101.088,57.8647,50.4542,54.5447C39.2373,54.4847,28.0102,54.4147,16.7932,54.3547C14.6475,53.5746,11.6068,52.1347,8.688130000000001,49.4647C2.58644,43.8746,1.315252,36.7847,1,34.3746Q1.783047,23.6547,13.2034,18.0346L13.1932,18.0347Z" fill="#FFFFFF" fill-opacity="1"/><path d="M14.7793,17.0251L17.5534,17.0085L13.6449,18.9318Q2.7930900000000003,24.2722,2.005,34.3463Q3.17611,43.0586,9.36312,48.7268Q12.68,51.7612,16.9738,53.3557L33.6387,53.4497L50.4898,53.5449L50.5197,53.5468Q75.5972,55.1912,86.088,50.6907Q95.9341,46.4667,92.3571,36.5025L92.281,36.2905L92.3032,36.0664Q93.214,26.8476,86.6234,22.6453Q79.784,18.2845,64.91470000000001,19.0334L64.154,19.0717L63.9149,18.3485Q59.0594,3.66058,38.1905,2.05287Q22.6739,1.115323,14.7793,17.0251ZM12.4283,17.3037Q0.815843,23.1693,0.0026570000000000205,34.3018L-0.0047600000000000975,34.4034L0.008446999999999982,34.5043Q1.251595,44.008,8.01315,50.2025Q11.6853,53.5619,16.4516,55.2945L16.6144,55.3537L33.6274,55.4497L50.4187,55.5445Q75.9513,57.2155,86.8765,52.5287Q98.3474,47.6077,94.3146,36.0392Q95.2431,25.7694,87.6986,20.959Q80.5007,16.369500000000002,65.5647,17.0011Q60.034,1.729724,38.3112,0.056508Q20.8938,-0.9959199999999999,12.4283,17.3037Z" fill-rule="evenodd" fill="#313131" fill-opacity="1"/></g></svg>