<svg xmlns="http://www.w3.org/2000/svg" xmlns:xlink="http://www.w3.org/1999/xlink" fill="none" version="1.1" width="1699.2689208984375" height="503.51513671875" viewBox="0 0 1699.2689208984375 503.51513671875"><g><g><path d="M142.49056328125,18.035432421875Q150.66686328125,0.03543042187500001,167.54826328125,1.055435221875Q189.09736328125,2.715442421875,194.16176328125,18.035432421875Q224.53806328125,16.505432421875,222.59566328124998,36.165432421875Q230.38536328125,57.865432421875,179.75156328125001,54.545432421875C168.53466328125,54.485432421875,157.30756328125,54.415432421875,146.09056328125,54.355432421875C143.94486328125,53.575432421875,140.90416328125,52.135432421875,137.98549328125,49.465432421875C131.88380328125,43.875432421875,130.61261528125,36.785432421875,130.29736328125,34.375432421875Q131.08040328125,23.655432421875,142.50076328125,18.035432421875L142.49056328125,18.035432421875Z" fill="#FFFFFF" fill-opacity="1"/><path d="M144.07076328125,17.037832421875L146.78466328125,17.041832421875L142.94226328125,18.932732421875Q132.09044328125,24.272932421875,131.30236328125,34.347132421875Q132.47349328125,43.059432421875,138.66047328125,48.727632421875Q141.97756328125,51.762032421875,146.27116328125,53.356432421875L162.92976328125,53.450432421875L179.78716328125,53.545632421875L179.81706328125,53.547632421875Q204.89456328125,55.191932421875,215.38536328125,50.691432421875Q225.23146328125,46.467532421875,221.65446328125,36.503332421875L221.57836328125,36.291332421875L221.60056328125,36.067132421875Q222.51126328125,26.848432421875,215.92076328125,22.646132421875Q209.08146328125,18.285232421875,194.21206328125,19.034132421875L193.45136328125,19.072432421875L193.21236328125,18.349332421875Q188.35686328125,3.661352421875,167.48786328125,2.053612421875Q151.96536328125,1.115734421875,144.07076328125,17.037832421875ZM141.72556328125,17.304532421875Q130.11319428125,23.170032421875,129.30002028125,34.302632421875L129.29260328125,34.404132421875L129.30581028125,34.505132421875Q130.54898028125,44.008732421875,137.31051328125,50.203232421875Q140.98286328125,53.562732421875,145.74896328124998,55.295232421875L145.91176328125,55.354432421875L162.91846328125,55.450432421875L179.71606328125,55.545232421875Q205.24866328125,57.216332421875,216.17386328125,52.529432421875Q227.64476328125,47.608432421875,223.61196328124998,36.039932421875Q224.54036328125,25.770232421875,216.99606328125,20.959732421875Q209.79816328125,16.370232421875002,194.86206328125002,17.001932421875Q189.33126328125002,1.730494421875,167.60856328124999,0.05725542187499999Q150.19106328125,-0.995127578125,141.72556328125,17.304532421875Z" fill-rule="evenodd" fill="#313131" fill-opacity="1"/></g><g><path d="M1295.08621171875,392.993094140625Q1303.23301171875,376.655305140625,1320.0534117187499,377.581131540625Q1341.52471171875,379.087814140625,1346.57091171875,392.993094140625Q1376.83751171875,391.604394140625,1374.90211171875,409.448894140625Q1382.66381171875,429.145094140625,1332.21271171875,426.131594140625C1321.03621171875,426.077194140625,1309.84971171875,426.013594140625,1298.67321171875,425.959194140625C1296.53521171875,425.251194140625,1293.50551171875,423.944194140625,1290.59745171875,421.520694140625C1284.51778171875,416.446894140625,1283.25118671875,410.011694140625,1282.93701171875,407.824194140625Q1283.71725471875,398.094094140625,1295.09631171875,392.993094140625L1295.08621171875,392.993094140625Z" fill="#FFFFFF" fill-opacity="1"/><path d="M1296.74411171875,391.984094140625L1299.82931171875,391.967194140625L1295.50541171875,393.905594140625Q1284.73258171875,398.734894140625,1283.94309171875,407.793194140625Q1285.10752171875,415.636594140625,1291.23764171875,420.752494140625Q1294.54731171875,423.510694140625,1298.83851171875,424.959994140625L1315.44811171875,425.045394140625L1332.24511171875,425.131794140625L1332.27231171875,425.133394140625Q1357.27871171875,426.626994140625,1367.74661171875,422.536294140625Q1372.71771171875,420.593594140625,1374.24471171875,417.441594140625Q1375.75141171875,414.331594140625,1373.97171171875,409.815494140625L1373.88131171875,409.586194140625L1373.90791171875,409.341094140625Q1374.80551171875,401.064994140625,1368.28471171875,397.277394140625Q1361.45621171875,393.311194140625,1346.61671171875,393.992094140625L1345.88181171875,394.025794140625L1345.63091171875,393.334194140625Q1340.80631171875,380.039874140625,1319.99841171875,378.579624140625Q1304.60051171875,377.732101140625,1296.74411171875,391.984094140625ZM1294.34861171875,392.234394140625Q1282.75595771875,397.571494140625,1281.94021171875,407.744194140625L1281.93127171875,407.855694140625L1281.94716871875,407.966294140625Q1283.19351971875,416.644194140625,1289.95725171875,422.288894140625Q1293.61581171875,425.337794140625,1298.35891171875,426.908494140625L1298.50951171875,426.958294140625L1315.43781171875,427.045394140625L1332.18031171875,427.131494140625Q1357.60361171875,428.647394140625,1368.47461171875,424.399094140625Q1374.17581171875,422.171094140625,1376.04461171875,418.313594140625Q1377.89281171875,414.498594140625,1375.92141171875,409.312194140625Q1376.83601171875,399.931394140625,1369.28921171875,395.547994140625Q1362.12531171875,391.386894140625,1347.24871171875,391.963494140625Q1341.71241171875,378.098531140625,1320.10831171875,376.582644140625Q1302.79361171875,375.629624140625,1294.34861171875,392.234394140625Z" fill-rule="evenodd" fill="#313131" fill-opacity="1"/></g><g><path d="M1614.84212578125,442.566194140625Q1623.01842578125,424.566162140625,1639.89982578125,425.586181640625Q1661.44882578125,427.246154140625,1666.51342578125,442.566194140625Q1699.8794257812501,442.871494140625,1697.93702578125,462.531494140625Q1700.33702578125,472.463794140625,1684.93702578125,478.886194140625Q1677.42012578125,480.736194140625,1652.10312578125,479.076194140625C1640.88622578125,479.016194140625,1629.65912578125,478.946194140625,1618.44222578125,478.886194140625C1616.29642578125,478.106094140625,1613.25572578125,476.666194140625,1610.33712578125,473.996194140625C1604.23542578125,468.406094140625,1602.96423978125,461.316194140625,1602.64892578125,458.906094140625Q1603.43199678125,448.186194140625,1614.85232578125,442.566094140625L1614.84212578125,442.566194140625Z" fill="#FFFFFF" fill-opacity="1"/><path d="M1685.2508257812501,479.83889414062503L1685.32192578125,479.809194140625Q1701.38432578125,473.110494140625,1698.94812578125,462.462694140625Q1699.89672578125,452.144794140625,1691.58862578125,446.866094140625Q1683.66082578125,441.829094140625,1667.22892578125,441.574894140625Q1661.71322578125,426.263550140625,1639.97662578125,424.589135140625Q1622.54282578125,423.535604140625,1614.07712578125,441.835194140625Q1602.46479078125,447.700794140625,1601.65158278125,458.833294140625L1601.64416578125,458.934894140625L1601.65737578125,459.035894140625Q1602.90078978125,468.539594140625,1609.66160578125,474.733494140625Q1613.33422578125,478.093394140625,1618.10052578125,479.82599414062497L1618.26332578125,479.885194140625L1635.26952578125,479.981194140625L1652.06762578125,480.07599414062497Q1677.51342578125,481.742994140625,1685.17602578125,479.857294140625L1685.2508257812501,479.83889414062503ZM1616.42822578125,441.556594140625Q1624.32212578125,425.646751140625,1639.82292578125,426.583224140625Q1660.70832578125,428.192064140625,1665.56392578125,442.879994140625L1665.78852578125,443.559594140625L1666.50422578125,443.566094140625Q1682.90132578125,443.716194140625,1690.51602578125,448.554194140625Q1697.85252578125,453.215494140625,1696.94182578125,462.433194140625L1696.92522578125,462.601694140625L1696.96502578125,462.766394140625Q1699.15922578125,471.846894140625,1684.62402578125,477.933194140625Q1677.20562578125,479.719994140625,1652.16862578125,478.078294140625L1652.13872578125,478.076394140625L1635.28082578125,477.981194140625L1618.62282578125,477.887194140625Q1614.32902578125,476.29269414062503,1611.01263578125,473.258794140625Q1604.82528578125,467.590294140625,1603.65392578125,458.877794140625Q1604.44202578125,448.803594140625,1615.29382578125,443.463294140625L1619.20222578125,441.539994140625L1616.42822578125,441.556594140625Z" fill-rule="evenodd" fill="#313131" fill-opacity="1"/></g><g><path d="M13.1980828125,465.566194140625Q21.3743828125,447.566162140625,38.2556828125,448.586181640625Q59.8048828125,450.246154140625,64.8692828125,465.566194140625Q95.2455828125,464.036094140625,93.3031828125,483.696194140625Q101.0928828125,505.39619414062497,50.4590828125,502.076194140625C39.2421828125,502.016194140625,28.0150828125,501.946194140625,16.7980828125,501.886194140625C14.6523828125,501.106094140625,11.6116828125,499.666194140625,8.693012812500001,496.996194140625C2.5913228125,491.406094140625,1.3201348125,484.316194140625,1.0048828125,481.906094140625Q1.7879298125,471.186194140625,13.2082828125,465.566094140625L13.1980828125,465.566194140625Z" fill="#FFFFFF" fill-opacity="1"/><path d="M14.7841828125,464.556594140625L17.5582828125,464.539994140625L13.6497828125,466.463294140625Q2.7979728125000003,471.803694140625,2.0098828125,481.877794140625Q3.1809928125,490.590094140625,9.3680028125,496.258294140625Q12.6848828125,499.29269414062503,16.9786828125,500.887194140625L33.6435828125,500.981194140625L50.4946828125,501.076394140625L50.5245828125,501.078294140625Q75.6020828125,502.722694140625,86.0928828125,498.222194140625Q95.9389828125,493.998194140625,92.3619828125,484.033994140625L92.2858828125,483.821994140625L92.3080828125,483.597894140625Q93.2188828125,474.379094140625,86.6282828125,470.176794140625Q79.7888828125,465.815994140625,64.91958281250001,466.56489414062503L64.1588828125,466.603194140625L63.9197828125,465.879994140625Q59.0642828125,451.192074140625,38.1953828125,449.584364140625Q22.6787828125,448.646817140625,14.7841828125,464.556594140625ZM12.4331828125,464.835194140625Q0.8207258125,470.700794140625,0.0075398125000000205,481.833294140625L0.0001228124999999025,481.934894140625L0.013329812499999982,482.035794140625Q1.2564778125,491.539494140625,8.0180328125,497.733994140625Q11.6901828125,501.093394140625,16.4564828125,502.82599414062497L16.6192828125,502.885194140625L33.6322828125,502.981194140625L50.4235828125,503.07599414062497Q75.9561828125,504.746994140625,86.8813828125,500.060194140625Q98.3522828125,495.139194140625,94.3194828125,483.570694140625Q95.2479828125,473.300894140625,87.7034828125,468.490494140625Q80.5055828125,463.900994140625,65.5695828125,464.532594140625Q60.0388828125,449.261218140625,38.3160828125,447.588002140625Q20.8986828125,446.535574140625,12.4331828125,464.835194140625Z" fill-rule="evenodd" fill="#313131" fill-opacity="1"/></g><g><path d="M392.469223046875,433.19143828125Q400.645523046875,415.19143628125,417.526923046875,416.21142578125Q439.076023046875,417.87142828125,444.140423046875,433.19143828125Q474.516723046875,431.66143828125,472.574423046875,451.32143828125Q480.36412304687497,473.02143828124997,429.730323046875,469.70143828125C418.51332304687503,469.64143828125,407.286223046875,469.57143828125,396.069323046875,469.51143828125C393.923523046875,468.73143828125,390.882923046875,467.29143828125,387.964253046875,464.62143828125C381.862563046875,459.03143828125,380.591375046875,451.94143828125,380.276123046875,449.53143828125Q381.059194046875,438.81143828125,392.479523046875,433.19133828125L392.469223046875,433.19143828125Z" fill="#FFFFFF" fill-opacity="1"/><path d="M394.055323046875,432.18193828125L396.829123046875,432.16543828125L392.921023046875,434.08863828125Q382.069233046875,439.42893828125,381.281123046875,449.50303828125Q382.452233046875,458.21543828125,388.639243046875,463.88363828125Q391.956123046875,466.91793828125003,396.249923046875,468.51243828125L412.958823046875,468.60673828125L429.76582304687497,468.70163828125L429.79572304687497,468.70363828125Q454.873323046875,470.34793828125,465.364023046875,465.84743828125Q475.21012304687497,461.62353828125,471.633223046875,451.65933828125003L471.557123046875,451.44733828125L471.579223046875,451.22313828125Q472.49002304687497,442.00433828125,465.899423046875,437.80213828125Q459.060023046875,433.44123828125,444.190723046875,434.19013828125003L443.430023046875,434.22843828125L443.191023046875,433.50533828125Q438.335523046875,418.81733828125,417.466623046875,417.20960828125Q401.949823046875,416.27205928125,394.055323046875,432.18193828125ZM391.704323046875,432.46053828125Q380.091986046875,438.32603828125,379.278780046875,449.45853828125L379.271363046875,449.56013828125L379.284570046875,449.66113828125Q380.527718046875,459.16473828125,387.289263046875,465.35923828125Q390.961423046875,468.71863828125,395.727623046875,470.45123828124997L395.890423046875,470.51043828125L412.947523046875,470.60673828125L429.694823046875,470.70123828124997Q455.227423046875,472.37233828125,466.152523046875,467.68543828125Q477.623523046875,462.76443828125,473.590723046875,451.19593828125Q474.519123046875,440.92623828125,466.974723046875,436.11573828125Q459.776723046875,431.52623828125,444.840723046875,432.15793828125Q439.310023046875,416.88649228125,417.587223046875,415.21324628125Q400.169823046875,414.16084828125,391.704323046875,432.46053828125Z" fill-rule="evenodd" fill="#313131" fill-opacity="1"/></g></g></svg>