<svg xmlns="http://www.w3.org/2000/svg" xmlns:xlink="http://www.w3.org/1999/xlink" fill="none" version="1.1" width="212.377197265625" height="215.504150390625" viewBox="0 0 212.377197265625 215.504150390625"><g><g><ellipse cx="104.141845703125" cy="202.504150390625" rx="73.5" ry="13" fill="#546635" fill-opacity="1"/></g><g><g><path d="M100.8656013671875,4.9740572656249995C95.2317013671875,9.844057265625,89.3028013671875,15.374097265625,83.2825013671875,21.604097265625C76.7028013671875,28.414097265625,70.9774013671875,35.064097265625,66.0045013671875,41.333997265625C65.7605013671875,41.984097265625,64.8961013671875,44.563997265625,66.0554013671875,47.534097265625C67.2655013671875,50.633997265625,69.8181013671875,51.984097265625,70.4282013671875,52.284097265625Q38.3435013671875,76.953997265625,39.9910013671875,86.263997265625C39.9808013671875,87.594097265625,40.1435013671875,90.573997265625,42.0960013671875,93.493997265625C45.5740013671875,98.683997265625,51.7469013671875,99.243997265625,52.5706013671875,99.303997265625C41.9130013671875,110.944197265625,32.7198013671875,119.914197265625,26.2418013671875,126.004197265625C10.6926613671875,140.614197265625,1.6723223671875,147.154197265625,2.0079324971875,157.294197265625C2.0384397671875,158.074197265625,2.3740193671875,165.144197265625,7.6011513671875,170.094197265625C12.2181013671875,174.464197265625,18.3096013671875,174.974197265625,21.7672013671875,175.194197265625C43.5605013671875,176.624197265625,83.2317013671875,174.934197265625,86.0283013671875,174.804197265625C85.7639013671875,175.384197265625,85.4995013671875,175.964197265625,85.2452013671875,176.544197265625L84.8385013671875,192.234197265625Q82.7842013671875,197.084197265625,95.9436013671875,197.494197265625Q109.1029013671875,197.894197265625,123.5029013671875,197.494197265625Q128.4349013671875,195.874197265625,127.6109013671875,176.864197265625C152.0489013671875,175.904197265625,176.4959013671875,174.954197265625,200.9329013671875,173.994197265625C203.9739013671875,171.564197265625,210.6049013671875,165.564197265625,210.3709013671875,157.824197265625C210.2179013671875,152.654197265625,207.0759013671875,148.874197265625,205.3569013671875,146.924197265625Q191.7809013671875,131.554197265625,162.9909013671875,101.303997265625Q179.0389013671875,89.483997265625,168.3399013671875,81.393997265625L142.0109013671875,51.463997265625Q150.2389013671875,44.993997265625,146.9439013671875,40.133997265625C134.4349013671875,27.573997265625,121.9369013671875,15.013997265625,109.4279013671875,2.463989265625C108.7269013671875,2.213989265625,107.3739013671875,1.833984265625,105.6959013671875,2.083984365625C102.8789013671875,2.513977265625,101.2622013671875,4.443967265625,100.8656013671875,4.943967265625L100.8656013671875,4.9740572656249995Z" fill="#617C36" fill-opacity="1"/><path d="M99.3398013671875,3.649507265625Q90.2044013671875,11.563057265625,81.8443013671875,20.214297265625Q72.6778013671875,29.701597265625,64.4376013671875,40.091197265625L64.2425013671875,40.337197265625L64.13220136718749,40.630997265625Q62.7014013671875,44.441797265625,64.1923013671875,48.261297265625Q65.1580013671875,50.735197265625,67.0201013671875,52.395297265625Q36.5160013671875,76.234997265625,37.9906013671875,86.419697265625Q38.0011013671875,90.968097265625,40.4335013671875,94.605697265625Q43.4801013671875,99.151997265625,48.6205013671875,100.637497265625Q37.0337013671875,113.113197265625,24.8719013671875,124.547197265625Q22.6350013671875,126.648197265625,18.5699013671875,130.390197265625Q8.0760513671875,140.050197265625,4.9143513671875,144.115197265625Q-0.21124863281250006,150.705197265625,0.009021367187499907,157.360197265625Q0.3460413671875,165.978197265625,6.2259613671875,171.546197265625Q11.5075913671875,176.545197265625,21.6403013671875,177.190197265625Q44.0964013671875,178.663197265625,83.2345013671875,176.933197265625L82.8482013671875,191.831197265625Q81.4269013671875,195.742197265625,85.7315013671875,197.781197265625Q88.8847013671875,199.275197265625,95.8813013671875,199.493197265625Q109.0999013671875,199.895197265625,123.5579013671875,199.493197265625L123.8499013671875,199.485197265625L124.1269013671875,199.394197265625Q130.1799013671875,197.406197265625,129.67990136718748,178.784197265625L164.2219013671875,177.432197265625L201.6679013671875,175.967197265625L202.1819013671875,175.556197265625Q212.6549013671875,167.187197265625,212.3699013671875,157.763197265625Q212.1889013671875,151.651197265625,206.8579013671875,145.601197265625Q193.6199013671875,130.615197265625,165.9729013671875,101.536997265625Q172.9309013671875,95.969897265625,174.2839013671875,90.935397265625Q175.9489013671875,84.737797265625,169.7109013671875,79.924697265625L144.8679013671875,51.683397265625Q152.5519013671875,44.841897265625,148.5989013671875,39.011697265625L148.4929013671875,38.855997265625L111.1719013671875,1.3800672656250002L110.5259013671875,0.731797265625L110.0999013671875,0.579987265625Q107.7759013671875,-0.24793273437499996,105.4009013671875,0.10581726562500005Q101.7343013671875,0.665557265625,99.3398013671875,3.649507265625ZM87.2343013671875,176.991197265625L86.8280013671875,192.665197265625L86.6801013671875,193.014197265625Q86.4011013671875,193.672197265625,87.4437013671875,194.166197265625Q89.8431013671875,195.303197265625,96.0058013671875,195.495197265625Q108.9449013671875,195.888197265625,123.0969013671875,195.504197265625Q126.3469013671875,193.890197265625,125.6129013671875,176.950197265625L125.5259013671875,174.944197265625L164.0649013671875,173.435197265625L200.1899013671875,172.021197265625Q208.5899013671875,165.096197265625,208.3719013671875,157.884197265625Q208.2339013671875,153.212197265625,203.8569013671875,148.246197265625Q190.3069013671875,132.906197265625,161.5419013671875,102.683197265625L159.9779013671875,101.039197265625L161.8049013671875,99.693597265625Q169.2649013671875,94.198797265625,170.4209013671875,89.897497265625Q171.4079013671875,86.221397265625,167.1339013671875,82.989197265625L166.9719013671875,82.867097265625L139.1139013671875,51.198297265625L140.7749013671875,49.891897265625Q147.3939013671875,44.686297265625,145.3789013671875,41.397397265625L108.3539013671875,4.219267265625Q107.1739013671875,3.8859172656250003,105.9909013671875,4.062147265625001Q104.1719013671875,4.339807265625,102.8659013671875,5.691517265625L102.8659013671875,5.888877265625L102.1739013671875,6.487127265625Q93.0557013671875,14.368697265625,84.7207013671875,22.993897265625Q75.8054013671875,32.221297265625,67.7784013671875,42.316397265625Q67.0393013671875,44.554597265625,67.9185013671875,46.806797265625Q68.8917013671875,49.299897265625,71.3107013671875,50.489297265625L74.1976013671875,51.908697265625L71.6473013671875,53.869597265625Q40.5243013671875,77.800097265625,41.9604013671875,85.915497265625L41.9923013671875,86.095997265625L41.9909013671875,86.279297265625Q41.9647013671875,89.699597265625,43.7586013671875,92.382297265625Q46.7701013671875,96.876197265625,52.7159013671875,97.309297265625L56.8340013671875,97.609297265625L54.0457013671875,100.654597265625Q41.1851013671875,114.700197265625,27.6117013671875,127.461197265625Q25.3599013671875,129.577197265625,21.2789013671875,133.333197265625Q11.0295313671875,142.768197265625,8.071751367187499,146.570197265625Q3.8344213671875,152.018197265625,4.0068313671875,157.228197265625Q4.2793113671875,164.194197265625,8.976351367187501,168.642197265625Q13.2060013671875,172.645197265625,21.8942013671875,173.198197265625Q44.9563013671875,174.711197265625,85.9354013671875,172.806197265625L89.2064013671875,172.654197265625L87.8481013671875,175.633197265625L87.8477013671875,175.634197265625Q87.4693013671875,176.464197265625,87.2343013671875,176.991197265625Z" fill-rule="evenodd" fill="#000000" fill-opacity="1"/></g><g><ellipse cx="79.7334623336792" cy="71.81409168243408" rx="10.8305082321167" ry="15.369999885559082" fill="#FFFFFF" fill-opacity="1"/></g><g><ellipse cx="79.6011471748352" cy="71.00416946411133" rx="5.755932331085205" ry="9.979999542236328" fill="#313131" fill-opacity="1"/></g><g><path d="M83.0282855078125,63.864013671875C82.2757505078125,63.864013671875,81.6553955078125,64.833984671875,81.6553955078125,66.023983671875C81.6553955078125,67.213993671875,82.2655715078125,68.183963671875,83.0282855078125,68.183963671875C83.7909955078125,68.183963671875,84.4011755078125,67.213993671875,84.4011755078125,66.023983671875C84.4011755078125,64.833984671875,83.7909955078125,63.864013671875,83.0282855078125,63.864013671875Z" fill="#FFFFFF" fill-opacity="1"/></g><g><ellipse cx="129.2383861541748" cy="71.14409160614014" rx="11.105085372924805" ry="14.699999809265137" fill="#FFFFFF" fill-opacity="1"/></g><g><path d="M130.163938671875,60.284240721875C126.879208671875,60.084228171875,123.899558671875,64.784236171875,123.513113271875,70.794276171875C123.126667671875,76.804276171875,125.608028671875,81.324276171875,128.892748671875,81.524276171875C132.177478671875,81.724276171875,135.035088671875,77.544276171875,135.42158867187499,71.534276171875C135.807988671875,65.524226171875,133.458848671875,60.484253171875,130.163938671875,60.284240721875Z" fill="#313131" fill-opacity="1"/></g><g><ellipse cx="133.24511396884918" cy="66.0242383480072" rx="1.6474577188491821" ry="2.430000066757202" fill="#FFFFFF" fill-opacity="1"/></g><g><path d="M89.7503430078125,71.16406246875L119.78088300781249,71.14404296875C120.0554830078125,72.10406496875,120.3401830078125,73.50403296875,120.2587830078125,75.18402296875C120.14698300781251,77.58404296875,119.3638830078125,79.41400296875,118.81478300781251,80.44403296875C117.6960830078125,82.82404296875,116.2316830078125,84.22404296875,115.35708300781249,84.93404296874999C111.5841830078125,87.98404296875,106.9773830078125,87.89404296875,105.4926830078125,87.86404296875C103.6926830078125,87.83394296875,101.9129830078125,87.50404296875,101.9129830078125,87.52394296874999Q101.9129830078125,87.56394296875,104.8315830078125,87.92404296875C103.2553830078125,87.86404296875,100.9976830078125,87.58394296875,98.5265230078125,86.57404296875C93.9502530078125,84.70404296875,91.3773730078125,81.45404296875,90.3197330078125,79.92401296875C89.8519430078125,79.30401296875,89.1909370078125,78.25403296875,88.8858330078125,76.83398296875C88.2858370078125,74.08398296875,89.3841280078125,71.86401396875,89.7603930078125,71.17401126875L89.7503430078125,71.16406246875Z" fill="#313131" fill-opacity="1"/></g><g><path d="M99.421630859375,86.85419140625C100.102969859375,85.45416140625,101.313140859375,83.53418140625,103.438590859375,82.00421140625C109.672530859375,77.51422140625,117.767430859375,80.71423140625,118.418230859375,80.98419140625C117.706330859375,82.36420140625,115.947030859375,85.21417140625,112.509730859375,86.78418140625C109.926730859375,87.96417140625,107.506390859375,87.90417140625,105.492790859375,87.86420140625C102.930050859375,87.80420140625,100.835140859375,87.30420140625,99.421630859375,86.85419140625Z" fill="#A34435" fill-opacity="1"/></g></g></g></svg>