<svg xmlns="http://www.w3.org/2000/svg" xmlns:xlink="http://www.w3.org/1999/xlink" fill="none" version="1.1" width="193.21630859375" height="114.700439453125" viewBox="0 0 193.21630859375 114.700439453125"><g><g><g><path d="M3.6542941796874997,79.50636875000001C8.0475241796875,76.74636875,13.8661841796875,74.20642875,22.8458841796875,71.45642875C30.7678841796875,69.03644875,36.5238841796875,68.56641875,56.9442841796875,67.71643875C79.1544841796875,66.78644775,90.2594841796875,66.31641575,97.7137841796875,66.43641065C109.5207841796875,66.63642275,104.8217841796875,67.05640575,133.0427841796875,68.41638875C141.5847841796875,68.82636875,150.4937841796875,69.19641875,162.5337841796875,71.14636875C181.2357841796875,74.17639875,185.9947841796875,77.54636875,186.5137841796875,80.73636875C186.8997841796875,83.10636875,183.0117841796875,86.44636875,183.1547841796875,86.50636875000001Q183.4187841796875,86.60636875,186.5137841796875,82.13626875Q164.7507841796875,114.85636875,99.8186841796875,111.96636875C88.8559841796875,111.81636875000001,75.8898841796875,110.74636875,61.6119841796875,107.76636875C35.6695841796875,102.35636875,17.117084179687502,92.64636875,3.1542971796875,84.50636875000001L2.6288294791875,80.73636875L3.6542941796874997,79.50636875000001Z" fill="#537293" fill-opacity="1"/><path d="M1.9882761796875,77.60056875000001L0.7086441796875,79.13546875L-0.0000058203124999600675,79.98536874999999L0.8459041796875,86.05436875L1.8951881796875,86.66616875Q31.8084841796875,104.10496875,61.1011841796875,110.21366875Q80.1721841796875,114.19406875,99.7459841796875,114.46556875Q162.1787841796875,117.23486875,185.8087841796875,87.35856875Q185.9587841796875,87.18246875,186.1087841796875,86.98746875Q186.2467841796875,86.80766875,186.4017841796875,86.60006874999999Q187.2297841796875,85.60926875,187.7967841796875,84.69006875Q188.2027841796875,84.11096875,188.5957841796875,83.52076875L188.4657841796875,83.43316875Q189.2117841796875,81.74956875,188.9807841796875,80.33516875Q187.7397841796875,72.69752875,162.9337841796875,68.67852875Q151.2177841796875,66.78121075,134.1517841796875,65.96659275Q133.4907841796875,65.93503175,133.1627841796875,65.91928875Q118.5147841796875,65.21338875000001,108.9597841796875,64.46310875Q103.4957841796875,64.03399875,97.7539841796875,63.93673875Q90.3126841796875,63.81694875,57.5985841796875,65.18684875L56.8402841796875,65.21859875Q40.9064841796875,65.88182775,34.9455841796875,66.51151515Q28.1136841796875,67.23320075,22.1138841796875,69.06601875Q9.3523041796875,72.97419875,2.3243681796875,77.38946875L1.9882761796875,77.60056875000001ZM184.0327841796875,81.32476875Q184.0587841796875,81.21646875,184.0457841796875,81.13756875Q183.3827841796875,77.05686875,162.1347841796875,73.61421875Q150.6977841796875,71.76205875,133.9137841796875,70.96090875Q133.2527841796875,70.92934875,132.9217841796875,70.91348875Q118.1987841796875,70.20395875,108.5687841796875,69.44775875Q103.2577841796875,69.03067874999999,97.6734841796875,68.93608875Q90.3770841796875,68.81862875,57.8077841796875,70.18246875L57.0481841796875,70.21427875Q32.065284179687495,71.25415875,23.5779841796875,73.84684875Q11.7581841796875,77.46656875,5.3159141796875,81.41736875L5.2576641796875005,81.48726875L5.4621741796875,82.95456874999999Q34.1363841796875,99.48286875,62.1226841796875,105.31906875Q80.7410841796875,109.20506875000001,99.8529841796875,109.46656875L99.8913841796875,109.46716875L99.9298841796875,109.46886875Q158.4247841796875,112.07236875000001,180.8447841796875,85.52896875Q180.9417841796875,85.29556875,181.0867841796875,85.07966875Q181.1987841796875,84.91216875,181.3597841796875,84.72826875Q181.4587841796875,84.61516875,181.7267841796875,84.33276875Q182.0657841796875,83.97456875,182.3557841796875,83.65416875Q182.4707841796875,83.50436875,182.5857841796875,83.35216875Q183.1787841796875,82.54786874999999,184.0327841796875,81.32476875Z" fill-rule="evenodd" fill="#313131" fill-opacity="1"/></g><g><path d="M3.187080367651367,73.31184765625Q5.597244967651367,42.09184765625,28.631194967651368,23.01184765625Q53.64809496765137,5.90185765625,87.74639496765137,8.71185765625Q89.19049496765136,1.8218426562499999,97.60069496765136,2.58185295625Q109.32629496765136,4.21185765625,111.59429496765136,9.10186765625C111.72629496765137,9.39184765625,111.82729496765137,9.69189765625,111.88829496765136,10.01184765625Q166.29529496765136,12.81184765625,178.70229496765137,36.14184765625Q194.44429496765136,57.22184765625,189.55329496765137,73.31184765625L186.47129496765137,79.24174765625Q157.06129496765138,63.18174765625,104.60729496765137,66.98164765625Q59.25169496765137,65.43174765625,56.30229496765137,66.98164765625Q12.126014967651367,70.25684765625,9.014114967651366,76.63184765625Q2.7903339676513674,89.38184765625,3.1769009676513673,76.63184765625L3.1769009676513673,73.31184765625L3.187080367651367,73.31184765625Z" fill="#A34435" fill-opacity="1"/><path d="M57.005294967651366,69.43644765625L57.465194967651364,69.19474765625Q59.82819496765137,67.95294765625,104.52229496765136,69.48024765625L104.65529496765137,69.48474765625L104.78829496765137,69.47514765625Q156.50929496765136,65.72824765625,185.27329496765137,81.43584765625L187.51329496765138,82.65894765625L191.87829496765136,74.25984765625L191.94529496765136,74.03894765625Q197.18629496765138,56.79834765625,180.81829496765135,34.79714765625Q167.83629496765136,10.73543765625,113.63729496765137,7.60359765625Q110.52329496765137,1.85419965625,97.94489496765136,0.10566765625000007L97.88549496765137,0.09739765625000008L97.82569496765137,0.09199765624999978Q88.54139496765137,-0.7470023437500002,85.91849496765137,6.0695376562500005Q52.217994967651364,3.8512076562499997,27.219794967651367,20.94834765625L27.124894967651368,21.01324765625L27.03639496765137,21.08654765625Q4.044805967651367,40.13154765625,0.9015649676513671,70.81184765625L0.676904967651367,70.81184765625L0.676904967651367,76.59434765625Q0.5748449676513672,80.03794765625,0.9446549676513674,81.90004765625Q1.660924967651367,85.50684765625,4.442924967651367,85.50684765625Q7.463834967651367,85.50684765625,11.260744967651368,77.72854765625Q13.742794967651367,72.64384765625,56.487094967651366,69.47484765625L57.005294967651366,69.43644765625ZM5.676904967651367,73.54004765625L5.676904967651367,76.66974765625L5.675754967651367,76.70764765625Q5.659854967651367,77.23174765625,5.655344967651367,77.70424765625Q6.175114967651368,76.74874765625,6.767494967651367,75.53514765625Q10.502004967651366,67.88464765625,55.940794967651364,64.50164765625Q62.225894967651364,63.03464765625,104.56029496765137,64.47864765624999Q155.68329496765136,60.79744765625,185.41229496765138,75.85964765625L187.22529496765137,72.36894765625Q191.57629496765136,57.55934765625,176.69929496765135,37.63774765625L176.58529496765138,37.48454765625L176.49529496765138,37.31564765625Q164.75329496765136,15.23574765625,111.76029496765136,12.50854765625L109.80029496765137,12.40768765625L109.43329496765136,10.48014765625Q109.40329496765136,10.32302765625,109.31929496765137,10.13898765625Q107.63629496765137,6.51106765625,97.31749496765137,5.06655765625Q91.17639496765136,4.53408765625,90.19329496765137,9.22467765625L89.74059496765136,11.38466765625L87.54109496765136,11.20340765625Q54.391994967651364,8.47164765625,30.137494967651367,25.01044765625Q8.003594967651367,43.40114765625,5.679664967651368,73.50424765625L5.676904967651367,73.54004765625Z" fill-rule="evenodd" fill="#313131" fill-opacity="1"/></g><g transform="matrix(0.9882724285125732,-0.15270136296749115,0.15779368579387665,0.9874721169471741,-4.1753213906122255,10.002539257664466)"><ellipse cx="95.13300323486328" cy="44.93483829498291" rx="32.18378448486328" ry="13.79567813873291" fill="#FFFFFF" fill-opacity="1"/><ellipse cx="95.13300323486328" cy="44.93483829498291" rx="32.18378448486328" ry="13.79567813873291" fill-opacity="0" stroke-opacity="1" stroke="#313131" fill="none" stroke-width="1"/></g><g><g><path d="M89.549708203125,35.2813291875Q90.174308203125,39.5721171875,85.093638203125,42.2541771875L85.560478203125,43.1385171875Q91.699408203125,39.8978071875,90.400008203125,34.4111421875L90.251708203125,33.7848191875L77.823937203125,40.293457187499996L78.287879203125,41.1793271875L89.549708203125,35.2813291875Z" fill-rule="evenodd" fill="#231F20" fill-opacity="1"/></g><g transform="matrix(0.05098526179790497,-0.9987423419952393,0.9987423419952393,0.04930408298969269,32.97102880151215,129.4254606527693)"><line x1="84.54345703125" y1="46.82147216796875" x2="94.51642894744873" y2="46.82147216796875" fill-opacity="0" stroke-opacity="1" stroke="#231F20" fill="none" stroke-width="1"/></g><g><path d="M85.5765540234375,43.0528010625Q88.9152640234375,46.3358690625,93.9453740234375,46.5956490625L93.9969540234375,45.5969790625Q89.3458140234375,45.3567690625,86.2776940234375,42.3397770625L85.5765540234375,43.0528010625Z" fill-rule="evenodd" fill="#231F20" fill-opacity="1"/></g><g><path d="M95.826579296875,32.938496484375L101.850379296875,44.044796484375L102.729379296875,43.567996484375L95.736149296875,30.674296484375L91.978495296875,39.153806484374996L90.666660296875,42.113796484375L91.580898296875,42.518996484375L92.892749296875,39.558956484375L95.826579296875,32.938496484375Z" fill-rule="evenodd" fill="#231F20" fill-opacity="1"/></g><g transform="matrix(0.9477896094322205,-0.3188962936401367,0.328637957572937,0.9444560408592224,-8.416188626288204,31.849402949679643)"><line x1="92.84423828125" y1="39.859375" x2="102.15761184692383" y2="39.859375" fill-opacity="0" stroke-opacity="1" stroke="#231F20" fill="none" stroke-width="1"/></g><g transform="matrix(0.6255244612693787,0.7802045941352844,-0.7903224229812622,0.6126911044120789,64.88107315032539,-66.3983042430882)"><line x1="101.890625" y1="33.31597900390625" x2="111.15742492675781" y2="33.31597900390625" fill-opacity="0" stroke-opacity="1" stroke="#231F20" fill="none" stroke-width="1"/></g><g><path d="M106.6172058203125,44.54990869140625L105.6612708203125,45.48990869140625L106.3624108203125,46.20290869140625L107.3183408203125,45.26290869140625Q108.3723908203125,44.22640869140625,110.5692708203125,33.60770769140625L109.5900108203125,33.40510969140625Q107.4546708203125,43.72640869140625,106.6172058203125,44.54990869140625Z" fill-rule="evenodd" fill="#231F20" fill-opacity="1"/></g></g></g></g></svg>