<svg xmlns="http://www.w3.org/2000/svg" xmlns:xlink="http://www.w3.org/1999/xlink" fill="none" version="1.1" width="198.560546875" height="112.69189453125" viewBox="0 0 198.560546875 112.69189453125"><g><g><g><path d="M5.3100577734375,79.73646875C9.7032877734375,76.97646875,16.5574677734375,73.20641875,25.5371677734375,70.45641875C33.4591677734375,68.03643875,39.2151677734375,67.56640875,59.6355677734375,66.71642875C81.8457677734375,65.78643775,92.9507677734375,65.31640675,100.4050677734375,65.43640135C112.2114677734375,65.63641375,107.5134677734375,66.05639675,135.7334677734375,67.41637875C144.2764677734375,67.82635875,153.1844677734375,68.19640875,165.2254677734375,70.14635875C183.9274677734375,73.17638875,188.6864677734375,76.54636875,189.2044677734375,79.73636875C189.5914677734375,82.10636875,187.6994677734375,84.91636875,187.8424677734375,84.97636875Q188.1064677734375,85.07636875,190.4554677734375,79.73636875Q167.4424677734375,113.85636875,102.5099677734375,110.96636875C91.5472677734375,110.81636875000001,78.5811677734375,109.74636875,64.3032677734375,106.76636875C38.3608677734375,101.35636875,18.0422677734375,91.70636875,4.0794677734375,83.56636875L5.3201177734375005,79.73636875L5.3100577734375,79.73646875Z" fill="#537293" fill-opacity="1"/><path d="M6.5809277734375,80.71156875L5.8799377734375,82.87566875Q33.626667773437504,98.83686875000001,64.60966777343751,105.29796875Q83.3223677734375,109.20356875,102.5305677734375,109.46646874999999L102.5536677734375,109.46686875L102.5766677734375,109.46786875000001Q164.5764677734375,112.22736875,187.6964677734375,81.04126875Q187.7994677734375,80.43466875,187.7244677734375,79.97706875Q186.9454677734375,75.18493875,164.9854677734375,71.62706875Q153.4924677734375,69.76588875,136.6524677734375,68.96202875Q135.9914677734375,68.93048875,135.6614677734375,68.91463875Q120.9534677734375,68.20583875,111.3384677734375,67.45081875Q105.9964677734375,67.03133875,100.3808677734375,66.93620875Q93.0555677734375,66.81828875,60.4571677734375,68.18333875L59.6978677734375,68.21512875Q34.5869677734375,69.26034875,25.9764677734375,71.89066875Q15.7842677734375,75.01196875,6.5809277734375,80.71156875ZM189.9974677734375,77.73396875Q186.4054677734375,72.05831875,165.4654677734375,68.66565875Q153.8054677734375,66.77737875,136.7954677734375,65.96544575Q136.1334677734375,65.93382475,135.8064677734375,65.91812075Q121.1434677734375,65.21149475,111.5734677734375,64.46002575Q106.1394677734375,64.03332875,100.4291677734375,63.93659875Q93.0169677734375,63.81727875,60.3316677734375,65.18596675L59.5731677734375,65.21772875Q43.6711677734375,65.87962975,37.7418677734375,66.50596875Q31.0053677734375,67.21758875,25.0979677734375,69.02216875Q14.2631677734375,72.34029875,4.5121037734375005,78.46626875L-0.00004222656249996959,81.30106875L3.2493107734375,81.26156875L2.2800977734375003,84.25366875L3.3240017734375,84.86216875Q31.9528677734375,101.55226875,63.9967677734375,108.23466875Q82.9810677734375,112.19696875,102.4663677734375,112.46586875Q162.4794677734375,115.13116875,187.2774677734375,86.36606875L187.2854677734375,86.36956875L187.3114677734375,86.37946875Q188.1454677734375,86.69486875,189.3424677734375,85.02876875Q189.3284677734375,85.15366875000001,189.2964677734375,85.28746875Q189.2744677734375,85.37436875,189.2544677734375,85.42166875Q189.2774677734375,85.36956875,189.3964677734375,85.12556875Q189.5384677734375,84.83576875,189.6654677734375,84.55396875Q190.6364677734375,83.05006875000001,191.8284677734375,80.34036875L198.5604677734375,65.03774175L189.9974677734375,77.73396875Z" fill-rule="evenodd" fill="#313131" fill-opacity="1"/></g><g><path d="M3.8783664546875,73.31184765625Q6.2885310546875,42.09184765625,29.3224810546875,23.01184765625Q54.3393810546875,5.90185765625,88.4376810546875,8.71185765625Q89.8817810546875,1.8218426562499999,98.2919810546875,2.58185295625Q110.0175810546875,4.21185765625,112.2855810546875,9.10186765625C112.4175810546875,9.39184765625,112.5185810546875,9.69189765625,112.5795810546875,10.01184765625Q166.9865810546875,12.81184765625,179.3935810546875,36.14184765625Q195.1355810546875,57.22184765625,190.2445810546875,73.31184765625L187.1625810546875,79.24174765625Q157.7525810546875,63.18174765625,105.2985810546875,66.98164765625Q59.9429810546875,65.43174765625,56.9935810546875,66.98164765625Q12.8173010546875,70.25684765625,9.7054010546875,76.63184765625Q3.4816200546875002,89.38184765625,3.8681870546875,76.63184765625L3.8681870546875,73.31184765625L3.8783664546875,73.31184765625Z" fill="#A34435" fill-opacity="1"/><path d="M57.6965810546875,69.43644765625L58.1564810546875,69.19474765625Q60.5194810546875,67.95294765625,105.2135810546875,69.48024765625L105.3465810546875,69.48474765625L105.4795810546875,69.47514765625Q157.2005810546875,65.72824765625,185.9645810546875,81.43584765625L188.2045810546875,82.65894765625L192.5695810546875,74.25984765625L192.6365810546875,74.03894765625Q197.8775810546875,56.79834765625,181.5095810546875,34.79714765625Q168.5275810546875,10.73543765625,114.3285810546875,7.60359765625Q111.2145810546875,1.85419965625,98.6361810546875,0.10566765625000007L98.5767810546875,0.09739765625000008L98.5169810546875,0.09199765624999978Q89.2326810546875,-0.7470023437500002,86.6097810546875,6.0695376562500005Q52.9092810546875,3.8512076562499997,27.9110810546875,20.94834765625L27.8161810546875,21.01324765625L27.7276810546875,21.08654765625Q4.7360920546875,40.13154765625,1.5928510546874999,70.81184765625L1.3681910546874998,70.81184765625L1.3681910546874998,76.59434765625Q1.2661310546875,80.03794765625,1.6359410546875002,81.90004765625Q2.3522110546875,85.50684765625,5.1342110546874995,85.50684765625Q8.1551210546875,85.50684765625,11.9520310546875,77.72854765625Q14.4340810546875,72.64384765625,57.1783810546875,69.47484765625L57.6965810546875,69.43644765625ZM6.3681910546875,73.54004765625L6.3681910546875,76.66974765625L6.367041054687499,76.70764765625Q6.3511410546875,77.23174765625,6.3466310546875,77.70424765625Q6.8664010546875005,76.74874765625,7.4587810546875,75.53514765625Q11.1932910546875,67.88464765625,56.6320810546875,64.50164765625Q62.9171810546875,63.03464765625,105.2515810546875,64.47864765624999Q156.3745810546875,60.79744765625,186.1035810546875,75.85964765625L187.9165810546875,72.36894765625Q192.2675810546875,57.55934765625,177.3905810546875,37.63774765625L177.2765810546875,37.48454765625L177.1865810546875,37.31564765625Q165.4445810546875,15.23574765625,112.4515810546875,12.50854765625L110.4915810546875,12.40768765625L110.1245810546875,10.48014765625Q110.0945810546875,10.32302765625,110.0105810546875,10.13898765625Q108.3275810546875,6.51106765625,98.0087810546875,5.06655765625Q91.8676810546875,4.53408765625,90.8845810546875,9.22467765625L90.4318810546875,11.38466765625L88.2323810546875,11.20340765625Q55.0832810546875,8.47164765625,30.8287810546875,25.01044765625Q8.6948810546875,43.40114765625,6.370951054687501,73.50424765625L6.3681910546875,73.54004765625Z" fill-rule="evenodd" fill="#313131" fill-opacity="1"/></g><g transform="matrix(0.9882724285125732,-0.15270136296749115,0.15779368579387665,0.9874721169471741,-3.985965477208083,10.400974136982768)"><ellipse cx="97.82428741455078" cy="43.93483829498291" rx="32.18378448486328" ry="13.79567813873291" fill="#FFFFFF" fill-opacity="1"/><ellipse cx="97.82428741455078" cy="43.93483829498291" rx="32.18378448486328" ry="13.79567813873291" fill-opacity="0" stroke-opacity="1" stroke="#313131" fill="none" stroke-width="1"/></g><g><g><path d="M92.2409923828125,34.2813291875Q92.8655923828125,38.5721171875,87.7849223828125,41.2541771875L88.2517623828125,42.1385171875Q94.3906923828125,38.8978071875,93.0912923828125,33.4111421875L92.9429923828125,32.7848191875L80.5152213828125,39.293457187499996L80.9791633828125,40.1793271875L92.2409923828125,34.2813291875Z" fill-rule="evenodd" fill="#231F20" fill-opacity="1"/></g><g transform="matrix(0.05098526179790497,-0.9987423419952393,0.9987423419952393,0.04930408298969269,36.52383949472096,131.1626642003548)"><line x1="87.2347412109375" y1="45.82147216796875" x2="97.20771312713623" y2="45.82147216796875" fill-opacity="0" stroke-opacity="1" stroke="#231F20" fill="none" stroke-width="1"/></g><g><path d="M88.267838203125,42.0528010625Q91.606548203125,45.3358690625,96.636658203125,45.5956490625L96.688238203125,44.5969790625Q92.037098203125,44.3567690625,88.968978203125,41.3397770625L88.267838203125,42.0528010625Z" fill-rule="evenodd" fill="#231F20" fill-opacity="1"/></g><g><path d="M98.5178634765625,31.938496484375L104.5416634765625,43.044796484375L105.4206634765625,42.567996484375L98.4274334765625,29.674296484375L94.6697794765625,38.153806484374996L93.3579444765625,41.113796484375L94.2721824765625,41.518996484375L95.5840334765625,38.558956484375L98.5178634765625,31.938496484375Z" fill-rule="evenodd" fill="#231F20" fill-opacity="1"/></g><g transform="matrix(0.9477896094322205,-0.3188962936401367,0.328637957572937,0.9444560408592224,-7.947037670564896,32.652099540573545)"><line x1="95.5355224609375" y1="38.859375" x2="104.84889602661133" y2="38.859375" fill-opacity="0" stroke-opacity="1" stroke="#231F20" fill="none" stroke-width="1"/></g><g transform="matrix(0.6255244612693787,0.7802045941352844,-0.7903224229812622,0.6126911044120789,65.0985708204098,-68.88536541979192)"><line x1="104.5819091796875" y1="32.31597900390625" x2="113.84870910644531" y2="32.31597900390625" fill-opacity="0" stroke-opacity="1" stroke="#231F20" fill="none" stroke-width="1"/></g><g><path d="M109.30849,43.54990869140625L108.352555,44.48990869140625L109.053695,45.20290869140625L110.009625,44.26290869140625Q111.063675,43.22640869140625,113.260555,32.60770769140625L112.281295,32.40510969140625Q110.145955,42.72640869140625,109.30849,43.54990869140625Z" fill-rule="evenodd" fill="#231F20" fill-opacity="1"/></g></g></g></g></svg>