<svg xmlns="http://www.w3.org/2000/svg" xmlns:xlink="http://www.w3.org/1999/xlink" fill="none" version="1.1" width="167" height="46" viewBox="0 0 167 46"><g><g><g><g><path d="M0 36C0 36 0 36 0 36L167 36C167 36 167 36 167 36L167 41C167 43.76142374915397 164.76142374915398 46 162 46L5 46C2.2385762508460334 46 0 43.76142374915397 0 41Z" fill="#000000" fill-opacity="1"/></g><g><g><rect x="0" y="0" width="167" height="43" rx="7" fill="#FBCF3C" fill-opacity="1"/><rect x="1" y="1" width="165" height="41" rx="6" fill-opacity="0" stroke-opacity="1" stroke="#000000" fill="none" stroke-width="2"/></g><g><path d="M7.9226600000000005,28.2093Q7.24859,28.2093,6.63242,28.0476Q6.01625,27.8861,5.48375,27.6461L5.48375,25.195Q6.0118,25.564799999999998,6.42453,25.8203Q6.8375,26.075499999999998,7.23945,26.075499999999998Q7.800549999999999,26.075499999999998,8.15492,25.7835Q8.5093,25.491300000000003,8.5093,24.8357L8.5093,17.995L11.23391,17.995L11.23391,24.9513Q11.23391,25.8857,10.94586,26.5124Q10.65805,27.1389,10.18695,27.5148Q9.716090000000001,27.8905,9.1243,28.0499Q8.5325,28.2093,7.9226600000000005,28.2093ZM17.8107,28.2137Q16.325699999999998,28.2137,15.207,27.6555Q14.08859,27.097,13.46492,25.9443Q12.841249999999999,24.7914,12.841249999999999,23.005000000000003Q12.841249999999999,20.42945,14.15867,19.10664Q15.4761,17.78359,17.8107,17.78359Q19.298000000000002,17.78359,20.4165,18.34188Q21.5352,18.90016,22.1588,20.04672Q22.7825,21.19305,22.7825,22.99234Q22.7825,25.567700000000002,21.4714,26.890700000000002Q20.1605,28.2137,17.8107,28.2137ZM17.8107,26.020699999999998Q18.4857,26.020699999999998,18.9678,25.7324Q19.450200000000002,25.4439,19.7134,24.7776Q19.9768,24.1112,19.9768,22.97945Q19.9768,21.847659999999998,19.7134,21.18883Q19.450200000000002,20.53,18.9678,20.2532Q18.4857,19.97641,17.8107,19.97641Q17.137999999999998,19.97641,16.6557,20.26609Q16.1736,20.55555,15.9102,21.214370000000002Q15.647,21.8732,15.647,23.017699999999998Q15.647,24.1495,15.9102,24.8031Q16.1736,25.4568,16.6557,25.738799999999998Q17.137999999999998,26.020699999999998,17.8107,26.020699999999998ZM24.38,28L24.38,17.995L27.1048,17.995L27.1048,28L24.38,28ZM29.15,28L29.15,17.995L31.4,17.995L36.313900000000004,24.517899999999997L35.4957,26.2638L35.4957,17.995L37.9782,17.995L37.9782,28L36.0111,28L31.0482,21.64445L31.6325,20.414450000000002L31.6325,28L29.15,28ZM46.1239,28L46.1239,20.06055L43.4637,20.06055L43.4637,17.995L51.545,17.995L51.545,20.06055L48.8361,20.06055L48.8361,28L46.1239,28ZM52.925,28L52.925,17.995L55.637,17.995L55.637,21.9468L58.9602,21.9468L58.9602,17.995L61.6723,17.995L61.6723,28L58.9602,28L58.9602,24.1398L55.637,24.1398L55.637,28L52.925,28ZM63.71,28L63.71,17.995L70.688,17.995L70.688,20.06055L66.4348,20.06055L66.4348,21.955L70.0963,21.955L70.0963,24.025L66.422,24.025L66.422,25.9345L70.688,25.9345L70.688,28L63.71,28ZM79.442,24.838L79.442,28L76.73,28L76.73,17.995L81.4325,17.995Q83.2018,17.995,84.2281,18.79Q85.2545,19.585,85.2545,21.28891Q85.2545,22.99305,84.2281,23.9155Q83.2018,24.838,81.4325,24.838L79.442,24.838ZM79.442,22.77016L81.0936,22.77016Q81.3852,22.77016,81.6134,22.68578Q81.8419,22.60141,81.995,22.427970000000002Q82.148,22.2543,82.2305,22.01547Q82.313,21.77641,82.313,21.480159999999998Q82.313,21.13305,82.2305,20.875Q82.148,20.61695,81.995,20.43062Q81.8419,20.2443,81.6134,20.15359Q81.3852,20.06266,81.0936,20.06266L79.442,20.06266L79.442,22.77016ZM91.3857,28.2137Q89.9007,28.2137,88.782,27.6555Q87.6636,27.097,87.0399,25.9443Q86.4163,24.7914,86.4163,23.005000000000003Q86.4163,20.42945,87.7337,19.10664Q89.0511,17.78359,91.3857,17.78359Q92.873,17.78359,93.9915,18.34188Q95.1102,18.90016,95.7338,20.04672Q96.3575,21.19305,96.3575,22.99234Q96.3575,25.567700000000002,95.0464,26.890700000000002Q93.7355,28.2137,91.3857,28.2137ZM91.3857,26.020699999999998Q92.0607,26.020699999999998,92.5428,25.7324Q93.0252,25.4439,93.2884,24.7776Q93.5518,24.1112,93.5518,22.97945Q93.5518,21.847659999999998,93.2884,21.18883Q93.0252,20.53,92.5428,20.2532Q92.0607,19.97641,91.3857,19.97641Q90.713,19.97641,90.2307,20.26609Q89.7486,20.55555,89.4852,21.214370000000002Q89.222,21.8732,89.222,23.017699999999998Q89.222,24.1495,89.4852,24.8031Q89.7486,25.4568,90.2307,25.738799999999998Q90.713,26.020699999999998,91.3857,26.020699999999998ZM97.955,28L97.955,17.995L102.9957,17.995Q104.7336,17.995,105.737,18.79375Q106.741,19.5925,106.741,21.223750000000003Q106.741,21.838749999999997,106.496,22.46922Q106.251,23.0995,105.746,23.572400000000002Q105.241,24.0452,104.4732,24.211100000000002L104.1837,23.2863L107.281,28L103.7998,28L101.3907,23.6905L102.5811,24.6789L100.667,24.6789L100.667,28L97.955,28ZM100.667,22.7282L102.6027,22.7282Q103.1211,22.7282,103.4605,22.41695Q103.7998,22.1057,103.7998,21.34984Q103.7998,20.69195,103.4818,20.37625Q103.1637,20.06055,102.6589,20.06055L100.667,20.06055L100.667,22.7282ZM110.624,28L110.624,20.06055L107.964,20.06055L107.964,17.995L116.045,17.995L116.045,20.06055L113.336,20.06055L113.336,28L110.624,28ZM117.425,28L117.425,17.995L124.376,17.995L124.376,20.06055L120.137,20.06055L120.137,22.21L123.786,22.21L123.786,24.2927L120.137,24.2927L120.137,28L117.425,28ZM130.596,28.2137Q129.111,28.2137,127.992,27.6555Q126.874,27.097,126.25,25.9443Q125.626,24.7914,125.626,23.005000000000003Q125.626,20.42945,126.944,19.10664Q128.261,17.78359,130.596,17.78359Q132.083,17.78359,133.201,18.34188Q134.32,18.90016,134.944,20.04672Q135.568,21.19305,135.568,22.99234Q135.568,25.567700000000002,134.256,26.890700000000002Q132.946,28.2137,130.596,28.2137ZM130.596,26.020699999999998Q131.27100000000002,26.020699999999998,131.753,25.7324Q132.235,25.4439,132.498,24.7776Q132.762,24.1112,132.762,22.97945Q132.762,21.847659999999998,132.498,21.18883Q132.235,20.53,131.753,20.2532Q131.27100000000002,19.97641,130.596,19.97641Q129.923,19.97641,129.441,20.26609Q128.959,20.55555,128.695,21.214370000000002Q128.43200000000002,21.8732,128.43200000000002,23.017699999999998Q128.43200000000002,24.1495,128.695,24.8031Q128.959,25.4568,129.441,25.738799999999998Q129.923,26.020699999999998,130.596,26.020699999999998ZM137.165,28L137.165,17.995L139.89,17.995L139.89,25.917299999999997L144.061,25.917299999999997L144.061,28L137.165,28ZM145.58,28L145.58,17.995L148.305,17.995L148.305,28L145.58,28ZM154.881,28.2137Q153.396,28.2137,152.277,27.6555Q151.159,27.097,150.535,25.9443Q149.911,24.7914,149.911,23.005000000000003Q149.911,20.42945,151.229,19.10664Q152.546,17.78359,154.881,17.78359Q156.368,17.78359,157.486,18.34188Q158.605,18.90016,159.229,20.04672Q159.853,21.19305,159.853,22.99234Q159.853,25.567700000000002,158.541,26.890700000000002Q157.231,28.2137,154.881,28.2137ZM154.881,26.020699999999998Q155.556,26.020699999999998,156.038,25.7324Q156.52,25.4439,156.783,24.7776Q157.047,24.1112,157.047,22.97945Q157.047,21.847659999999998,156.783,21.18883Q156.52,20.53,156.038,20.2532Q155.556,19.97641,154.881,19.97641Q154.208,19.97641,153.726,20.26609Q153.244,20.55555,152.98,21.214370000000002Q152.717,21.8732,152.717,23.017699999999998Q152.717,24.1495,152.98,24.8031Q153.244,25.4568,153.726,25.738799999999998Q154.208,26.020699999999998,154.881,26.020699999999998Z" fill="#000000" fill-opacity="1"/></g></g></g></g></g></svg>