<svg xmlns="http://www.w3.org/2000/svg" xmlns:xlink="http://www.w3.org/1999/xlink" fill="none" version="1.1" width="333.3248291015625" height="179.6533203125" viewBox="0 0 333.3248291015625 179.6533203125"><g><g><path d="M50.22241171875,81.378415390625C47.38511171875,83.848385390625,44.40541171875,86.658445390625,41.37491171875,89.818425390625C38.06981171875,93.268475390625,35.18171171875,96.648475390625,32.69021171875,99.828475390625C32.56811171875,100.158475390625,32.13091171875,101.468475390625,32.72071171875,102.978475390625C33.33091171875,104.548475390625,34.61221171875,105.238475390625,34.91731171875,105.388475390625Q18.77831171875,117.908475390625,19.61221171875,122.628375390625C19.61221171875,123.308375390625,19.68341171875,124.818375390625,20.66981171875,126.298375390625C22.41901171875,128.928375390625,25.52071171875,129.218375390625,25.93761171875,129.248375390625C20.57831171875,135.158375390625,15.95121171875,139.69837539062502,12.69701171875,142.788375390625C4.87662171875,150.19837539062502,0.34103271874999996,153.518375390625,0.50374796875,158.658375390625C0.51391961875,159.04837539062498,0.68679871875,162.63837539062501,3.31053171875,165.148375390625C5.62917171875,167.368375390625,8.70036171875,167.618375390625,10.43934171875,167.73837539062498C21.40201171875,168.468375390625,41.35461171875,167.60837539062499,42.75801171875,167.538375390625C42.62581171875,167.828375390625,42.49361171875,168.128375390625,42.36141171875,168.418375390625L42.15801171875,176.378375390625Q41.12071171875,178.838475390625,47.74101171875,179.04837539062498Q54.36141171875,179.25837539062502,61.60211171875,179.04837539062498Q64.08341171875,178.228375390625,63.66651171875,168.588375390625C75.96141171875,168.10837539062499,88.25631171875,167.618375390625,100.54151171875,167.13837539062501C102.07651171875,165.898375390625,105.40251171875,162.868375390625,105.29051171875,158.938375390625C105.20851171875,156.318375390625,103.63251171875,154.398375390625,102.76851171875,153.408275390625Q95.94441171875,145.60837539062499,81.46311171875,130.268275390625Q89.52751171875,124.268275390625,84.14781171875,120.168375390625L70.90711171875,104.988375390625Q75.04611171875,101.708275390625,73.38851171875,99.238375390625C67.10381171875,92.868375390625,60.80881171875,86.498355390625,54.52411171875,80.128357390625C54.16821171875,79.998352390625,53.48681171875,79.808349590625,52.65291171875,79.938354490625C51.23941171875,80.158325390625,50.42581171875,81.138365390625,50.22241171875,81.388365390625L50.22241171875,81.378415390625Z" fill="#617C36" fill-opacity="1"/><path d="M49.89271171875,81.002455390625Q50.99601171875,79.690177390625,52.57591171875,79.444322390625Q53.65021171875,79.276844390625,54.69561171875,79.658703390625L54.80111171875,79.697213390625L73.77741171875,98.920575390625L73.80371171875,98.959675390625Q75.62941171875,101.680175390625,71.62361171875,105.049075390625L84.49171171875,119.801875390625Q87.40161171875,122.04317539062501,86.64971171875,124.871775390625Q85.97301171875,127.41757539062499,82.20891171875,130.33007539062498Q96.40551171875,145.375875390625,103.14451171875,153.07947539062502Q105.69951171875,156.005375390625,105.78951171875,158.924175390625Q105.91851171875,163.438675390625,100.85551171875,167.527375390625L100.72651171875,167.63147539062498L65.06221171875,169.034275390625L64.18591171874999,169.068475390625Q64.52731171875,178.608275390625,61.75901171875,179.523175390625L61.68961171875,179.546075390625L61.61661171875,179.548175390625Q54.36041171875,179.758675390625,47.72521171875,179.548175390625Q44.31001171875,179.439875390625,42.81941171875,178.726975390625Q41.04351171875,177.877675390625,41.66051171875,176.27537539062502L41.86411171875,168.304875390625L41.96641171875,168.077875390625Q22.31351171875,169.029975390625,10.40491171875,168.237175390625Q5.45684171875,167.895575390625,2.96489171875,165.509675390625Q0.11105871875000001,162.77957539062498,0.003996718750000017,158.674175390625Q-0.09690628125,155.48677539062498,2.36971171875,152.290475390625Q3.93574171875,150.261275390625,9.18540171875,145.38767539062502Q11.22761171875,143.491875390625,12.35271171875,142.425775390625Q18.91001171875,136.199475390625,24.91891171875,129.624675390625Q21.92101171875,129.082475390625,20.25381171875,126.57567539062501Q19.12301171875,124.879175390625,19.11231171875,122.67077539062501Q18.32071171875,117.732575390625,34.02881171875,105.446675390625Q32.81881171875,104.611075390625,32.25501171875,103.160375390625Q31.57181171875,101.411375390625,32.22121171875,99.654975390625L32.24831171875,99.58167539062501L32.29661171875,99.520075390625Q36.37471171875,94.315075390625,41.01401171875,89.472335390625Q45.31491171875,84.987735390625,49.89271171875,81.002455390625ZM49.72571171875,82.479765390625Q45.61751171875,86.116995390625,41.73581171875,90.164475390625Q37.15941171875,94.941575390625,33.13331171875,100.073575390625Q32.65551171875,101.437375390625,33.18641171875,102.79657539062501Q33.75521171875,104.260075390625,35.13791171875,104.939675390625L35.85631171875,105.292875390625L35.22381171875,105.783475390625Q19.32321171875,118.118675390625,20.10461171875,122.54147539062501L20.11221171875,122.58457539062499L20.11221171875,122.628375390625Q20.11221171875,124.56027539062501,21.08591171875,126.021075390625Q22.74601171875,128.517275390625,25.97361171875,128.749675390625L26.99791171875,128.823475390625L26.30801171875,129.584275390625Q19.98031171875,136.562175390625,13.04121171875,143.150975390625Q11.91151171875,144.22147539062502,9.86576171875,146.120575390625Q4.67679171875,150.937775390625,3.16138171875,152.901475390625Q0.91394471875,155.813675390625,1.00349571875,158.64257539062498Q1.09997871875,162.341675390625,3.65617171875,164.787075390625Q5.88691171875,166.922875390625,10.47378171875,167.23957539062502Q22.56811171875,168.044875390625,42.73311171875,167.038975390625L43.54981171875,166.998275390625L43.01551171875,168.18387539062502L42.85861171875,168.531975390625L42.65541171875,176.485675390625L42.61871171875,176.572675390625Q42.28541171875,177.363175390625,43.25081171875,177.82487539062498Q44.55181171875,178.446975390625,47.75691171875,178.548675390625Q54.32541171875,178.756975390625,61.50771171875,178.55087539062498Q63.56161171875,177.734575390625,63.16691171875,168.60997539062498L63.14521171875,168.10837539062499L65.02321171875,168.034975390625L100.35481171875,166.645275390625Q104.90351171875,162.91657539062498,104.79051171875,158.952575390625Q104.71051171875,156.393775390625,102.39151171875,153.737175390625Q95.57521171875,145.945475390625,81.09951171875,130.611575390625L80.71361171875,130.202775390625L81.16461171875,129.867175390625Q85.05691171875,126.97127539062501,85.68321171875,124.614875390625Q86.26851171875,122.413175390625,83.84481171875,120.565975390625L83.80441171875,120.535275390625L70.18581171875,104.921975390625L70.59661171875,104.596475390625Q74.33951171875,101.630275390625,72.99811171875,99.554575390625L63.59341171875,90.027375390625L54.24981171875,80.562229390625Q53.49701171875,80.312804390625,52.72991171875,80.432386390625Q51.48741171875,80.625743390625,50.61031171875,81.703905390625L49.72671171875,82.789955390625L49.72571171875,82.479765390625Z" fill-rule="evenodd" fill="#000000" fill-opacity="1"/></g><g><path d="M286.6326203125,1.73840484375C284.2529203125,3.78839484375,281.7513203125,6.10839484375,279.2089203125,8.72839484375C276.4326203125,11.58836484375,274.0123203125,14.38836484375,271.9173203125,17.01836484375C271.8156203125,17.28836484375,271.4496203125,18.37836484375,271.9377203125,19.62836484375C272.4461203125,20.92836484375,273.5241203125,21.49836484375,273.7783203125,21.62836484375Q260.2428203125,31.99836484375,260.9343203125,35.89836484375C260.9343203125,36.45836484375,260.9953203125,37.70836484375,261.8190203125,38.93836484375C263.28342031249997,41.11836484375,265.8868203125,41.35836484375,266.2326203125,41.37836484375C261.7376203125,46.26836484375,257.8631203125,50.03836484375,255.1275203125,52.59836484375C248.5681603125,58.73836484375,244.7647813125,61.48836484375,244.9071686325,65.74836484375C244.9173480125,66.07836484375,245.0597043125,69.04836484375,247.2665003125,71.12836484375C249.2088703125,72.95836484375,251.7817503125,73.17836484375,253.2461603125,73.26836484375C262.4394203125,73.86836484375,279.1783203125,73.15836484375,280.3580203125,73.10836484375C280.2462203125,73.34836484375,280.1343203125,73.59836484375,280.0224203125,73.83836484375L279.8495203125,80.42836484375Q278.9851203125,82.46836484375,284.5377203125,82.63846484375Q290.0902203125,82.80836484375,296.1614203125,82.63846484375Q298.2461203125,81.95846484375,297.9004203125,73.96846484375C308.2122203125,73.56846484375,318.52412031250003,73.16846484375,328.8360203125,72.76846484375C330.1173203125,71.74836484375,332.9139203125,69.22846484375,332.8224203125,65.97846484375C332.7512203125,63.80846484375,331.4292203125,62.21846484375,330.7072203125,61.39846484375Q324.9817203125,54.93846484375,312.8292203125,42.22846484375Q319.6021203125,37.25846484375,315.0869203125,33.86846484375L303.9818203125,21.28846484375Q307.4496203125,18.56846484375,306.0665203125,16.52846484375C300.7885203125,11.24836484375,295.5106203125,5.97845484375,290.2428203125,0.69842484375C289.94782031249997,0.58843994375,289.3783203125,0.42840574375,288.6665203125,0.5384521437500001C287.4767203125,0.71844484375,286.7953203125,1.52844484375,286.6326203125,1.73840484375Z" fill="#617C36" fill-opacity="1"/><path d="M288.5917203125,0.04407484374999998L288.5901203125,0.04432184374999998Q287.1682203125,0.25997784375,286.2693203125,1.3914058437499999Q282.3667203125,4.75620484375,278.8501203125,8.380194843750001Q274.9980203125,12.34846484375,271.5263203125,16.70686484375L271.4772203125,16.76846484375L271.4494203125,16.84216484375Q270.8914203125,18.32366484375,271.4719203125,19.81026484375Q271.9208203125,20.95796484375,272.8993203125,21.67406484375Q259.7852203125,31.81916484375,260.4344203125,35.94056484375Q260.4452203125,37.78556484375,261.4036203125,39.21656484375Q262.7931203125,41.28506484375,265.2050203125,41.75426484375Q260.0921203125,47.26766484375,254.7858503125,52.23326484375Q253.8437603125,53.11506484375,252.1318903125,54.68516484375Q247.7226803125,58.72906484375,246.4056003125,60.41616484375Q244.3180403125,63.09016484375,244.4074483125,65.76506484375Q244.5140493125,69.22106484375,246.9235503125,71.49216484375Q249.0678403125,73.51246484375,253.2154803125,73.76746484375Q262.21842031250003,74.35496484375,279.5624203125,73.64206484375L279.5253203125,73.72276484375L279.3521203125,80.32546484375Q278.8205203125,81.71976484375,280.3762203125,82.45316484375Q281.6422203125,83.04996484375,284.5224203125,83.13816484375Q290.0898203125,83.30856484375,296.1754203125,83.13826484375L296.2477203125,83.13616484375L296.3164203125,83.11376484375Q298.6877203125,82.34026484375,298.4193203125,74.44866484375L312.5397203125,73.90096484375L329.0191203125,73.26166484375L329.1474203125,73.15966484375Q333.4289203125,69.75136484375,333.3222203125,65.96436484375Q333.2420203125,63.52076484375,331.0824203125,61.06806484375Q325.4408203125,54.70256484375,313.5797203125,42.28996484375Q316.6931203125,39.89326484375,317.2628203125,37.78386484375Q317.9101203125,35.38676484375,315.4284203125,33.49986484375L304.7013203125,21.34796484375Q308.03342031249997,18.53866484375,306.4803203125,16.24786484375L306.4537203125,16.20856484375L290.5194203125,0.26797084375L290.4175203125,0.22994284375000001Q289.5308203125,-0.10070915624999999,288.5917203125,0.04407484374999998ZM287.0278203125,2.04468484375Q287.6886203125,1.19207584375,288.7413203125,1.03282784375L288.7429203125,1.03258284375Q289.3729203125,0.9351908437500001,289.9694203125,1.1322398437499999L305.6774203125,16.84646484375Q306.7389203125,18.49036484375,303.6732203125,20.89506484375L303.2562203125,21.22206484375L314.7458203125,34.23766484375L314.7867203125,34.26836484375Q316.7735203125,35.75996484375,316.2974203125,37.52316484375Q315.7786203125,39.44396484375,312.53342031249997,41.82536484375L312.0742203125,42.16226484375L312.4678203125,42.57396484375Q324.6127203125,55.27596484375,330.3319203125,61.72886484375Q332.2544203125,63.91216484375,332.3226203125,65.99256484375Q332.4137203125,69.22606484375,328.6516203125,72.27516484375L312.5009203125,72.90166484375L297.3791203125,73.48826484375L297.4008203125,73.99006484375Q297.7243203125,81.46546484375,296.0670203125,82.14086484375Q290.0543203125,82.30706484375,284.5530203125,82.13866484375Q281.8806203125,82.05686484375,280.8026203125,81.54866484375Q280.0652203125,81.20106484375,280.3099203125,80.62346484375L280.3469203125,80.53626484375L280.5196203125,73.95406484375L280.6445203125,73.68226484375L281.1539203125,72.57426484375L280.3368203125,72.60886484375L280.3345203125,72.60896484375Q262.44012031249997,73.36726484375,253.27684031249998,72.76926484375Q249.4902703125,72.53656484375,247.6094503125,70.76446484375Q245.5008263125,68.77706484375,245.4068903125,65.73166484375Q245.3296053125,63.41946484375,247.1938403125,61.03146484375Q248.4598203125,59.40986484375,252.8078103125,55.42216484375Q254.5234303125,53.84866484375,255.4691203125,52.96336484375Q261.1455203125,47.65146484375,266.6007203125,41.71676484375L267.3145203125,40.94016484375L266.2615203125,40.87916484375Q263.6225203125,40.72636484375,262.2345203125,38.66016484375Q261.4343203125,37.46526484375,261.4343203125,35.89836484375L261.4343203125,35.85436484375L261.4266203125,35.81106484375Q260.7882203125,32.21036484375,274.0824203125,22.02526484375L274.7110203125,21.54366484375L274.0060203125,21.18316484375Q272.8519203125,20.59306484375,272.4034203125,19.44646484375Q271.9765203125,18.35326484375,272.3591203125,17.26626484375Q275.7778203125,12.98086484375,279.5677203125,9.07659484375Q283.0698203125,5.46754484375,286.9589203125,2.11722484375L286.9970203125,2.0844148437500003L287.0278203125,2.04468484375Z" fill-rule="evenodd" fill="#000000" fill-opacity="1"/></g></g></svg>