<svg xmlns="http://www.w3.org/2000/svg" xmlns:xlink="http://www.w3.org/1999/xlink" fill="none" version="1.1" width="428.234619140625" height="199.69384765625" viewBox="0 0 428.234619140625 199.69384765625"><g><g><g><path d="M316.7230232421875,4.9740572656249995C311.0891232421875,9.844057265625,305.1602232421875,15.374097265625,299.1399232421875,21.604097265625C292.5602232421875,28.414097265625,286.8348232421875,35.064097265625,281.8619232421875,41.333997265625C281.6179232421875,41.984097265625,280.7535232421875,44.563997265625,281.9128232421875,47.534097265625C283.1229232421875,50.633997265625,285.6755232421875,51.984097265625,286.2856232421875,52.284097265625Q254.2009232421875,76.953997265625,255.8484232421875,86.263997265625C255.8382232421875,87.594097265625,256.00092324218747,90.573997265625,257.9534232421875,93.493997265625C261.4314232421875,98.683997265625,267.6043232421875,99.243997265625,268.4280232421875,99.303997265625C257.7704232421875,110.944197265625,248.5772232421875,119.914197265625,242.0992232421875,126.004197265625C226.5500832421875,140.614197265625,217.5297442421875,147.154197265625,217.8653543721875,157.294197265625C217.8958616421875,158.074197265625,218.2314412421875,165.144197265625,223.4585732421875,170.094197265625C228.0755232421875,174.464197265625,234.1670232421875,174.974197265625,237.6246232421875,175.194197265625C259.4179232421875,176.624197265625,299.0891232421875,174.934197265625,301.8857232421875,174.804197265625C301.6213232421875,175.384197265625,301.3569232421875,175.964197265625,301.1026232421875,176.544197265625L300.6959232421875,192.234197265625Q298.6416232421875,197.084197265625,311.8010232421875,197.494197265625Q324.9603232421875,197.894197265625,339.3603232421875,197.494197265625Q344.29232324218754,195.874197265625,343.46832324218747,176.864197265625C367.9063232421875,175.904197265625,392.3533232421875,174.954197265625,416.79032324218747,173.994197265625C419.8313232421875,171.564197265625,426.4623232421875,165.564197265625,426.2283232421875,157.824197265625C426.0753232421875,152.654197265625,422.9333232421875,148.874197265625,421.2143232421875,146.924197265625Q407.63832324218754,131.554197265625,378.84832324218746,101.303997265625Q394.89632324218746,89.483997265625,384.1973232421875,81.393997265625L357.8683232421875,51.463997265625Q366.0963232421875,44.993997265625,362.8013232421875,40.133997265625C350.29232324218754,27.573997265625,337.7943232421875,15.013997265625,325.2853232421875,2.463989265625C324.5843232421875,2.213989265625,323.2313232421875,1.833984265625,321.5533232421875,2.083984365625C318.7363232421875,2.513977265625,317.1196232421875,4.443967265625,316.7230232421875,4.943967265625L316.7230232421875,4.9740572656249995Z" fill="#617C36" fill-opacity="1"/><path d="M315.19722324218753,3.649507265625Q306.06182324218753,11.563057265625,297.7017232421875,20.214297265625Q288.5352232421875,29.701597265625,280.2950232421875,40.091197265625L280.0999232421875,40.337197265625L279.9896232421875,40.630997265625Q278.5588232421875,44.441797265625,280.0497232421875,48.261297265625Q281.0154232421875,50.735197265625,282.8775232421875,52.395297265625Q252.3734232421875,76.234997265625,253.8480232421875,86.419697265625Q253.85852324218752,90.968097265625,256.2909232421875,94.605697265625Q259.3375232421875,99.151997265625,264.4779232421875,100.637497265625Q252.8911232421875,113.113197265625,240.7293232421875,124.547197265625Q238.4924232421875,126.648197265625,234.4273232421875,130.390197265625Q223.9334732421875,140.050197265625,220.7717732421875,144.115197265625Q215.6461732421875,150.705197265625,215.8664432421875,157.360197265625Q216.2034632421875,165.978197265625,222.0833832421875,171.546197265625Q227.3650132421875,176.545197265625,237.4977232421875,177.190197265625Q259.95382324218747,178.663197265625,299.0919232421875,176.933197265625L298.70562324218747,191.831197265625Q297.2843232421875,195.742197265625,301.5889232421875,197.781197265625Q304.7421232421875,199.275197265625,311.7387232421875,199.493197265625Q324.9573232421875,199.895197265625,339.41532324218747,199.493197265625L339.7073232421875,199.485197265625L339.9843232421875,199.394197265625Q346.03732324218754,197.406197265625,345.5373232421875,178.784197265625L380.0793232421875,177.432197265625L417.5253232421875,175.967197265625L418.0393232421875,175.556197265625Q428.5123232421875,167.187197265625,428.2273232421875,157.763197265625Q428.0463232421875,151.651197265625,422.71532324218754,145.601197265625Q409.4773232421875,130.615197265625,381.8303232421875,101.536997265625Q388.7883232421875,95.969897265625,390.14132324218747,90.935397265625Q391.8063232421875,84.737797265625,385.5683232421875,79.924697265625L360.7253232421875,51.683397265625Q368.4093232421875,44.841897265625,364.4563232421875,39.011697265625L364.3503232421875,38.855997265625L327.0293232421875,1.3800672656250002L326.3833232421875,0.731797265625L325.9573232421875,0.579987265625Q323.6333232421875,-0.24793273437499996,321.2583232421875,0.10581726562500005Q317.5917232421875,0.665557265625,315.19722324218753,3.649507265625ZM303.0917232421875,176.991197265625L302.6854232421875,192.665197265625L302.5375232421875,193.014197265625Q302.2585232421875,193.672197265625,303.3011232421875,194.166197265625Q305.7005232421875,195.303197265625,311.8632232421875,195.495197265625Q324.8023232421875,195.888197265625,338.9543232421875,195.504197265625Q342.2043232421875,193.890197265625,341.47032324218753,176.950197265625L341.3833232421875,174.944197265625L379.92232324218753,173.435197265625L416.04732324218753,172.021197265625Q424.4473232421875,165.096197265625,424.2293232421875,157.884197265625Q424.0913232421875,153.212197265625,419.7143232421875,148.246197265625Q406.1643232421875,132.906197265625,377.3993232421875,102.683197265625L375.83532324218754,101.039197265625L377.66232324218754,99.693597265625Q385.12232324218746,94.198797265625,386.2783232421875,89.897497265625Q387.2653232421875,86.221397265625,382.9913232421875,82.989197265625L382.8293232421875,82.867097265625L354.9713232421875,51.198297265625L356.6323232421875,49.891897265625Q363.2513232421875,44.686297265625,361.2363232421875,41.397397265625L324.2113232421875,4.219267265625Q323.0313232421875,3.8859172656250003,321.8483232421875,4.062147265625001Q320.0293232421875,4.339807265625,318.7233232421875,5.691517265625L318.7233232421875,5.888877265625L318.0313232421875,6.487127265625Q308.9131232421875,14.368697265625,300.57812324218753,22.993897265625Q291.6628232421875,32.221297265625,283.6358232421875,42.316397265625Q282.8967232421875,44.554597265625,283.7759232421875,46.806797265625Q284.74912324218747,49.299897265625,287.1681232421875,50.489297265625L290.05502324218753,51.908697265625L287.5047232421875,53.869597265625Q256.3817232421875,77.800097265625,257.8178232421875,85.915497265625L257.8497232421875,86.095997265625L257.8483232421875,86.279297265625Q257.8221232421875,89.699597265625,259.6160232421875,92.382297265625Q262.6275232421875,96.876197265625,268.5733232421875,97.309297265625L272.6914232421875,97.609297265625L269.9031232421875,100.654597265625Q257.0425232421875,114.700197265625,243.4691232421875,127.461197265625Q241.2173232421875,129.577197265625,237.1363232421875,133.333197265625Q226.8869532421875,142.768197265625,223.9291732421875,146.570197265625Q219.6918432421875,152.018197265625,219.8642532421875,157.228197265625Q220.1367332421875,164.194197265625,224.8337732421875,168.642197265625Q229.0634232421875,172.645197265625,237.7516232421875,173.198197265625Q260.8137232421875,174.711197265625,301.7928232421875,172.806197265625L305.0638232421875,172.654197265625L303.7055232421875,175.633197265625L303.7051232421875,175.634197265625Q303.3267232421875,176.464197265625,303.0917232421875,176.991197265625Z" fill-rule="evenodd" fill="#000000" fill-opacity="1"/></g><g><ellipse cx="295.5908842086792" cy="71.81409168243408" rx="10.8305082321167" ry="15.369999885559082" fill="#FFFFFF" fill-opacity="1"/></g><g><ellipse cx="295.4585690498352" cy="71.00416946411133" rx="5.755932331085205" ry="9.979999542236328" fill="#313131" fill-opacity="1"/></g><g><path d="M298.8857073828125,63.864013671875C298.1331723828125,63.864013671875,297.5128173828125,64.833984671875,297.5128173828125,66.023983671875C297.5128173828125,67.213993671875,298.1229933828125,68.183963671875,298.8857073828125,68.183963671875C299.6484173828125,68.183963671875,300.2585973828125,67.213993671875,300.2585973828125,66.023983671875C300.2585973828125,64.833984671875,299.6484173828125,63.864013671875,298.8857073828125,63.864013671875Z" fill="#FFFFFF" fill-opacity="1"/></g><g><ellipse cx="345.0958080291748" cy="71.14409160614014" rx="11.105085372924805" ry="14.699999809265137" fill="#FFFFFF" fill-opacity="1"/></g><g><path d="M346.021360546875,60.284240721875C342.736630546875,60.084228171875,339.756980546875,64.784236171875,339.370535146875,70.794276171875C338.984089546875,76.804276171875,341.465450546875,81.324276171875,344.750170546875,81.524276171875C348.034900546875,81.724276171875,350.892510546875,77.544276171875,351.279010546875,71.534276171875C351.665410546875,65.524226171875,349.316270546875,60.484253171875,346.021360546875,60.284240721875Z" fill="#313131" fill-opacity="1"/></g><g><ellipse cx="349.1025358438492" cy="66.0242383480072" rx="1.6474577188491821" ry="2.430000066757202" fill="#FFFFFF" fill-opacity="1"/></g><g><path d="M305.6077648828125,71.16406246875L335.6383048828125,71.14404296875C335.9129048828125,72.10406496875,336.19760488281247,73.50403296875,336.1162048828125,75.18402296875C336.0044048828125,77.58404296875,335.2213048828125,79.41400296875,334.6722048828125,80.44403296875C333.5535048828125,82.82404296875,332.0891048828125,84.22404296875,331.2145048828125,84.93404296874999C327.4416048828125,87.98404296875,322.8348048828125,87.89404296875,321.3501048828125,87.86404296875C319.5501048828125,87.83394296875,317.7704048828125,87.50404296875,317.7704048828125,87.52394296874999Q317.7704048828125,87.56394296875,320.6890048828125,87.92404296875C319.1128048828125,87.86404296875,316.8551048828125,87.58394296875,314.3839448828125,86.57404296875C309.8076748828125,84.70404296875,307.2347948828125,81.45404296875,306.1771548828125,79.92401296875C305.7093648828125,79.30401296875,305.0483588828125,78.25403296875,304.7432548828125,76.83398296875C304.1432588828125,74.08398296875,305.2415498828125,71.86401396875,305.6178148828125,71.17401126875L305.6077648828125,71.16406246875Z" fill="#313131" fill-opacity="1"/></g><g><path d="M315.279052734375,86.85419140625C315.960391734375,85.45416140625,317.170562734375,83.53418140625,319.296012734375,82.00421140625C325.529952734375,77.51422140625,333.624852734375,80.71423140625,334.275652734375,80.98419140625C333.563752734375,82.36420140625,331.804452734375,85.21417140625,328.367152734375,86.78418140625C325.784152734375,87.96417140625,323.363812734375,87.90417140625,321.350212734375,87.86420140625C318.787472734375,87.80420140625,316.692562734375,87.30420140625,315.279052734375,86.85419140625Z" fill="#A34435" fill-opacity="1"/></g></g><g><path d="M60.779267578125,58.276980390625C57.342067578125,61.237000390625,53.731867578125,64.586970390625,50.060667578125,68.376950390625C46.053867578125,72.50695039062501,42.555567578125,76.546950390625,39.525067578125,80.356950390625C39.382667578125,80.75695039062501,38.853867578125,82.316950390625,39.555567578125,84.126950390625C40.287767578125,86.00695039062501,41.853867578125,86.826950390625,42.219967578125,87.016950390625Q22.664067578125,101.996950390625,23.660667578125,107.646950390625C23.660667578125,108.456950390625,23.752167578125,110.266950390625,24.941967578125,112.03695039062501C27.067467578125,115.18705039062499,30.819967578125,115.52695039062499,31.328467578125,115.567050390625C24.830167578125,122.637050390625,19.226767578125,128.077050390625,15.280967578125,131.777050390625C5.803007578125,140.647050390625,0.301327578125,144.617050390625,0.504714188125,150.777050390625C0.525057478125,151.24705039062502,0.728444578125,155.547050390625,3.911497578125,158.547150390625C6.718277578125,161.19715039062498,10.440307578125,161.507150390625,12.545367578125,161.647150390625C25.826767578125,162.517150390625,50.019967578125,161.487150390625,51.718267578125,161.417150390625C51.555567578125,161.767150390625,51.403067578125,162.117150390625,51.240367578125,162.477150390625L50.986067578125,171.997150390625Q49.735267578125,174.94715039062498,57.758967578125,175.187150390625Q65.782667578125,175.437150390625,74.558967578125,175.187150390625Q77.569167578125,174.207150390625,77.070867578125,162.667150390625C91.969167578125,162.087150390625,106.867267578125,161.507150390625,121.776267578125,160.927150390625C123.626267578125,159.44715039062498,127.674267578125,155.807050390625,127.532267578125,151.117050390625C127.440267578125,147.97705039062498,125.528267578125,145.68705039062502,124.471267578125,144.49705039062502Q116.193267578125,135.16705039062498,98.640267578125,116.797050390625Q108.423267578125,109.617050390625,101.904267578125,104.707050390625L85.857267578125,86.537050390625Q90.870767578125,82.607050390625,88.867367578125,79.657050390625C81.240267578125,72.037050390625,73.623367578125,64.407040390625,65.996267578125,56.787048390625C65.569067578125,56.637024390625,64.745367578125,56.397033390625,63.728467578125,56.557067890625C62.009767578125,56.817077390625,61.023367578125,57.987060390625,60.789467578125,58.297060390625L60.779267578125,58.276980390625Z" fill="#617C36" fill-opacity="1"/><path d="M60.493467578125,57.863280390625Q61.700867578125,56.358121390625,63.650667578125,56.063146390625Q64.889167578125,55.868257390625,66.161967578125,56.315300390625L66.269267578125,56.353014390625L77.785367578125,67.868450390625L89.254467578125,79.33695039062499L89.281067578125,79.376150390625Q91.457267578125,82.580650390625,86.578867578125,86.598750390625L102.246267578125,104.338550390625Q105.729267578125,106.985450390625,104.830267578125,110.314850390625Q104.008267578125,113.35915039062499,99.392067578125,116.860150390625Q116.648267578125,134.927350390625,124.844267578125,144.164950390625Q127.930267578125,147.637250390625,128.03126757812498,151.101850390625Q128.19326757812502,156.435650390625,122.088267578125,161.317150390625L121.959267578125,161.420150390625L77.590467578125,163.147150390625Q78.013367578125,174.588150390625,74.713767578125,175.66215039062502L74.645267578125,175.68515039062498L74.573167578125,175.687150390625Q65.781667578125,175.937150390625,57.744067578125,175.687150390625Q53.628167578125,175.564150390625,51.840867578125,174.72215039062502Q49.763267578125,173.743150390625,50.488667578125,171.893150390625L50.743167578125,162.36315039062498L50.784667578125,162.271150390625Q50.835167578125,162.159150390625,50.928767578125,161.950150390625Q25.405167578125,162.990150390625,12.512267578125,162.146150390625Q6.577067578125,161.751150390625,3.568567578125,158.91115039062498Q0.219708578125,155.754650390625,0.004988578124999976,150.793550390625Q-0.11994342187499996,147.00975039062502,2.844847578125,143.213050390625Q4.735217578125,140.792250390625,11.084667578125,134.971750390625Q13.569867578125,132.693550390625,14.938967578125,131.412350390625Q22.884067578125,123.962250390625,30.299067578125,115.945750390625Q26.558367578125,115.326450390625,24.527067578125,112.315950390625Q23.171667578125,110.299650390625,23.160767578125,107.689450390625Q22.206967578125,101.817850390625,41.328067578125,87.071850390625Q39.759967578125,86.029450390625,39.089367578125,84.307650390625Q38.306767578125,82.288950390625,39.053967578125,80.189250390625L39.081967578125,80.110850390625L39.133767578125,80.045650390625Q44.096267578125,73.806750390625,49.701567578125,68.029050390625Q54.796467578125,62.769200390625,60.453067578125,57.898100390625L60.493467578125,57.863280390625ZM60.621267578125,59.074550390625Q55.264767578125,63.723110390625,50.419767578125,68.724850390625Q44.878067578125,74.437050390625,39.969267578125,80.601750390625Q39.387767578125,82.310850390625,40.021767578125,83.946250390625Q40.688867578125,85.659050390625,42.450267578125,86.573150390625L43.148467578125,86.935550390625L42.524067578125,87.413850390625Q23.209067578125,102.209150390625,24.153067578125,107.560150390625L24.160667578125,107.60325039062499L24.160667578125,107.646950390625Q24.160667578125,109.978350390625,25.356967578125,111.758050390625Q27.378767578125,114.75445039062501,31.367667578125,115.068550390625L32.391567578125,115.14915039062501L31.696567578125,115.905350390625Q23.949867578125,124.333450390625,15.622967578125,132.14175039062502Q14.249567578125,133.427150390625,11.760367578125,135.708950390625Q5.472217578125,141.473250390625,3.633007578125,143.828550390625Q0.8914815781250001,147.339250390625,1.004443578125,150.76055039062499Q1.201205578125,155.305650390625,4.254437578125,158.183150390625Q7.002127578125,160.777150390625,12.578567578125,161.148150390625Q25.592667578125,162.001150390625,51.584767578125,160.922150390625L51.697667578125,160.917150390625L52.517667578125,160.884150390625L52.171667578125,161.628150390625Q52.069167578125,161.848150390625,51.869567578125,162.295150390625Q51.790367578125,162.473150390625,51.737467578125,162.591150390625L51.483367578125,172.105150390625L51.446367578125,172.192150390625Q51.008667578125,173.224150390625,52.266967578125,173.817150390625Q53.866067578125,174.570150390625,57.773967578125,174.687150390625Q65.747667578125,174.93615039062502,74.467267578125,174.689150390625Q77.047367578125,173.715150390625,76.571267578125,162.688150390625L76.549667578125,162.187150390625L77.061867578125,162.167150390625L121.591267578125,160.434150390625Q127.177267578125,155.912350390625,127.032267578125,151.13225039062502Q126.941267578125,148.029850390625,124.097267578125,144.82925039062502Q115.820267578125,135.500750390625,98.278767578125,117.142450390625L97.885467578125,116.730850390625L98.344467578125,116.39395039062501Q103.094267578125,112.907550390625,103.865267578125,110.054250390625Q104.593267578125,107.35805039062501,101.604267578125,105.106450390625L101.563267578125,105.075950390625L85.131467578125,86.470650390625L85.548767578125,86.143550390625Q90.160467578125,82.528550390625,88.479167578125,79.975950390625L65.725167578125,57.223097390625Q64.745167578125,56.903221390625,63.806167578125,57.050989390625Q62.169167578125,57.298657390625,61.188567578125,58.598220390625L60.704467578125,59.239750390625L60.621267578125,59.074550390625Z" fill-rule="evenodd" fill="#000000" fill-opacity="1"/></g></g></svg>