<svg xmlns="http://www.w3.org/2000/svg" xmlns:xlink="http://www.w3.org/1999/xlink" fill="none" version="1.1" width="145.8363037109375" height="225.720947265625" viewBox="0 0 145.8363037109375 225.720947265625"><defs><clipPath id="master_svg0_36_58"><rect x="98.486328125" y="97.6708984375" width="47.349998474121094" height="128.0500030517578" rx="0"/></clipPath></defs><g><g><g><path d="M100.777826953125,59.63081171875C107.368126953125,70.96091171875,108.547126953125,79.19081171875,106.798126953125,85.16091171875Q102.171026953125,100.96091171875,77.021926953125,101.00091171875C62.632026953125,100.73091171875,45.486326953125,76.10091171875,42.282926953125,73.15091171875C39.079526953125,70.20091171875,2.977817953125,42.58091171875,3.038832953125,39.67091171875C3.099846953125,36.76101171875,6.252396953125,34.92091171875,3.893066953125,31.76101171875C1.533736953125,28.60101171875,2.296448953125,22.41101171875,5.316786953125,16.811011718750002C5.865946953125,15.80101171875,6.496456953125,15.07101171875,7.198146953125,14.55101171875C11.001526953125,11.68097171875,14.072726953125,12.86101171875,18.771026953125,10.96094171875C23.072726953125,9.220951718750001,22.340526953125,7.12091171875,27.028626953125,4.720951718749999C31.218526953125,2.57092281875,35.174426953125,2.52093501875,37.421926953125,2.50097655875C48.221926953125,2.38098171875,60.394726953125,9.730961718749999,68.784626953125,14.31101171875C87.760826953125,24.68101171875,100.188026953125,31.47091171875,106.778126953125,27.05101171875C113.174126953125,22.76101171875,108.842126953125,11.19098171875,117.212126953125,6.60095171875C120.659126953125,4.71094171875,125.673126953125,4.14093171875,129.191126953125,6.450931718750001C133.707126953125,9.420901718749999,133.910126953125,15.96091171875,134.001126953125,18.92091171875C134.113126953125,22.59091171875,133.279126953125,25.35091171875,132.649126953125,27.36091171875C131.723126953125,30.31091171875,129.700126953125,35.34091171875,124.991126953125,40.51091171875C125.693126953125,44.81091171875,126.415126953125,53.00091171875,123.354126953125,62.49091171875C119.398126953125,74.74091171875,111.456126953125,81.92091171875,108.029126953125,84.68091171875" fill="#FFFFFF" fill-opacity="1"/><path d="M109.139126953125,86.05971171875Q103.893126953125,103.45851171875,76.975026953125,103.50051171875Q68.460426953125,103.34051171875,57.575226953125,93.56331171875Q51.804226953125,88.37971171875,43.528026953125,78.39791171875Q41.067326953125,75.43001171875,40.589326953125,74.98991171875Q39.792926953125,74.25651171875,32.323426953125,68.31611171875Q0.4688469531249999,42.98261171875,0.539386953125,39.61851171875Q0.5732669531250001,38.00261171875,1.684619953125,35.68171171875Q2.472271553125,34.03671171875,1.8898289531249999,33.25671171875Q-0.4366730468750002,30.14061171875,0.10081695312499983,24.94381171875Q0.5779169531249999,20.33091171875,3.120449953125,15.61681171875Q4.172776953125,13.68131171875,5.692296953125,12.55541171875Q8.409306953125,10.50513171875,13.180226953125,9.778851718750001Q16.139926953125,9.32829171875,17.833626953125,8.64335171875Q19.493526953125,7.97191171875,20.954526953125,6.351911718749999Q23.182626953125,3.88129171875,25.887326953125,2.49670433875Q30.633526953125,0.061161718750000205,37.394126953125,0.0011317187499999548Q47.864826953125,-0.11520828125000016,67.597526953125,10.80271171875Q69.220226953125,11.70051171875,69.983426953125,12.11717171875Q87.177326953125,21.51311171875,93.329126953125,23.89601171875Q101.991226953125,27.25121171875,105.385126953125,24.97471171875Q107.476126953125,23.57281171875,108.632126953125,17.36211171875Q109.491126953125,12.74541171875,110.479126953125,10.51605171875Q112.279126953125,6.45477171875,116.010126953125,4.40878171875Q123.980126953125,0.039181718750000094,130.565126953125,4.36226171875Q136.166126953125,8.046561718749999,136.500126953125,18.84471171875Q136.628126953125,23.02911171875,135.034126953125,28.10921171875Q132.772126953125,35.32031171875,127.638126953125,41.29221171875Q129.204126953125,52.49691171875,125.733126953125,63.25921171875Q121.206126953125,77.27871171875,109.597126953125,86.62801171875L109.139126953125,86.05971171875ZM110.027126953125,79.55721171875Q117.642126953125,72.04491171875,120.975126953125,61.72261171875Q124.258126953125,51.54281171875,122.524126953125,40.91361171875L122.329126953125,39.72101171875L123.143126953125,38.82761171875Q128.160126953125,33.319011718750005,130.26412695312501,26.61261171875Q131.604126953125,22.33791171875,131.503126953125,18.99711171875Q131.249126953125,10.79678171875,127.817126953125,8.53959171875Q123.748126953125,5.868301718750001,118.413126953125,8.79313171875Q114.960126953125,10.68692171875,113.547126953125,18.27711171875Q112.006126953125,26.55441171875,108.170126953125,29.12721171875Q102.614126953125,32.85421171875,91.523126953125,28.55841171875Q85.066526953125,26.05751171875,67.585726953125,16.50481171875Q66.811726953125,16.082211718750003,65.17692695312499,15.17771171875Q46.599826953125,4.89915171875,37.449626953125,5.00082171875Q31.862426953125,5.05044171875,28.170026953125,6.94519171875Q26.279726953125,7.91288171875,24.667626953125,9.700491718750001Q22.435626953125,12.17540171875,19.708426953125,13.27851171875Q17.471426953125,14.18321171875,13.932726953125,14.72191171875Q10.411756953125,15.25791171875,8.704006953124999,16.54651171875Q8.037616953125,17.04051171875,7.513126953125,18.005211718749997Q5.449366953125001,21.83161171875,5.074286953125,25.45821171875Q4.737606953125,28.71341171875,5.896296953125,30.26531171875Q8.287976953125,33.46861171875,6.194276953125,37.84111171875Q5.549516953125,39.18761171875,5.5382869531250005,39.72341171875Q5.519666953125,40.61111171875,35.435626953125,64.40281171875Q43.046726953125,70.45581171875,43.976426953125,71.31191171875Q44.701726953125,71.97981171875,47.377026953125,75.20651171875Q66.527626953125,98.30361171875,77.068826953125,98.50131171875Q100.297326953125,98.46391171875,104.399126953125,84.45821171875Q107.054126953125,75.39481171875,98.616726953125,60.88781171875L102.939126953125,58.37391171875Q109.919126953125,70.37431171875,110.027126953125,79.55721171875Z" fill-rule="evenodd" fill="#313131" fill-opacity="1"/></g><g><path d="M46.4574555,53.820759375Q44.2098925,60.966359375,44.9742525,62.672859375L49.5374025,60.628959375Q49.6794025,60.945959375,49.6944825,61.218259375Q49.6944025,61.216759375,49.7026325,61.130259375Q49.7398625,60.739159375,49.9038125,60.007459375Q50.2773625,58.340359375,51.2270825,55.320959375Q52.3361525,51.794659374999995,68.5609125,28.040919375L64.4321125,25.220799375Q47.7890245,49.587059374999995,46.4574555,53.820759375Z" fill-rule="evenodd" fill="#313131" fill-opacity="1"/></g><g><path d="M49.6560875,27.872510546875Q58.8830875,32.004110546875,58.8013875,34.270810546875L63.7981875,34.450910546875Q64.1549875,24.550980546875,18.8770705,12.662770546875L17.6073045,17.498850546875Q39.0794875,23.136600546875002,49.6560875,27.872510546875Z" fill-rule="evenodd" fill="#313131" fill-opacity="1"/></g><g><path d="M6.8767099609375,35.49172177734375Q29.8232599609375,31.96046477734375,49.8195599609375,51.297921777343745L53.2953599609375,47.70362177734375Q31.5153599609375,26.641221777343752,6.1162099609375,30.54990177734375L6.8767099609375,35.49172177734375Z" fill-rule="evenodd" fill="#313131" fill-opacity="1"/></g><g><path d="M115.31001875,77.32086181640625Q129.25241875,97.45086181640625,112.88971875,107.05086181640625C112.67611875,107.18086181640625,112.45241874999999,107.30086181640625,112.21851875,107.43086181640625Q94.56421875,127.15086181640625,77.67272975,104.40086181640625L77.01171875,101.00076181640625Q97.23881875000001,100.41076181640625,102.01851875,92.79076181640625Q107.87611875,87.30078181640624,109.86931874999999,83.08075181640625Q111.86251874999999,78.86072181640625,115.31001875,77.32086181640625Z" fill="#FFFFFF" fill-opacity="1"/><path d="M114.49441875,75.49474181640625Q110.37051875,77.33671761640625,108.06091875,82.22659181640626Q106.23041875,86.10208181640625,100.65081875,91.33146181640625L100.46181874999999,91.50866181640625L100.32421875,91.72806181640625Q96.11231875,98.44276181640625,76.95340335,99.00166181640625L74.59895875,99.07036181640625L75.79616875,105.22836181640625L76.06695475,105.59306181640625Q85.04845875,117.68966181640624,94.58021875,118.52566181640626Q104.09791875,119.36046181640626,113.48011875,109.01836181640626Q113.76051875,108.86216181640626,113.90171875,108.77586181640625Q122.98001875,103.44966181640625,123.66951875000001,94.98066181640625Q124.33261875,86.83516181640626,116.95421875,76.18210181640625L116.00941875000001,74.81803181640625L114.49441875,75.49474181640625ZM103.56691875,94.08006181640624Q109.55371875,88.43196181640624,111.67781875,83.93491181640626Q112.89691875,81.35382181640625,114.69431875000001,79.99502181640625Q120.18491875000001,88.48746181640625,119.68271874999999,94.65606181640625Q119.16201875,101.05206181640625,111.87761875000001,105.32586181640625Q111.71941875,105.42176181640625,111.40491875000001,105.59526181640625Q111.30031875,105.65306181640625,111.24691874999999,105.68266181640625L110.95281875,105.84616181640625L110.72841875,106.09686181640625Q102.56891875,115.21106181640624,94.92971875,114.54096181640625Q87.32061875,113.87356181640625,79.54853875,103.56936181640626L79.41933875,102.90486181640625Q98.39391875,101.91256181640625,103.56691875,94.08006181640624Z" fill-rule="evenodd" fill="#313131" fill-opacity="1"/></g></g><g clip-path="url(#master_svg0_36_58)"><g><path d="M98.486328125,115.6208984375C104.726328125,126.7608984375,123.116328125,162.9708984375,110.216328125,201.1608984375C107.846328125,208.1708984375,104.736328125,214.34089843750002,101.316328125,219.7308984375C102.036328125,219.7608984375,112.466328125,220.25089843749998,117.296328125,221.6408984375C119.636328125,222.3208984375,120.636328125,223.2008984375,121.036328125,224.1708984375C121.376328125,224.9908984375,121.136328125,225.5308984375,121.336328125,225.6908984375C122.566328125,226.6408984375,136.246328125,211.4308984375,139.246328125,207.5408984375C158.276328125,182.7608984375,130.736328125,113.9808984375,123.966328125,97.6708984375C121.176328125,100.4808984375,118.376328125,103.3008984375,115.586328125,106.1108984375C114.226328125,107.63089843750001,112.356328125,109.4308984375,109.866328125,111.0808984375C105.476328125,114.0008984375,101.216328125,115.13089843750001,98.486328125,115.6208984375Z" fill="#231F20" fill-opacity="1"/></g></g></g></svg>