<svg xmlns="http://www.w3.org/2000/svg" xmlns:xlink="http://www.w3.org/1999/xlink" fill="none" version="1.1" width="45" height="45" viewBox="0 0 45 45"><defs><clipPath id="master_svg0_17_3025"><rect x="11" y="13" width="22" height="17" rx="0"/></clipPath></defs><g><g><g><path d="M0 35C0 35 0 35 0 35L45 35C45 35 45 35 45 35L45 40C45 42.76142374915397 42.76142374915397 45 40 45L5 45C2.2385762508460334 45 0 42.76142374915397 0 40Z" fill="#000000" fill-opacity="1"/></g><g><rect x="0" y="0" width="45" height="43" rx="7" fill="#617C36" fill-opacity="1"/><rect x="1" y="1" width="43" height="41" rx="6" fill-opacity="0" stroke-opacity="1" stroke="#000000" fill="none" stroke-width="2"/></g></g><g clip-path="url(#master_svg0_17_3025)"><g><path d="M18.8892,22.91737L22.002200000000002,24.97335L25.003,22.973689999999998L31.7295,29.38375C31.5521,29.43975,31.3643,29.468049999999998,31.1663,29.46875L12.8337,29.46875C12.5917,29.46875,12.3607,29.42305,12.1484,29.341250000000002L18.8892,22.91737ZM33,17.6495L33,27.69755C33,27.960050000000003,32.9406,28.20865,32.835,28.432850000000002L26.2416,22.14919L33,17.6495ZM11,17.70581L17.6462,22.09606L11.1166,28.320149999999998C11.0401091,28.12085,11.000636891,27.91005,11,27.69755L11,17.70581ZM31.1663,13.53125C32.1783,13.53125,33,14.323875,33,15.30244L33,15.92506L21.997799999999998,23.250999999999998L11,15.98562L11,15.30244C11,14.324937,11.8206,13.53125,12.8337,13.53125L31.1663,13.53125Z" fill-rule="evenodd" fill="#FFFFFF" fill-opacity="1"/><path d="M31.1663,12.88125L12.8337,12.88125Q11.811327,12.88125,11.0852596,13.5828553Q10.35,14.293343,10.35,15.30244L10.35,16.33525L21.999200000000002,24.03095L33.65,16.27317L33.65,15.30244Q33.65,12.88125,31.1663,12.88125ZM11.988616,14.517707Q12.3368,14.18125,12.8337,14.18125L31.1663,14.18125Q31.6629,14.18125,32.0112,14.517496Q32.35,14.84464,32.35,15.30244L32.35,15.57696L21.9964,22.47103L11.65,15.636L11.65,15.30244Q11.65,14.84491,11.988616,14.517707ZM33.65,16.43585L25.8814,21.60814L25.2045,22.05876L33.039,29.52515L33.423,28.70975Q33.65,28.22795,33.65,27.69755L33.65,16.43585ZM10.35,16.49744L10.35,27.69755L10.350003,27.699550000000002Q10.351324,28.14025,10.50975,28.55305L10.859159,29.463549999999998L18.685380000000002,22.003500000000003L10.35,16.49744ZM27.2787,22.23961L32.35,27.07265L32.35,18.86315L27.2787,22.23961ZM11.65,26.91375L16.60702,22.18863L11.65,18.914189999999998L11.65,26.91375ZM18.81549,22.08973L11.699975,28.87075L10.9570152,29.57875L11.91467,29.94775Q12.35835,30.11875,12.8337,30.11875L31.1687,30.11875Q31.565,30.11725,31.9251,30.00365L32.974599999999995,29.67245L25.0751,22.14454L22.0006,24.19325L18.81549,22.08973ZM13.638860000000001,28.81875L30.1944,28.81875L24.9309,23.80285L22.0038,25.753349999999998L18.96291,23.74505L13.638860000000001,28.81875Z" fill-rule="evenodd" fill="#FFFFFF" fill-opacity="1"/></g></g></g></svg>