<svg xmlns="http://www.w3.org/2000/svg" xmlns:xlink="http://www.w3.org/1999/xlink" fill="none" version="1.1" width="45" height="46" viewBox="0 0 45 46"><defs><clipPath id="master_svg0_17_2973"><rect x="16" y="16" width="14" height="12" rx="0"/></clipPath></defs><g transform="matrix(1,2.927985631728802e-10,-2.927985631728802e-10,1,0,0)"><g><path d="M0 36C0 36 0 36 0 36L45 36C45 36 45 36 45 36L45 41C45 43.76142374915397 42.76142374915397 46 40 46L5 46C2.2385762508460334 46 0 43.76142374915397 0 41Z" fill="#000000" fill-opacity="1"/></g><g><rect x="0" y="0" width="45" height="43" rx="7" fill="#ABADB0" fill-opacity="1"/><rect x="1" y="1" width="43" height="41" rx="6" fill-opacity="0" stroke-opacity="1" stroke="#000000" fill="none" stroke-width="2"/></g><g clip-path="url(#master_svg0_17_2973)"><g><path d="M16,28L16,26L30,26L30,28L16,28ZM16,23L16,21L30,21L30,23L16,23ZM16,18L16,16L30,16L30,18L16,18Z" fill="#000000" fill-opacity="1"/></g></g></g></svg>