<svg xmlns="http://www.w3.org/2000/svg" xmlns:xlink="http://www.w3.org/1999/xlink" fill="none" version="1.1" width="50" height="62.261348724365234" viewBox="0 0 50 62.261348724365234"><defs><clipPath id="master_svg0_84_296"><rect x="0" y="0" width="50" height="62.261348724365234" rx="0"/></clipPath></defs><g clip-path="url(#master_svg0_84_296)"><g><path d="M23.11329482421875,2.255988Q7.81250482421875,7.839565,4.412824824218751,16.827275C1.01314782421875,25.815075,-0.20262517578125006,29.210275,2.95389482421875,32.371275Q6.11041482421875,35.532275,18.98419482421875,37.473075L21.41119482421875,28.003475Q24.56769482421875,27.030875,19.47049482421875,24.846975Q14.37319482421875,22.663075,13.40059482421875,21.447275Q27.97189482421875,20.231475,30.15579482421875,21.204075C32.33969482421875,22.176775,28.93999482421875,23.874275,28.69689482421875,26.549075Q28.45369482421875,29.223775,27.72419482421875,35.536775Q35.98249482421875,36.995675,38.65269482421875,36.023075C41.32289482421875,35.050475,48.56359482421875,31.889475,48.85179482421875,28.737475C49.27049482421875,24.148975,43.07459482421875,11.824575,24.98649482421875,1.296875L23.10879482421875,2.269497L23.11329482421875,2.255988Z" fill="#9E0B0B" fill-opacity="1"/><path d="M25.42409482421875,-0.18401500000000004L25.02859482421875,-0.41420499999999993L22.58179482421875,0.853206Q6.65066482421875,6.671295,3.00983482421875,16.296575Q0.10736482421874993,23.969875,-0.26047517578125,26.574575Q-0.8420751757812499,30.692675,1.89247582421875,33.431175Q5.39816482421875,36.941875,18.76059482421875,38.956275L20.10069482421875,39.158275L22.67489482421875,29.114675Q23.26819482421875,28.819375,23.61259482421875,28.417575Q24.59739482421875,27.268475,23.78209482421875,25.942375Q23.04749482421875,24.747675,20.06119482421875,23.468175Q18.96849482421875,22.999975,18.08799482421875,22.590675Q26.85339482421875,21.982075,29.06839482421875,22.433775Q28.97439482421875,22.568775,28.85349482421875,22.738175Q27.34489482421875,24.853175,27.20299482421875,26.413275Q26.96149482421875,29.069875,26.23419482421875,35.364575L26.07199482421875,36.768075L27.46329482421875,37.013875Q36.11789482421875,38.542875,39.16609482421875,37.432475Q49.92119482421875,33.514975,50.34549482421875,28.873975Q50.79639482421875,23.933575,45.05579482421875,16.339875Q38.17419482421875,7.236885,25.74099482421875,0.0004750000000000032L25.49419482421875,-0.1431849999999999L25.51939482421875,-0.21881499999999998L25.42409482421875,-0.18401500000000004ZM20.67709482421875,4.821054999999999Q8.64094482421875,9.889165,5.81581482421875,17.357975Q3.03127482421875,24.719475,2.71004482421875,26.994075Q2.33760482421875,29.631275,4.015304824218751,31.311375Q6.66765482421875,33.967475,17.86939482421875,35.780775L20.16669482421875,26.817375L20.17029482421875,26.816275Q19.64979482421875,26.555675,18.87969482421875,26.225775Q13.43679482421875,23.893775,12.22929482421875,22.384275L10.47101482421875,20.186475L13.27589482421875,19.952475Q28.23059482421875,18.704675,30.76609482421875,19.833875Q32.70109482421875,20.695675,32.33619482421875,22.509775Q32.19269482421875,23.222975,31.29579482421875,24.480375Q30.25899482421875,25.933875,30.19069482421875,26.684875Q29.97419482421875,29.066875,29.37679482421875,34.295175Q36.05689482421875,35.372275,38.13939482421875,34.613675Q47.10689482421875,31.347275,47.35799482421875,28.600875Q47.70339482421875,24.816775,42.66259482421875,18.148975Q36.33959482421875,9.784795,24.94049482421875,3.009995L20.51699482421875,5.301305L20.67709482421875,4.821054999999999Z" fill-rule="evenodd" fill="#000000" fill-opacity="1"/></g><g><ellipse cx="12.05419397354126" cy="13.06277847290039" rx="3.4672188758850098" ry="2.9133644104003906" fill="#000000" fill-opacity="1"/></g><g><ellipse cx="26.796631813049316" cy="8.933655738830566" rx="6.029358863830566" ry="6.029358863830566" fill="#000000" fill-opacity="1"/><ellipse cx="26.796631813049316" cy="8.933655738830566" rx="6.029358863830566" ry="6.029358863830566" fill-opacity="0" stroke-opacity="1" stroke="#000000" fill="none" stroke-width="1"/></g><g><ellipse cx="40.10269546508789" cy="16.46268081665039" rx="2.9133644104003906" ry="2.9133644104003906" fill="#000000" fill-opacity="1"/></g><g><path d="M-0.24603166015625,27.736095625Q-1.3838616601562501,35.713615625,18.34819833984375,39.786415625000004L20.61409833984375,40.254115625L25.15699833984375,24.511915625L18.62829833984375,21.569310625L13.65289833984375,19.326835625L13.17389833984375,19.305545625Q6.62596833984375,19.014525625,2.49166233984375,23.246455625Q0.86381833984375,24.917135625,-0.0706816601562501,27.108385625L-0.19962166015625016,27.410715625L-0.24603166015625,27.736095625ZM17.09869833984375,34.402415625L19.15139833984375,27.289485625L16.57369833984375,26.127695625L12.49239833984375,24.288135625Q8.500848339843749,24.250415625,6.07280833984375,26.735775625Q5.2298383398437505,27.600935624999998,4.69112833984375,28.712505625Q4.83312833984375,31.635905625,17.09869833984375,34.402415625Z" fill-rule="evenodd" fill="#000000" fill-opacity="1"/></g><g><path d="M32.5195266796875,21.464809718017577L29.8835266796875,21.474829718017578L29.8835166796875,22.96900800801758L29.8835166796875,23.242390718017578Q25.0377766796875,35.51697971801758,27.4555486796875,36.978279718017575Q29.1751266796875,38.01757971801758,35.5925766796875,37.97107971801758L35.7659666796875,37.96987971801758L35.9344866796875,37.929079718017576Q47.8756466796875,35.03977971801758,49.3184466796875,32.40960971801758L49.373046679687505,32.452449718017576L50.0552466796875,30.390269718017578Q50.0977466796875,30.261549718017577,50.1165466796875,30.12728971801758Q50.135446679687504,29.993019718017578,50.1298466796875,29.85754971801758Q50.1242466796875,29.72208971801758,50.0944466796875,29.58981971801758Q50.0647466796875,29.457549718017578,50.011746679687505,29.332759718017577Q49.9587466796875,29.20796971801758,49.884146679687504,29.094709718017576Q49.8096466796875,28.98144971801758,49.7160466796875,28.88337971801758Q49.6224466796875,28.78531971801758,49.512746679687496,28.705629718017576Q49.4030466796875,28.625939718017577,49.2808466796875,28.56721971801758Q41.6835466796875,22.63693571801758,38.5762466796875,22.05439671801758Q35.6485566796875,21.505539718017577,32.5195266796875,21.464809718017577ZM46.8452466796875,30.47401971801758Q40.316946679687504,25.432999718017577,38.0234466796875,25.00302971801758Q35.4179366796875,24.51456971801758,32.6253166796875,24.46673971801758Q30.5311466796875,29.77076971801758,29.7931266796875,32.61924971801758Q29.4638966796875,33.88997971801758,29.4231666796875,34.58097971801758Q30.8343666796875,34.99747971801758,35.3978266796875,34.972279718017575Q46.1846466796875,32.35374971801758,46.605646679687496,31.154069718017578L46.8452466796875,30.47401971801758Z" fill-rule="evenodd" fill="#000000" fill-opacity="1"/></g><g><path d="M6.97650853515625,28.44439703125Q6.74492153515625,28.32112703125,6.46724553515625,28.11287703125L5.26725153515625,29.71287703125Q5.66867253515625,30.013947031249998,6.03680653515625,30.20988703125Q7.2955385351562505,30.87118703125,9.75299853515625,30.63970703125Q10.45365853515625,30.57370703125,10.85874853515625,30.54533703125Q15.15766853515625,30.248177031250002,15.87894853515625,30.321947031249998Q15.90634853515625,30.32471703125,15.96844853515625,30.33150703125Q17.601048535156252,30.50988703125,18.268648535156252,29.65398703125Q18.62314853515625,29.18848703125,18.59294853515625,28.23806703125Q18.57774853515625,27.76068703125,18.612248535156247,27.48209703125Q18.80594853515625,25.95618703125,15.90314853515625,24.93770603125Q13.68650853515625,24.15995203125,9.23421853515625,23.37128603125L8.88536853515625,25.34062803125Q13.17766853515625,26.10095703125,15.24100853515625,26.82490703125Q16.174248535156252,27.15236703125,16.56874853515625,27.43708703125Q16.58874853515625,27.45152703125,16.60524853515625,27.46393703125Q16.57884853515625,27.82629703125,16.59394853515625,28.30154703125Q16.595148535156248,28.33882703125,16.59594853515625,28.37195703125Q16.44504853515625,28.37167703125,16.18574853515625,28.34333703125Q16.11554853515625,28.33567703125,16.08244853515625,28.33232703125Q15.19068853515625,28.24112703125,10.71904853515625,28.55022703125Q10.29000853515625,28.58026703125,9.56542853515625,28.64851703125Q7.69961853515625,28.82427703125,6.97650853515625,28.44439703125Z" fill-rule="evenodd" fill="#000000" fill-opacity="1"/></g><g><path d="M37.0166436328125,27.92321921875Q38.759303632812504,28.56429921875,41.1324136328125,29.38540921875L41.4593936328125,28.44037921875Q39.0954236328125,27.62242921875,37.3619036328125,26.984709218749998Q36.9345236328125,26.82748921875,36.0746636328125,26.54653921875Q33.3854736328125,25.66786621875,31.9231326328125,24.67215921875L31.3603146328125,25.49874021875Q32.9399736328125,26.57432921875,35.7640836328125,27.49708921875Q36.6064936328125,27.77232921875,37.0166436328125,27.92321921875Z" fill-rule="evenodd" fill="#000000" fill-opacity="1"/></g><g><path d="M40.2687726953125,31.044281875Q40.5927926953125,32.228791875,41.0185526953125,32.512631875L41.5732526953125,31.680581875Q41.4586726953125,31.604201875,41.2333426953125,30.780431875Q40.9954526953125,29.910771875000002,38.7734026953125,29.421531875Q36.7138626953125,28.968071875,35.2771226953125,28.439341875Q33.5999726953125,27.822130875,32.9648966953125,27.403626875Q32.7451736953125,27.258833875,32.7250506953125,27.213753875Q32.8110836953125,27.406491875,32.6639396953125,27.512761875L32.0784506953125,26.702081875Q31.5665726953125,27.071770275,31.8118936953125,27.621360875Q31.9510606953125,27.933133875,32.4146496953125,28.238631875Q33.1461946953125,28.720701875,34.9317626953125,29.377811875Q36.4323726953125,29.930051875,38.5583726953125,30.398141875Q40.1903126953125,30.757451875,40.2687726953125,31.044281875Z" fill-rule="evenodd" fill="#000000" fill-opacity="1"/></g><g><path d="M33.528091640625,34.68526796875Q33.430891640625,34.48177796875,33.494211640625,34.22533796875L35.435901640625,34.70475796875Q35.691271640625,33.67046796875,33.939901640625,32.45848796875Q32.924251640625,31.75564796875,31.214169640625,29.03390796875L29.520693640625,30.09792796875Q31.448941640625,33.16689796875,32.801801640625,34.10309796875Q33.303301640625,34.45013796875,33.502051640625,34.66524796875L33.528091640625,34.68526796875Z" fill-rule="evenodd" fill="#000000" fill-opacity="1"/></g><g transform="matrix(1,-0.001219684723764658,0.001219684723764658,1,-0.026859863635991132,0.014636216685175896)"><path d="M12,23.25938265625L20.01408,28.73835265625Q16.926090000000002,40.360272656250004,17.2983,43.27157265625C17.67052,46.18287265625,20.17951,57.45187265625,21.01585,60.07987265625Q21.85218,62.70797265625,22.3163,64.02197265625L23.989,63.55297265625L25.2894,53.59797265625L25.2894,38.242972656250004L28.6531,23.25010265625Q32.094899999999996,23.08759265625,26.741500000000002,22.37717865625Q21.38806,21.66676865625,14.6009,22.37717865625L12.00000175294,22.79506665625L12.00000175294,23.25010265625L12,23.25938265625Z" fill="#422604" fill-opacity="1"/><path d="M10.5,23.24981265625L10.5,23.25010265625L10.49985,24.05082265625L18.2941,29.37950265625Q15.41887,40.39937265625,15.810410000000001,43.461772656250005Q16.92328,52.16607265625,19.58648,60.53477265625Q20.42997,63.18527265625,20.90193,64.52157265625L21.36947,65.84527265625L25.348,64.72987265625L26.7894,53.69557265625L26.7894,38.40917265625L29.8765,24.64934265625Q30.0483,24.62355265625,30.1757,24.59287265625Q31.0924,24.37200265625,31.395,23.59648265625Q31.9284,22.22965065625,30.5192,21.58614265625Q29.8376,21.27488065625,26.9388,20.89021265625Q21.40894,20.15639265625,14.444749999999999,20.88533265625L14.4037,20.88962265625L10.5,21.51683465625L10.5,23.24981265625ZM26.965400000000002,23.92074265625Q26.7635,23.89324265625,26.5442,23.86414265625Q21.63955,23.21329265625,15.44862,23.80004265625L21.73612,28.09860265625L21.46378,29.12354265625Q18.45124,40.461472656249995,18.78619,43.08127265625Q19.86455,51.515672656250004,22.4452,59.62507265625Q22.649900000000002,60.26817265625,22.8318,60.83117265625L23.7894,53.50047265625L23.7894,38.07677265625L26.965400000000002,23.92074265625Z" fill-rule="evenodd" fill="#000000" fill-opacity="1"/></g><g><path d="M6.96147105484375,44.93858587125C7.42076521484375,46.82529203125,9.94238021484375,56.40738203125,18.34477021484375,60.05478203125C20.01087021484375,60.77968203125,21.663370214843752,61.16248203125,23.21237021484375,61.329082031249996C22.48287021484375,59.14968203125,20.794370214843752,55.06108203125,16.975870214843752,51.22010203125C13.17995021484375,47.40166203125,9.12736021484375,45.68606203125,6.95697021484375,44.93408203125L6.96147105484375,44.93858587125Z" fill="#075107" fill-opacity="1"/><path d="M9.28239021484375,47.51931203125Q12.161110214843749,55.73528203125,18.94207021484375,58.67878203125Q19.856870214843752,59.07688203125,20.82287021484375,59.34888203125Q19.02477021484375,55.40868203125,15.91211021484375,52.27764203125Q12.971020214843751,49.31911203125,9.28239021484375,47.51931203125ZM5.60664021484375,45.70487803125L1.2866302148437496,41.38198203125L7.44803721484375,43.51674203125Q13.526670214843751,45.62282403125,18.039670214843753,50.16256203125Q22.58797021484375,54.73768203125,24.63477021484375,60.85298203125L25.37707021484375,63.07058203125L23.05197021484375,62.820482031249995Q20.24837021484375,62.51888203125,17.74747021484375,61.43068203125Q8.60895021484375,57.46388203125,5.60664021484375,45.70487803125Z" fill-rule="evenodd" fill="#000000" fill-opacity="1"/></g><g><path d="M38.6662501953125,41.83154296875C36.9731501953125,42.77714796875,28.4131701953125,47.77084296875,27.1433581953125,56.84414296875C26.8911960953125,58.64084296875,26.9632421953125,60.33834296875,27.2154041953125,61.87384296875C29.1201201953125,60.58604296875,32.609850195312504,57.866342968750004,35.2890701953125,53.16534296875C37.9547501953125,48.48680296875,38.5266501953125,44.12351296875,38.6662501953125,41.83154296875Z" fill="#075107" fill-opacity="1"/><path d="M28.0555701953125,63.11654296875Q33.4058101953125,59.499042968750004,36.5922801953125,53.908042968749996L36.5923601953125,53.90784296875Q39.7735501953125,48.32465296875,40.1634501953125,41.92272886875L40.3302501953125,39.18407296875L37.9348501953125,40.52195296875Q27.0632857953125,46.59381296875,25.6578301953125,56.63624296875Q25.2787401953125,59.337242968750004,25.7352301953125,62.116942968749996L26.1148661953125,64.42864296875L28.0555701953125,63.11654296875ZM36.8021801953125,44.75623296875Q36.0589701953125,48.78407296875,33.9858601953125,52.42254296875L33.9857801953125,52.42274296875Q31.805100195312498,56.24894296875,28.4862201953125,59.038842968750004Q28.4905201953125,58.03784296875,28.6288801953125,57.05204296875Q29.6541401953125,49.72616296875,36.8021801953125,44.75623296875Z" fill-rule="evenodd" fill="#000000" fill-opacity="1"/></g></g></svg>