<svg xmlns="http://www.w3.org/2000/svg" xmlns:xlink="http://www.w3.org/1999/xlink" fill="none" version="1.1" width="45" height="45" viewBox="0 0 45 45"><g><g><g><path d="M0 35C0 35 0 35 0 35L45 35C45 35 45 35 45 35L45 40C45 42.76142374915397 42.76142374915397 45 40 45L5 45C2.2385762508460334 45 0 42.76142374915397 0 40Z" fill="#000000" fill-opacity="1"/></g><g><rect x="0" y="0" width="45" height="43" rx="7" fill="#A34435" fill-opacity="1"/><rect x="1" y="1" width="43" height="41" rx="6" fill-opacity="0" stroke-opacity="1" stroke="#000000" fill="none" stroke-width="2"/></g></g><g><path d="M18,16L18,26L19,27L19,26.25L19,25.5L19,20.5L28,17.5L28,25.5L29.5,26L29.5,11L18,16Z" fill="#FFFFFF" fill-opacity="1"/><path d="M19.5,28.2071L19.5,20.86038L27.5,18.19371L27.5,25.8604L30,26.6937L30,10.237394L17.5,15.67218L17.5,26.2071L19.5,28.2071ZM28.5,16.80629L18.5,20.13962L18.5,16.32782L29,11.762606L29,25.3063L28.5,25.1396L28.5,16.80629Z" fill-rule="evenodd" fill="#FFFFFF" fill-opacity="1"/></g><g transform="matrix(0.955318808555603,-0.29557737708091736,0.29557737708091736,0.955318808555603,-7.623823361187533,4.478109475196106)"><ellipse cx="15.154305458068848" cy="29.77504873275757" rx="4.154305458068848" ry="2.3192381858825684" fill="#FFFFFF" fill-opacity="1"/></g><g transform="matrix(0.955318808555603,-0.29557737708091736,0.29557737708091736,0.955318808555603,-6.836752878218249,7.6847794316418)"><ellipse cx="26.154305458068848" cy="28.77504873275757" rx="4.154305458068848" ry="2.3192381858825684" fill="#FFFFFF" fill-opacity="1"/></g></g></svg>