<svg xmlns="http://www.w3.org/2000/svg" xmlns:xlink="http://www.w3.org/1999/xlink" fill="none" version="1.1" width="350.2818603515625" height="32.28369140625" viewBox="0 0 350.2818603515625 32.28369140625"><g><g><g><path d="M92.0145432109375,10.237284123779297L90.0345622109375,20.367308123779296L91.9974202109375,20.750908123779297L93.9774012109375,10.620938123779297L94.1676912109375,9.639443123779296L92.2042512109375,9.258773123779298L92.0145432109375,10.237284123779297Z" fill-rule="evenodd" fill="#FFFFFF" fill-opacity="1"/></g><g><path d="M99.565917265625,21.549081329345704Q104.299357265625,21.549081329345704,107.423847265625,9.520516329345703L105.488047265625,9.017699329345703Q102.752507265625,19.549081329345704,99.565917265625,19.549081329345704Q99.016987265625,19.549081329345704,98.806527265625,19.4569813293457Q98.790277265625,19.069971329345705,99.39024726562499,17.490181329345702Q100.565917265625,14.394551329345703,100.565917265625,12.509101329345704Q100.565917265625,9.795651329345704,98.929917265625,8.735016329345703Q97.375207265625,7.727081329345703,94.584213265625,8.483968329345704L95.107681265625,10.414251329345703Q97.036657265625,9.891132329345703,97.841937265625,10.413201329345704Q98.565917265625,10.882561329345704,98.565917265625,12.509101329345704Q98.565917265625,14.027551329345703,97.520547265625,16.780101329345705Q96.719697265625,18.888801329345704,96.824047265625,19.732481329345703Q97.048737265625,21.549081329345704,99.565917265625,21.549081329345704Z" fill-rule="evenodd" fill="#FFFFFF" fill-opacity="1"/></g><g><ellipse cx="107.28600341081619" cy="5.469107389450073" rx="0.8199999928474426" ry="1.4700000286102295" fill-opacity="0" stroke-opacity="1" stroke="#FFFFFF" fill="none" stroke-width="2"/></g><g><path d="M115.1452912109375,9.793959611816407Q116.6871912109375,9.723189611816407,117.0632912109375,10.902449611816406L118.9686912109375,10.294769611816406Q118.11079121093749,7.604549611816406,114.9537312109375,7.801477611816406L114.9547412109375,7.817557611816406Q113.9470112109375,7.926960611816407,112.2489412109375,9.957109611816406L112.1690912109375,10.052569611816406L112.1150812109375,10.164689611816407Q109.8929012109375,14.777589611816406,108.0042012109375,19.34303961181641Q107.77904121093749,19.89013961181641,107.6068212109375,20.146939611816407Q106.8708712109375,19.172539611816404,105.9885772109375,15.482449611816406L104.0434052109375,15.947529611816407Q105.1296432109375,20.490639611816405,106.3003412109375,21.690639611816408Q107.3674612109375,22.784539611816406,108.5355812109375,22.010539611816405Q109.2692612109375,21.52433961181641,109.8523012109375,20.107639611816406Q111.6962212109375,15.650359611816405,113.8625912109375,11.145539611816407Q114.5753712109375,10.299919611816406,114.9992412109375,9.918619611816407Q115.0852912109375,9.841199611816407,115.1452912109375,9.793959611816407Z" fill-rule="evenodd" fill="#FFFFFF" fill-opacity="1"/></g><g><path d="M122.01699609375,13.569669951904297Q121.51189609375,13.628913951904297,120.70543609375,14.319624951904297L121.14396609375,14.831614951904298Q120.72910609375,15.719496951904297,119.16206609375,18.087196951904296Q117.73695609375,20.240456951904296,116.29204609375,19.825466951904296Q114.51369609375,19.3147069519043,112.24685009375,15.643706951904297L110.54514209375,16.694506951904298Q113.21830609375,21.0235169519043,115.73994609375,21.747756951904297Q118.59501609375,22.567756951904297,120.82987609375,19.191016951904295Q122.72079609375,16.334026951904296,123.10009609375,15.340976951904297Q123.26529609375,14.908644951904297,123.23989609375,14.579373851904297Q123.20389609375,14.112900951904297,122.86099609375,13.819953951904298Q122.50149609375,13.512846951904297,122.01699609375,13.569669951904297ZM121.33052609375,15.049425951904297Q121.41009609375,15.210954951904297,121.56189609375,15.340613951904297Q121.59009609375,15.364718951904297,121.61899609375,15.386209951904297L121.33052609375,15.049425951904297Z" fill-rule="evenodd" fill="#FFFFFF" fill-opacity="1"/></g><g transform="matrix(0.3361091613769531,-0.9418230056762695,0.9418230056762695,0.3361091613769531,66.73791038756099,122.84676815308922)"><ellipse cx="123.5067138671875" cy="16.42480444908142" rx="3" ry="2.3399999141693115" fill-opacity="0" stroke-opacity="1" stroke="#FFFFFF" fill="none" stroke-width="2"/></g><g><path d="M127.0007212109375,21.439070546875Q131.6942912109375,16.777300546875,131.8029912109375,15.376955046875L129.8090312109375,15.222166046875Q129.7578212109375,15.881816546875,125.5913212109375,20.020050546874998Q123.9117312109375,21.688250546875,123.2499912109375,21.317280546875Q122.3757512109375,20.827180546875,122.0093882109375,17.654840546875L120.0225942109375,17.884280546875Q120.5062092109375,22.071950546875,122.2719812109375,23.061840546875Q124.2502612109375,24.170870546875,127.0007212109375,21.439070546875Z" fill-rule="evenodd" fill="#FFFFFF" fill-opacity="1"/></g><g><line x1="139.05596923828125" y1="8.42911148071289" x2="144.5059690475464" y2="8.42911148071289" fill-opacity="0" stroke-opacity="1" stroke="#FFFFFF" fill="none" stroke-width="2"/></g><g><path d="M143.31785427734374,20.96770903930664Q144.82959427734374,19.828409039306642,146.01242427734374,18.092109039306642L144.35952427734375,16.96610903930664Q143.36242427734376,18.42980903930664,142.11415427734374,19.37050903930664Q142.09393427734375,19.38580903930664,142.05626427734376,19.41440903930664Q141.39437427734376,19.91730903930664,141.04457427734374,20.119609039306642Q140.87967427734375,20.21490903930664,140.76259427734374,20.26360903930664Q140.27935227734375,19.73320903930664,140.69852427734375,16.32880903930664Q141.24372427734374,11.90084903930664,143.67638427734374,3.517800039306641L141.75562427734374,2.9604180393066404Q136.59577427734376,20.741509039306642,140.12158427734374,22.19630903930664Q141.15257427734375,22.61270903930664,143.26613427734375,21.00700903930664Q143.30392427734375,20.97830903930664,143.31785427734374,20.96770903930664Z" fill-rule="evenodd" fill="#FFFFFF" fill-opacity="1"/></g><g><path d="M154.003636015625,11.305094844970704Q152.932596015625,8.932957844970703,150.827306015625,8.610620844970704Q148.722696015625,8.288374844970702,146.989766015625,10.230895844970703Q145.419343015625,11.991244844970703,145.007814015625,14.695654844970704Q144.587446015625,17.402834844970705,145.558313015625,19.553114844970704Q146.629353015625,21.925234844970703,148.734636015625,22.247634844970705Q150.839246015625,22.569834844970703,152.572186015625,20.627334844970704Q154.142606015625,18.866964844970703,154.554136015625,16.162544844970704Q154.974506015625,13.455364844970703,154.003636015625,11.305094844970704ZM148.482196015625,11.562304844970702Q149.492706015625,10.429582844970703,150.52461601562499,10.587584844970703Q151.556606015625,10.745584844970704,152.180826015625,12.128114844970703Q152.906916015625,13.736264844970703,152.577816015625,15.855664844970704Q152.254736015625,17.978824844970703,151.079756015625,19.295904844970703Q150.069246015625,20.428634844970702,149.037336015625,20.2706348449707Q148.005346015625,20.112634844970703,147.381126015625,18.7300948449707Q146.655030015625,17.121944844970702,146.984126015625,15.002544844970704Q147.307216015625,12.879384844970703,148.482196015625,11.562304844970702Z" fill-rule="evenodd" fill="#FFFFFF" fill-opacity="1"/></g><g><path d="M155.32236216796875,20.809347513427735L158.64237216796874,16.719343513427734L157.08956216796875,15.458871513427734L153.76955216796875,19.548877513427733Q153.69280216796875,19.643197513427733,153.61983216796875,19.730677513427736Q153.79788216796874,19.010097513427734,154.11598216796875,17.918997513427733L152.19591216796874,17.359227513427733Q151.11514216796874,21.066327513427733,151.66121916796874,22.064177513427733Q152.04906516796876,22.772897513427736,152.84412616796874,22.733177513427734Q153.30062216796875,22.710377513427733,153.78747216796876,22.369647513427736Q154.40359216796875,21.938437513427736,155.32236216796875,20.809347513427735Z" fill-rule="evenodd" fill="#FFFFFF" fill-opacity="1"/></g><g><path d="M170.512157265625,19.433808276367188L170.189787265625,20.486208276367186L172.102077265625,21.072008276367185L172.459717265625,19.90450827636719L172.470307265625,19.845308276367188Q173.779647265625,12.531648276367187,173.244387265625,9.047268276367188Q172.859087265625,6.5391082763671875,171.108477265625,6.5391082763671875Q169.834907265625,6.5391082763671875,168.106827265625,8.354608276367188L166.909627265625,8.838578276367187L163.630276265625,21.02930827636719L165.561618265625,21.548908276367186L168.582317265625,10.319628276367187L169.269037265625,10.042028276367187L169.421287265625,9.876838276367188Q170.560417265625,8.640908276367188,171.034827265625,8.546858276367187Q171.179757265625,8.779298276367188,171.267577265625,9.350948276367188Q171.750287265625,12.493228276367187,170.512157265625,19.433808276367188Z" fill-rule="evenodd" fill="#FFFFFF" fill-opacity="1"/></g><g><path d="M186.43397412109374,13.736117293701172Q186.29407412109376,12.789107293701171,185.35597412109374,12.789107293701171L185.35597412109374,14.789107293701171Q184.56777412109375,14.789107293701171,184.45547412109374,14.02833729370117Q184.43987412109374,13.922817293701172,184.44197412109375,13.91449729370117Q184.36907412109375,14.200317293701172,184.06627412109376,14.863927293701172Q183.40287412109376,16.317477293701174,181.76238412109376,19.26250729370117Q180.92407412109375,20.767407293701172,180.69895412109375,20.737007293701172Q180.56471412109374,20.71890729370117,180.24647412109374,19.601407293701172Q179.34171412109376,16.424547293701174,179.80132412109376,11.675427293701173Q180.13149412109374,8.263640393701172,177.99125412109376,7.501984293701172Q176.17007412109376,6.853877293701172,172.71531112109375,8.696792293701172L173.65663712109375,10.461417293701171Q176.33188412109374,9.034332293701173,177.32070412109374,9.386227293701172Q177.99044412109376,9.624567293701173,177.81062412109375,11.482777293701172Q177.31457412109376,16.608487293701174,178.32296412109375,20.149207293701174Q178.99978412109374,22.52580729370117,180.43144412109376,22.71900729370117Q182.00776412109374,22.93180729370117,183.50957412109375,20.23570729370117Q185.18907412109374,17.220747293701173,185.88567412109376,15.694287293701173Q186.26287412109374,14.867897293701173,186.37997412109374,14.408717293701173Q186.47707412109375,14.027897293701173,186.43397412109374,13.736117293701172Z" fill-rule="evenodd" fill="#FFFFFF" fill-opacity="1"/></g><g transform="matrix(0.2200164645910263,-0.9754961729049683,0.9754961729049683,0.2200164645910263,128.31601689294575,192.6983790925412)"><ellipse cx="188.52832508087158" cy="18.729172706604004" rx="3.869999885559082" ry="2.619999885559082" fill-opacity="0" stroke-opacity="1" stroke="#FFFFFF" fill="none" stroke-width="2"/></g><g><path d="M191.80744970703125,21.258862701416014Q195.87742970703124,16.622992701416017,195.52459970703126,14.943515701416016L193.56731970703126,15.354709701416015Q193.71448970703125,16.055223701416015,190.30448970703125,19.939362701416016Q189.05036970703125,21.367842701416016,188.53753970703124,20.976582701416014Q187.60105970703125,20.262102701416016,187.02366270703126,16.612832701416014L185.04823770703126,16.925392701416015Q185.75086570703124,21.366122701416018,187.32439970703126,22.566642701416015Q189.32157970703125,24.090372701416015,191.80744970703125,21.258862701416014Z" fill-rule="evenodd" fill="#FFFFFF" fill-opacity="1"/></g><g transform="matrix(0.3295258581638336,-0.9441465735435486,0.9441465735435486,0.3295258581638336,115.118728429258,193.88160924768465)"><ellipse cx="198.24921369552612" cy="18.35700488090515" rx="4.179999828338623" ry="2.4700000286102295" fill-opacity="0" stroke-opacity="1" stroke="#FFFFFF" fill="none" stroke-width="2"/></g><g><path d="M206.5877994140625,11.474576516113281L208.5477994140625,3.384574516113281L206.6039994140625,2.9136585161132813L204.6439994140625,11.003656516113281Q203.4738694140625,15.82771651611328,202.1761494140625,17.328716516113282Q201.3236594140625,18.314816516113282,198.4169194140625,19.32961651611328Q197.5159894140625,19.644116516113282,197.0097094140625,19.83101651611328Q195.2768994140625,20.470516516113282,195.0252094140625,20.14151651611328Q194.6622244140625,19.667016516113282,195.4919494140625,17.461216516113282L193.6199924140625,16.757016516113282Q192.3997294140625,20.00121651611328,193.4367364140625,21.35671651611328Q194.5850364140625,22.857716516113282,197.7021994140625,21.70721651611328Q198.1918794140625,21.526516516113283,199.0761194140625,21.21781651611328Q202.4872494140625,20.02701651611328,203.6891294140625,18.63671651611328Q205.3033994140625,16.76951651611328,206.5877994140625,11.474576516113281Z" fill-rule="evenodd" fill="#FFFFFF" fill-opacity="1"/></g><g><line x1="202.71600341796875" y1="9.029109954833984" x2="209.35600328445435" y2="9.029109954833984" fill-opacity="0" stroke-opacity="1" stroke="#FFFFFF" fill="none" stroke-width="2"/></g><g><path d="M210.76072482421876,13.49523343774414Q210.49414482421875,13.87565104074414,209.86292482421874,14.90712743774414L210.09028482421874,15.04625743774414Q209.63510482421876,15.927097437744141,208.89343482421876,17.31879743774414Q207.47570482421875,19.97910743774414,206.60842482421876,19.97910743774414Q205.82611482421876,19.97910743774414,204.83849882421876,17.42807743774414L202.97339082421874,18.150137437744142Q204.45574882421874,21.97910743774414,206.60842482421876,21.97910743774414Q208.67614482421874,21.97910743774414,210.65844482421875,18.25940743774414Q212.38449482421876,15.02054743774414,212.63996482421874,14.379118437744141Q212.70380482421876,14.21882243774414,212.72817482421874,14.09427443774414Q212.78693482421875,13.79400703774414,212.68002482421875,13.51803343774414Q212.49128482421875,13.03080843774414,211.98487482421876,12.90492743774414Q211.64308482421876,12.81996743774414,211.32116482421876,12.96710443774414Q211.04110482421876,13.09510943774414,210.76072482421876,13.49523343774414Z" fill-rule="evenodd" fill="#FFFFFF" fill-opacity="1"/></g><g><path d="M224.8597312109375,21.141660546875002L229.3358912109375,19.630260546875L228.6960912109375,17.735390546875L225.4913912109375,18.817460546874997L228.1194912109375,9.147987546875001L226.1989912109375,8.590791546875L222.7576612109375,19.740560546875003L221.3854112109375,20.203860546875Q220.8023812109375,16.432110546875002,220.5289512109375,8.266092746875L218.5300712109375,8.333024546875Q218.8164412109375,16.885470546875,219.4710112109375,20.850260546875L219.4583412109375,20.854560546875L219.4589012109375,20.856260546875Q218.3519712109375,21.291060546875002,215.0155297519375,27.192360546875Q214.0975522109375,28.815960546875,214.0229582109375,29.905860546875Q213.9157812109375,31.471760546875,215.2489392109375,32.054860546875Q216.9982212109375,32.819860546875,221.7441812109375,31.027360546875L222.2219112109375,30.846960546875L224.8597312109375,21.141660546875002ZM221.9285912109375,22.131360546875L221.7929612109375,22.177160546875Q221.8155312109375,22.255160546875,221.8384512109375,22.328260546875Q221.8826512109375,22.235960546875,221.9285912109375,22.131360546875ZM219.9164612109375,22.881560546875Q219.9493012109375,22.989560546874998,219.9828112109375,23.089160546875Q220.3329012109375,24.129560546875,220.8632512109375,24.544260546875Q221.3150012109375,24.897360546875,221.7681712109375,24.890960546875L220.5607312109375,29.333360546875Q216.9920112109375,30.634260546875,216.0503112109375,30.222360546875Q216.0072622109375,30.203560546875,216.0182912109375,30.042460546875Q216.0619012109375,29.405260546875,216.7565312109375,28.176660546875Q219.3703112109375,23.553560546874998,219.9164612109375,22.881560546875Z" fill-rule="evenodd" fill="#FFFFFF" fill-opacity="1"/></g><g transform="matrix(0.2200164645910263,-0.9754961729049683,0.9754961729049683,0.2200164645910263,159.32848638889527,240.87702956078664)"><ellipse cx="236.83217525482178" cy="23.35543131828308" rx="6.539999961853027" ry="2.549999952316284" fill-opacity="0" stroke-opacity="1" stroke="#FFFFFF" fill="none" stroke-width="2"/></g><g><path d="M253.8189912109375,22.147830546875L257.7105912109375,18.390690546875L256.3213912109375,16.951850546875L252.4332912109375,20.705730546875Q252.4779912109375,19.639550546875,252.8960912109375,17.148050546874998Q253.2542912109375,15.013630546875,253.3156912109375,14.195290546875Q253.4811912109375,11.988912546875,252.1841912109375,11.799754546875Q250.7349912109375,11.588394546875,250.0742912109375,13.927970546875Q249.1042912109375,17.363040546875,246.7696112109375,19.937940546874998Q246.0773612109375,20.701440546875,245.7433612109375,20.829150546875Q245.6902112109375,20.736920546874998,245.6295812109375,20.557440546875Q244.9988112109375,18.690060546875,245.6973012109375,12.410102546875L243.7134012109375,12.158684546875Q242.8715912109375,18.074640546875,241.4265112109375,19.065650546875Q240.1983312109375,19.907910546875,237.6001272109375,18.038020546875L236.4318552109375,19.661340546875Q240.1706012109375,22.352060546875002,242.5576412109375,20.715060546875Q243.0313512109375,20.390200546875,243.4476712109375,19.812890546875Q243.5457212109375,20.637840546874997,243.7347612109375,21.197480546875Q244.3390312109375,22.986460546875,245.8343812109375,22.844860546874997Q246.9275212109375,22.741260546875,248.2512912109375,21.281350546875Q249.7865912109375,19.588050546875,250.8007912109375,17.571150546875Q250.3640912109375,20.341030546875,250.4419912109375,21.328240546875Q250.5625912109375,22.857660546875,251.6472912109375,23.108360546874998Q252.5947912109375,23.327460546875002,253.8189912109375,22.147830546875Z" fill-rule="evenodd" fill="#FFFFFF" fill-opacity="1"/></g><g transform="matrix(-0.299549400806427,0.9540808200836182,-0.9540808200836182,-0.299549400806427,342.3426108590611,-250.73608686286025)"><line x1="263.21185302734375" y1="-0.700439453125" x2="281.97336769104004" y2="-0.700439453125" fill-opacity="0" stroke-opacity="1" stroke="#FFFFFF" fill="none" stroke-width="2"/></g><g><ellipse cx="258.3459838628769" cy="21.52910840511322" rx="0.8999999761581421" ry="0.8999999761581421" fill-opacity="0" stroke-opacity="1" stroke="#FFFFFF" fill="none" stroke-width="2"/></g></g><g transform="matrix(1,-0.005340797360986471,0.005340797360986471,1,-0.07820122936430529,0.000085405817173978)"><line x1="0.0159912109375" y1="13.14223861694336" x2="53.284873962402344" y2="13.14223861694336" fill-opacity="0" stroke-opacity="1" stroke="#FFFFFF" fill="none" stroke-width="3"/></g><g transform="matrix(1,-0.0053416364826262,0.0053416364826262,1,-0.07790013212479607,1.5865514545757264)"><line x1="297.0159912109375" y1="13.08357048034668" x2="350.2765312194824" y2="13.08357048034668" fill-opacity="0" stroke-opacity="1" stroke="#FFFFFF" fill="none" stroke-width="3"/></g></g></svg>