<svg xmlns="http://www.w3.org/2000/svg" xmlns:xlink="http://www.w3.org/1999/xlink" fill="none" version="1.1" width="883.5700073242188" height="606.719970703125" viewBox="0 0 883.5700073242188 606.719970703125"><defs><filter id="master_svg0_107_261" filterUnits="objectBoundingBox" color-interpolation-filters="sRGB" x="-20" y="-16" width="883.5700073242188" height="606.719970703125"><feFlood flood-opacity="0" result="BackgroundImageFix"/><feColorMatrix in="SourceAlpha" type="matrix" values="0 0 0 0 0 0 0 0 0 0 0 0 0 0 0 0 0 0 127 0"/><feOffset dy="4" dx="0"/><feGaussianBlur stdDeviation="5"/><feColorMatrix type="matrix" values="0 0 0 0 0 0 0 0 0 0 0 0 0 0 0 0 0 0 0.30000001192092896 0"/><feBlend mode="normal" in2="BackgroundImageFix" result="effect1_dropShadow"/><feBlend mode="normal" in="SourceGraphic" in2="effect1_dropShadow" result="shape"/></filter><clipPath id="master_svg1_107_261"><rect x="20" y="16" width="843.5700073242188" height="566.719970703125" rx="0"/></clipPath></defs><g filter="url(#master_svg0_107_261)"><g clip-path="url(#master_svg1_107_261)"><g><path d="M20,32.380009152221675L20,571.6397091522217Q180.67,584.2497091522217,199.24,582.5697091522217C217.81,580.8897091522217,485.41,567.4297091522217,518.3299999999999,563.2297091522216C551.25,559.0297091522217,835.73,553.1397091522217,853.46,564.9097091522217Q871.19,576.6797091522217,860.21,412.7197091522217L860.21,32.380009152221675Q860.21,25.08999915222168,820.53,19.20999915222168Q518.3199999999999,8.27999915222168,436.44,26.78000915222168C354.57,45.270009152221675,74.31,41.07000915222168,56.58,34.34000915222168C38.85,27.62000915222168,20,26.21000915222168,20,32.380009152221675Z" fill="#FFFFFF" fill-opacity="1"/></g><g><path d="M48.591098507080076,53.57333070373535Q44.47993850708008,54.79743070373535,44.47993850708008,57.960030703735356L44.47996850708008,57.96913070373535L44.48002850708008,57.97913070373535L44.479998507080076,550.5908307037354L45.86654050708008,550.6958307037353Q197.45393850708007,562.1958307037354,215.09093850708007,560.6548307037353Q221.08593850708007,560.1308307037353,297.88493850708005,556.0498307037353Q495.55793850708005,545.5428307037354,515.96393850708,543.0288307037354Q527.8039385070801,541.5678307037354,575.9349385070801,540.1548307037353Q625.51093850708,538.7008307037354,679.1339385070801,538.3488307037353Q820.1439385070801,537.4218307037354,830.90993850708,544.3328307037353Q833.8429385070801,546.2148307037353,836.33293850708,544.4798307037354Q838.4029385070801,543.0368307037354,839.8049385070801,538.9068307037353Q842.3599385070801,531.3818307037354,843.1659385070801,513.8388307037353Q844.7629385070801,479.11283070373537,839.5899385070801,404.37883070373533L839.5899385070801,57.970030703735354Q839.5899385070801,50.02975070373535,800.9029385070801,44.48517070373535L800.82293850708,44.47373070373535L800.74193850708,44.47092070373535Q515.6519385070801,34.50430070373535,438.2699385070801,51.39450070373535Q386.5419385070801,62.686430703735354,236.84293850708008,63.42253070373535Q179.27093850708007,63.70563070373535,132.67163850708008,62.129930703735354Q87.11343850708008,60.58943070373535,80.98663850708007,58.34173070373535Q68.06033850708008,53.59983070373535,57.04633850708008,52.95503070373535Q51.715558507080075,52.64303070373535,48.591098507080076,53.57333070373535ZM47.479998507080076,547.8098307037353L47.47996850708008,57.960830703735354L47.47994850708008,57.95653070373535Q47.48360850708008,57.033230703735356,49.44721850708008,56.44853070373535Q52.066468507080074,55.66863070373535,56.87103850708008,55.94993070373535Q67.44293850708007,56.56883070373535,79.95343850708008,61.158230703735356Q86.53193850708007,63.57143070373535,132.5702385070801,65.12823070373535Q179.22793850708007,66.70583070373536,236.8569385070801,66.42253070373535Q386.87293850708005,65.68483070373534,438.9099385070801,54.32553070373535Q515.9069385070801,37.51806070373535,800.5569385070801,47.466270703735354Q836.5899385070801,52.636330703735354,836.5899385070801,57.970030703735354L836.5899385070801,404.48183070373534L836.5939385070801,404.53383070373536Q841.7569385070801,479.13583070373534,840.16893850708,513.7008307037354Q839.3829385070801,530.8188307037353,836.9639385070801,537.9428307037354Q835.8789385070801,541.1388307037354,834.61693850708,542.0178307037354Q833.7739385070801,542.6058307037354,832.52993850708,541.8078307037354Q821.01493850708,534.4218307037354,679.1139385070801,535.3488307037353Q625.4589385070801,535.7008307037354,575.84693850708,537.1568307037353Q527.5749385070801,538.5728307037353,515.5959385070801,540.0508307037353Q495.2919385070801,542.5588307037353,297.72593850708006,553.0538307037353Q220.87393850708008,557.1378307037354,214.82893850708007,557.6658307037353Q197.51693850708008,559.1768307037354,47.479998507080076,547.8098307037353Z" fill-rule="evenodd" fill="#000000" fill-opacity="1"/></g></g></g></svg>