<svg xmlns="http://www.w3.org/2000/svg" xmlns:xlink="http://www.w3.org/1999/xlink" fill="none" version="1.1" width="844.4091796875" height="567.61669921875" viewBox="0 0 844.4091796875 567.61669921875"><g><g><path d="M0,17.2293L0,556.489Q160.67,569.099,179.24,567.419C197.81,565.739,465.41,552.279,498.33,548.079C531.25,543.879,815.73,537.989,833.46,549.759Q851.19,561.529,840.21,397.569L840.21,17.2293Q840.21,9.93929,800.53,4.05929Q498.32,-6.87071,416.44,11.6293C334.57,30.1193,54.31,25.9193,36.58,19.1893C18.85,12.4693,0,11.0593,0,17.2293Z" fill="#FFFFFF" fill-opacity="1"/></g><g><path d="M28.591098507080076,38.422640625Q24.479938507080078,39.646740625,24.479938507080078,42.809340625000004L24.479968507080077,42.818440625L24.48002850708008,42.828440625L24.47999850708008,535.440140625L25.866540507080078,535.5451406249999Q177.45393850708007,547.045140625,195.09093850708007,545.504140625Q201.08593850708007,544.980140625,277.88493850708005,540.899140625Q475.55793850708005,530.392140625,495.96393850708006,527.878140625Q507.8039385070801,526.417140625,555.9349385070801,525.004140625Q605.51093850708,523.550140625,659.1339385070801,523.198140625Q800.1439385070801,522.271140625,810.90993850708,529.182140625Q813.8429385070801,531.0641406249999,816.33293850708,529.329140625Q818.4029385070801,527.886140625,819.8049385070801,523.756140625Q822.3599385070801,516.2311406250001,823.1659385070801,498.688140625Q824.7629385070801,463.962140625,819.5899385070801,389.228140625L819.5899385070801,42.819340625Q819.5899385070801,34.879060625,780.9029385070801,29.334480625L780.82293850708,29.323040625L780.74193850708,29.320230625Q495.6519385070801,19.353610625,418.2699385070801,36.243810625Q366.5419385070801,47.535740625,216.84293850708008,48.271840624999996Q159.27093850708007,48.554940625,112.67163850708008,46.979240625Q67.11343850708008,45.438740625,60.98663850708008,43.191040625Q48.060338507080075,38.449140625,37.04633850708008,37.804340625Q31.71555850708008,37.492340625,28.591098507080076,38.422640625ZM27.47999850708008,532.659140625L27.479968507080077,42.810140625L27.479948507080078,42.805840625Q27.483608507080078,41.882540625000004,29.447218507080077,41.297840625Q32.066468507080074,40.517940625,36.87103850708008,40.799240624999996Q47.44293850708008,41.418140625,59.95343850708008,46.007540625000004Q66.53193850708007,48.420740625,112.57023850708008,49.977540625Q159.22793850708007,51.555140625,216.8569385070801,51.271840624999996Q366.87293850708005,50.534140625,418.9099385070801,39.174840625Q495.9069385070801,22.367370625,780.5569385070801,32.315580625Q816.5899385070801,37.485640625,816.5899385070801,42.819340625L816.5899385070801,389.331140625L816.5939385070801,389.383140625Q821.7569385070801,463.985140625,820.16893850708,498.550140625Q819.3829385070801,515.668140625,816.9639385070801,522.792140625Q815.8789385070801,525.988140625,814.61693850708,526.867140625Q813.7739385070801,527.455140625,812.52993850708,526.657140625Q801.01493850708,519.271140625,659.1139385070801,520.198140625Q605.4589385070801,520.550140625,555.84693850708,522.006140625Q507.5749385070801,523.422140625,495.59593850708006,524.900140625Q475.2919385070801,527.408140625,277.72593850708006,537.903140625Q200.87393850708008,541.987140625,194.82893850708007,542.515140625Q177.51693850708008,544.026140625,27.47999850708008,532.659140625Z" fill-rule="evenodd" fill="#000000" fill-opacity="1"/></g></g></svg>