<svg xmlns="http://www.w3.org/2000/svg" xmlns:xlink="http://www.w3.org/1999/xlink" fill="none" version="1.1" width="126.84224700927734" height="34.035919189453125" viewBox="0 0 126.84224700927734 34.035919189453125"><g><path d="M0.5203588,22.8586Q0.38815,26.7086,12.4593,29.0086Q31.6695,35.1386,50.6255,32.9686Q66.917,21.3486,67.9238,20.0786C68.9305,18.7986,120.988,20.7186,125.788,11.0186Q128.127,9.9986,120.592,7.69858Q98.3917,-0.09143100000000004,81.256,0.548584Q69.8356,0.288574,63.856,10.8886Q58.7916,12.0386,58.2729,13.8286Q1.80172,14.4286,0.5,22.8686L0.5203588,22.8586Z" fill="#313131" fill-opacity="1"/><path d="M0.102514,23.6203L-0.140193,23.7392L0.005838999999999983,22.7924Q1.368067,13.9591,57.9347,13.3322Q58.8424,11.5502,63.5299,10.4507Q69.6476,-0.20882500000000004,81.2523,0.048375Q98.4737,-0.5911,120.748,7.2234Q124.573,8.3915,125.928,9.25724Q126.782,9.80324,126.838,10.38044Q126.899,11.0104,126.154,11.3979Q123.536,16.157400000000003,106.312,18.2339Q96.6504,19.3986,77.7032,19.958Q68.4397,20.2315,68.3156,20.3892Q67.2648,21.7147,50.9158,33.3757L50.8107,33.4507L50.6823,33.4654Q31.6339,35.6458,12.3361,29.4941Q1.033499,27.3359,0.102514,23.6203ZM1.022958,22.7915L1.020064,22.8758Q0.902559,26.2976,12.5529,28.5174L12.5826,28.5231L12.6113,28.5323Q31.6543,34.6088,50.4404,32.4864Q66.5722,20.9787,67.532,19.768Q67.9427,19.2457,77.6737,18.9584Q121.948,17.6514,125.34,10.7968L125.421,10.6332L125.588,10.5603Q125.747,10.49129,125.821,10.43133Q125.744,10.32645,125.389,10.09994Q124.148,9.30683,120.446,8.1768L120.436,8.17379L120.426,8.17037Q98.3154,0.4117432,81.2746,1.048236L81.2596,1.048797L81.2446,1.048454Q70.1239,0.795267,64.2915,11.1342L64.1827,11.3271L63.9667,11.3762Q59.1898,12.4609,58.7532,13.9677L58.6498,14.3246L58.2783,14.3286Q2.76945,14.9184,1.022958,22.7915Z" fill-rule="evenodd" fill="#313131" fill-opacity="1"/></g></svg>