<svg xmlns="http://www.w3.org/2000/svg" xmlns:xlink="http://www.w3.org/1999/xlink" fill="none" version="1.1" width="109.95587158203125" height="100.300048828125" viewBox="0 0 109.95587158203125 100.300048828125"><g><g><ellipse cx="58.972801208496094" cy="50.150001525878906" rx="49.983055114746094" ry="49.150001525878906" fill="#A34435" fill-opacity="1"/><ellipse cx="58.972801208496094" cy="50.150001525878906" rx="49.983055114746094" ry="49.150001525878906" fill-opacity="0" stroke-opacity="1" stroke="#313131" fill="none" stroke-width="2"/></g><g><ellipse cx="13.586441040039062" cy="36.32001876831055" rx="13.586441040039062" ry="18.549999237060547" fill="#FFFFFF" fill-opacity="1"/></g><g><ellipse cx="15.569428443908691" cy="35.5298433303833" rx="7.871186256408691" ry="14.4399995803833" fill="#1D1D1D" fill-opacity="1"/><ellipse cx="15.569428443908691" cy="35.5298433303833" rx="7.871186256408691" ry="14.4399995803833" fill-opacity="0" stroke-opacity="1" stroke="#313131" fill="none" stroke-width="1"/></g><g><ellipse cx="20.237236261367798" cy="29.69003915786743" rx="2.684746026992798" ry="3.1500000953674316" fill="#FFFFFF" fill-opacity="1"/></g><g><ellipse cx="57.28468322753906" cy="35.94990158081055" rx="13.586441040039062" ry="18.549999237060547" fill="#FFFFFF" fill-opacity="1"/></g><g><ellipse cx="59.26779270172119" cy="35.55000972747803" rx="7.871186256408691" ry="14.039999961853027" fill="#1D1D1D" fill-opacity="1"/><ellipse cx="59.26779270172119" cy="35.55000972747803" rx="7.871186256408691" ry="14.039999961853027" fill-opacity="0" stroke-opacity="1" stroke="#313131" fill="none" stroke-width="1"/></g><g transform="matrix(0.9857937097549438,-0.16796094179153442,0.1735326498746872,0.9848281145095825,-3.7738763163797557,10.60506444470957)"><ellipse cx="63.410014629364014" cy="29.8703191280365" rx="2.6834521293640137" ry="3.151569128036499" fill="#FFFFFF" fill-opacity="1"/></g><g><path d="M23.440673828125,45.259888109375Q24.305055828125,56.579912109375,34.515273828125004,56.149912109375Q47.847473828125004,57.169912109375,47.583073828124995,46.019902109375L47.583073828124995,44.909912109375L23.440673828125,45.249939109375L23.440673828125,45.259888109375Z" fill="#313131" fill-opacity="1"/><path d="M48.083073828124995,44.402820109375L22.940673828125,44.756931109375L22.940673828125,45.278950109375L22.942124828125,45.297956109375Q23.842045828125,57.083412109375004,34.506573828125,56.650712109375Q41.342773828125004,57.167412109375,44.754673828125,54.522582109375Q48.219273828125,51.836792109375,48.083073828124995,46.014032109375L48.083073828124995,44.402820109375ZM23.984739828125,45.742326109375Q25.003383828125,56.050012109375004,34.494273828125,55.650312109375L34.523873828125,55.649112109375L34.553373828125004,55.651312109375Q41.027373828125,56.146712109375,44.141973828125,53.732242109375Q47.209373828124995,51.354392109375,47.083173828125,46.031752109375L47.083073828124995,46.025822109375L47.083073828124995,45.417004109375L23.984739828125,45.742326109375Z" fill-rule="evenodd" fill="#313131" fill-opacity="1"/></g></g></svg>