<svg xmlns="http://www.w3.org/2000/svg" xmlns:xlink="http://www.w3.org/1999/xlink" fill="none" version="1.1" width="447.409912109375" height="147.286865234375" viewBox="0 0 447.409912109375 147.286865234375"><g><g><ellipse cx="403.9993896484375" cy="118.786865234375" rx="29.5" ry="7.5" fill="#546635" fill-opacity="1"/></g><g><path d="M402.0287896484375,36.503905234375C399.72028964843753,38.503905234375,397.2897896484375,40.763915234375,394.8185896484375,43.323915234375C392.1236896484375,46.113865234375,389.7745896484375,48.843965234375,387.7406896484375,51.413965234375C387.6389896484375,51.683965234374995,387.2830896484375,52.743965234375,387.7610896484375,53.953965234375005C388.2593896484375,55.223965234375,389.3068896484375,55.783965234375,389.5508896484375,55.903965234375Q376.4016896484375,66.01396523437501,377.0728896484375,69.833965234375C377.0728896484375,70.38386523437501,377.1339896484375,71.60396523437501,377.9372896484375,72.79396523437501C379.3610896484375,74.923965234375,381.8932896484375,75.153965234375,382.2287896484375,75.173965234375C377.8558896484375,79.943965234375,374.0931896484375,83.62396523437499,371.4389796484375,86.113965234375C365.0626796484375,92.10396523437501,361.3609746484375,94.783965234375,361.5033621084375,98.943965234375C361.5135415484375,99.26396523437501,361.6559296484375,102.163965234375,363.7914996484375,104.193965234375C365.6830096484375,105.983965234375,368.1846596484375,106.193965234375,369.5982396484375,106.283965234375C378.5270896484375,106.874065234375,394.7982896484375,106.173965234375,395.9372896484375,106.124065234375C395.8253896484375,106.363965234375,395.72368964843747,106.603965234375,395.6118896484375,106.834065234375L395.4389896484375,113.264065234375Q394.5948896484375,115.254065234375,399.9948896484375,115.423965234375Q405.39488964843747,115.593965234375,411.2931896484375,115.423965234375Q413.3168896484375,114.764065234375,412.9812896484375,106.963965234375C422.9982896484375,106.573965234375,433.0151896484375,106.183965234375,443.0423896484375,105.783965234375C444.29318964843753,104.783965234375,447.0084896484375,102.333965234375,446.9068896484375,99.153965234375C446.8457896484375,97.033965234375,445.5543896484375,95.483965234375,444.8525896484375,94.684065234375Q439.2898896484375,88.384065234375,427.4831896484375,75.983965234375Q434.0627896484375,71.134065234375,429.6797896484375,67.824065234375L418.8899896484375,55.554065234375Q422.2661896484375,52.903965234375,420.9136896484375,50.913965234375C415.7881896484375,45.763965234375,410.6628896484375,40.614015234375,405.5373896484375,35.473999234375C405.2526896484375,35.374023434375,404.6933896484375,35.213989234375,404.0119896484375,35.323974634375C402.8526896484375,35.503967234375,402.1915896484375,36.293945234375,402.0289896484375,36.493955234375L402.0287896484375,36.503905234375Z" fill="#617C36" fill-opacity="1"/><path d="M401.6417896484375,36.177690234375Q397.8286896484375,39.485605234375,394.4588896484375,42.976665234375Q390.7033896484375,46.864565234375,387.3485896484375,51.103665234375L387.3002896484375,51.164765234375L387.2727896484375,51.237765234375004Q386.7250896484375,52.692265234375,387.2959896484375,54.137565234375Q387.7406896484375,55.270965234375,388.6690896484375,55.953465234375Q375.9433896484375,65.836865234375,376.5729896484375,69.87566523437499Q376.5837896484375,71.682465234375,377.5228896484375,73.073665234375Q378.8651896484375,75.081765234375,381.2052896484375,75.547465234375Q376.1844896484375,80.976465234375,371.0968796484375,85.749265234375Q370.1759696484375,86.61446523437499,368.5035596484375,88.153265234375Q364.2225996484375,92.092365234375,362.9434596484375,93.73746523437501Q360.9141906484375,96.34736523437499,361.0036536484375,98.961065234375Q361.1110046484375,102.335865234375,363.4470096484375,104.556365234375Q365.5281696484375,106.525865234375,369.5664596484375,106.782965234375Q378.4330896484375,107.368765234375,395.1410896484375,106.658865234375L395.1149896484375,106.712565234375L394.9415896484375,113.160965234375Q394.4201896484375,114.529465234375,395.9416896484375,115.250865234375Q397.17498964843753,115.835465234375,399.9790896484375,115.923765234375Q405.3942896484375,116.094165234375,411.3075896484375,115.923765234375L411.3795896484375,115.921765234375L411.4481896484375,115.899365234375Q413.7585896484375,115.145965234375,413.5000896484375,107.444065234375L443.2262896484375,106.277165234375L443.35458964843747,106.174565234375Q447.5249896484375,102.840365234375,447.4065896484375,99.138065234375Q447.3380896484375,96.759265234375,445.2284896484375,94.35426523437499Q439.7493896484375,88.148865234375,428.2316896484375,76.045265234375Q431.2505896484375,73.708065234375,431.8048896484375,71.648965234375Q432.4364896484375,69.303165234375,430.0221896484375,67.456265234375L419.6083896484375,55.613865234375Q422.8499896484375,52.873465234375004,421.3271896484375,50.632965234375L421.3009896484375,50.594265234375L405.8109896484375,35.040120234375L405.7030896484375,35.002227234375Q404.8099896484375,34.688700234375,403.9322896484375,34.830363234375Q402.5650896484375,35.042633234375,401.6417896484375,36.177690234375ZM402.5244896484375,36.683615234375L402.5230896484375,36.737175234375L402.3561896484375,36.881805234375Q398.5434896484375,40.184965234375,395.1783896484375,43.671165234374996Q391.4849896484375,47.494865234375,388.1827896484375,51.661065234375Q387.8107896484375,52.718865234375,388.2260896484375,53.770265234375Q388.6758896484375,54.916565234375,389.7714896484375,55.455265234375L390.4932896484375,55.810065234375L389.8556896484375,56.300265234375004Q376.9465896484375,66.225665234375,377.5653896484375,69.747365234375L377.5728896484375,69.790365234375L377.5728896484375,69.833965234375Q377.5728896484375,71.360465234375,378.3516896484375,72.514165234375Q379.6936896484375,74.521865234375,382.2585896484375,74.674865234375L383.3072896484375,74.737365234375L382.5973896484375,75.511865234375Q377.2281896484375,81.368565234375,371.7810896484375,86.478565234375Q370.8570996484375,87.34656523437499,369.1806796484375,88.889165234375Q364.9609496484375,92.771865234375,363.7328996484375,94.35136523437501Q361.9259976484375,96.675165234375,362.0030676484375,98.926865234375Q362.0974496484375,101.893765234375,364.1359796484375,103.831565234375Q365.9527596484375,105.550865234375,369.6300196484375,105.784965234375Q378.6599896484375,106.381665234375,395.9152896484375,105.624465234375L396.7384896484375,105.588365234375L396.3904896484375,106.335265234375Q396.3460896484375,106.430365234375,396.2595896484375,106.623265234375Q396.1696896484375,106.823565234375,396.1088896484375,106.953365234375L395.9361896484375,113.372165234375L395.8992896484375,113.459265234375Q395.6644896484375,114.012665234375,396.3700896484375,114.347265234375Q397.4148896484375,114.842565234375,400.01058964843753,114.924265234375Q405.3587896484375,115.092565234375,411.1982896484375,114.926565234375Q412.7951896484375,114.270665234375,412.4817896484375,106.985465234375L412.4601896484375,106.484065234375L442.8572896484375,105.290865234375Q446.5076896484375,102.317565234375,446.4070896484375,99.169965234375Q446.34888964843753,97.147965234375,444.4766896484375,95.013765234375Q438.9204896484375,88.72116523437501,427.12108964843753,76.328765234375L426.7299896484375,75.918065234375L427.1864896484375,75.581565234375Q430.3355896484375,73.260265234375,430.8392896484375,71.38906523437501Q431.3007896484375,69.674765234375,429.3784896484375,68.223065234375L429.3378896484375,68.192365234375L418.1653896484375,55.487165234375L418.5812896484375,55.160665234375Q421.5558896484375,52.825965234375005,420.5245896484375,51.231765234375004L405.2670896484375,35.911062234375Q404.6681896484375,35.724537234375,404.0916896484375,35.817586234375Q403.17498964843753,35.959922234375,402.5244896484375,36.683615234375Z" fill-rule="evenodd" fill="#000000" fill-opacity="1"/></g><g><ellipse cx="56.9993896484375" cy="121.786865234375" rx="40.5" ry="9.5" fill="#546635" fill-opacity="1"/></g><g><path d="M54.2602896484375,11.908875234375C51.1992896484375,14.558895234375,47.9754896484375,17.558895234375,44.7008896484375,20.948865234375C41.1212896484375,24.648865234375002,38.0094896484375,28.268865234375,35.3042896484375,31.678865234375C35.1720896484375,32.038865234374995,34.7043896484375,33.438865234375,35.3348896484375,35.048865234375C35.9856896484375,36.728865234375,37.3789896484375,37.468765234375,37.7144896484375,37.628865234375Q20.2737896484375,51.048865234375,21.1584896484375,56.098865234375C21.1584896484375,56.818765234375,21.2397896484375,58.438865234375,22.3076896484375,60.028765234375C24.1991896484375,62.848865234375,27.5551896484375,63.158765234375,28.0025896484375,63.188765234375C22.2059896484375,69.518765234375,17.2127896484375,74.398765234375,13.6839896484375,77.708765234375C5.2330696484375,85.648765234375,0.32124964843750003,89.208765234375,0.5043552184375,94.718765234375C0.5145346484375,95.138765234375,0.7076956484375,98.988865234375,3.5450196484375,101.678865234375C6.0568596484375,104.048865234375,9.3721196484375,104.328865234375,11.2534896484375,104.458865234375C23.1008896484375,105.238865234375,44.6805896484375,104.318865234375,46.1957896484375,104.248865234375C46.0533896484375,104.568865234375,45.9109896484375,104.878865234375,45.7686896484375,105.198865234375L45.5449896484375,113.728865234375Q44.4262896484375,116.368865234375,51.5855896484375,116.588865234375Q58.7448896484375,116.808865234375,66.5753896484375,116.588865234375Q69.2601896484375,115.708865234375,68.8125896484375,105.368865234375C82.1040896484375,104.848865234375,95.3956896484375,104.328965234375,108.6773896484375,103.808865234375C110.3343896484375,102.488865234375,113.9343896484375,99.228865234375,113.8123896484375,95.018965234375C113.7313896484375,92.208965234375,112.0223896484375,90.148965234375,111.0873896484375,89.088965234375Q103.7043896484375,80.728965234375,88.0531896484375,64.288965234375Q96.7785896484375,57.858965234375,90.9616896484375,53.458965234375L76.6430896484375,37.178865234374996Q81.1176896484375,33.658865234375,79.3278896484375,31.018965234375C72.5244896484375,24.188865234375,65.7311896484375,17.358945234375,58.9277896484375,10.538940234375C58.5514896484375,10.398926234375,57.8091896484375,10.198913534375,56.9040896484375,10.328918434375C55.3684896484375,10.568908234375,54.4938896484375,11.618895234375,54.2803896484375,11.888915234375L54.2602896484375,11.908875234375Z" fill="#617C36" fill-opacity="1"/><path d="M53.9115896484375,11.549435234375Q55.0651896484375,10.110238234375,56.8329896484375,9.833998234375Q58.0119896484375,9.664653234375,59.1021896484375,10.070333234375L59.2045896484375,10.108449234375L59.6701896484375,10.575156234375L79.7152896484375,30.699365234375L79.7416896484375,30.738365234375Q81.7031896484375,33.631365234375,77.3627896484375,37.240065234374995L91.3040896484375,53.091165234375Q94.4351896484375,55.482865234375,93.6258896484375,58.496165234375Q92.8930896484375,61.224765234375,88.8029896484375,64.351465234375Q104.1623896484375,80.492065234375,111.4623896484375,88.758065234375Q114.2223896484375,91.884965234375,114.3123896484375,95.004465234375Q114.4523896484375,99.848665234375,108.9883896484375,104.200065234375L108.8603896484375,104.302065234375L69.3321896484375,105.848965234375Q69.7040896484375,116.089865234375,66.7310896484375,117.063865234375L66.6620896484375,117.086865234375L66.5893896484375,117.088865234375Q58.7429896484375,117.308865234375,51.5701896484375,117.088865234375Q47.8862896484375,116.975865234375,46.2817896484375,116.215865234375Q44.3887896484375,115.319865234375,45.0474896484375,113.624865234375L45.2714896484375,105.085365234375L45.4063896484375,104.785365234375Q23.5548896484375,105.769865234375,11.2189896484375,104.957665234375Q5.9020896484375,104.590265234375,3.2010196484375,102.041665234375Q0.1106836484375,99.111865234375,0.004632648437499998,94.735465234375Q-0.1084563515625,91.332365234375,2.5486696484375,87.917265234375Q4.2378196484375,85.746365234375,9.9045496484375,80.531065234375Q12.1212896484375,78.490965234375,13.3418896484375,77.344165234375Q20.2364896484375,70.87706523437501,26.9719896484375,63.571465234375Q23.7112896484375,63.019065234375,21.8925896484375,60.307565234375Q20.6694896484375,58.486365234375,20.6585896484375,56.140865234375Q19.8165896484375,50.872565234375,36.8135896484375,37.692865234375Q35.4797896484375,36.807065234375,34.8692896484375,35.231165234375Q34.1456896484375,33.383365234375,34.8349896484375,31.506465234375L34.8626896484375,31.431065234375L34.9125896484375,31.368065234375Q39.4113896484375,25.697165234375,44.3412896484375,20.601465234375Q48.8551896484375,15.928475234375,53.9115896484375,11.549435234375ZM54.6003896484375,12.275755234375L54.6325896484375,12.243815234374999L54.6538896484375,12.222635234375L54.6725896484375,12.199045234375Q55.5886896484375,11.040566234375,56.9751896484375,10.823839234375Q57.8477896484375,10.698499234375,58.6535896484375,10.972032234375L58.9616896484375,11.280869234375L78.9390896484375,31.337065234375Q80.4082896484375,33.580765234375,76.3339896484375,36.785965234375L75.9187896484375,37.112465234375L90.6196896484375,53.827165234375L90.6600896484375,53.857665234375Q93.2998896484375,55.854565234375,92.6601896484375,58.236765234375Q91.9783896484375,60.775265234375,87.7565896484375,63.886465234375L87.2999896484375,64.222865234375L87.6910896484375,64.633665234375Q103.3323896484375,81.063965234375,110.7123896484375,89.419765234375Q113.2333896484375,92.275565234375,113.3123896484375,95.033365234375Q113.4373896484375,99.322965234375,108.4923896484375,103.315765234375L69.2800896484375,104.850265234375L68.2913896484375,104.888865234375L68.3130896484375,105.390565234375Q68.7383896484375,115.215865234375,66.4824896484375,116.090865234375Q58.7082896484375,116.307865234375,51.6008896484375,116.088865234375Q48.1255896484375,115.981865234375,46.7097896484375,115.311865234375Q45.6331896484375,114.801865234375,46.0052896484375,113.923865234375L46.0422896484375,113.836865234375L46.2658896484375,105.312365234375L46.4382896484375,104.928865234375L46.9854896484375,103.711865234375L46.1727896484375,103.749365234375Q23.7930896484375,104.783465234375,11.2878896484375,103.960065234375Q6.3280596484375,103.617265234375,3.8890296484375,101.315965234375Q1.1003196484375,98.672065234375,1.0040806484375,94.702165234375Q0.9030116484374999,91.660865234375,3.3379096484375,88.531365234375Q4.9761096484375,86.425865234375,10.5816896484375,81.266865234375Q12.8022896484375,79.223265234375,14.0260896484375,78.073465234375Q21.2871896484375,71.262565234375,28.3712896484375,63.526465234375L29.0736896484375,62.759365234375L28.0359896484375,62.689865234375Q24.5374896484375,62.455565234375,22.7227896484375,59.750065234375Q21.6584896484375,58.165465234375,21.6584896484375,56.098865234375L21.6584896484375,56.055365234375L21.6509896484375,56.012565234375Q20.8184896484375,51.260465234375,38.0193896484375,38.025065234375L38.6650896484375,37.528265234375L37.9296896484375,37.177565234374995Q36.4160896484375,36.455665234375005,35.8003896484375,34.866465234375Q35.2293896484375,33.408365234375,35.7471896484375,31.925165234375Q40.1921896484375,26.328165234375,45.0605896484375,21.296265234375Q49.5529896484375,16.645385234375,54.5874896484375,12.286895234375L54.6003896484375,12.275755234375Z" fill-rule="evenodd" fill="#000000" fill-opacity="1"/></g><g><ellipse cx="242.4993896484375" cy="135.786865234375" rx="51" ry="11.5" fill="#546635" fill-opacity="1"/></g><g><path d="M239.46549082031248,2.76690484375C235.6315908203125,6.08691484375,231.5942908203125,9.84692484375,227.4959908203125,14.08686484375C223.0213908203125,18.71696484375,219.12649082031248,23.24686484375,215.7399908203125,27.51686484375C215.5772908203125,27.95686484375,214.9874908203125,29.71696484375,215.7704908203125,31.73686484375C216.5942908203125,33.84686484375,218.3332908203125,34.76686484375,218.7400908203125,34.96686484375Q196.9061908203125,51.75686484375,198.0247908203125,58.08686484375C198.0247908203125,58.99686484375,198.1264908203125,61.01686484375,199.45879082031252,63.00686484375C201.8281908203125,66.53686484375,206.0179908203125,66.91676484375,206.5875908203125,66.96686484375C199.3366908203125,74.88686484375,193.0824908203125,80.98686484375,188.6688908203125,85.13686484375C178.0824608203125,95.07686484375,171.9503508203125,99.52686484375,172.1740495103125,106.42646484375C172.1944083203125,106.95646484375,172.4181078203125,111.76646484375,175.9774308203125,115.13646484375C179.1197708203125,118.10646484375,183.2689908203125,118.45646484375,185.6180908203125,118.60646484375C200.4451908203125,119.57646484375,227.4451908203125,118.42646484375,229.3468908203125,118.34646484375C229.1637908203125,118.73646484375,228.9909908203125,119.13646484375,228.8078908203125,119.52646484375L228.5230908203125,130.20646484375Q227.11969082031248,133.50646484375,236.0790908203125,133.78646484375Q245.03849082031252,134.06646484375,254.8315908203125,133.78646484375Q258.1875908203125,132.68646484375,257.6281908203125,119.74646484375C274.2550908203125,119.09646484375,290.8920908203125,118.44646484375,307.5200908203125,117.79646484375C309.5940908203125,116.13646484375,314.09909082031254,112.06646484375,313.9370908203125,106.79646484375C313.82509082031254,103.27646484375,311.6990908203125,100.70676484375,310.5200908203125,99.37686484375Q301.2860908203125,88.91676484375,281.6890908203125,68.33686484375Q292.6010908203125,60.29686484375,285.33009082031253,54.78686484375L267.4113908203125,34.41686484375Q273.0040908203125,30.01686484375,270.76739082031247,26.70686484375C262.2554908203125,18.15686484375,253.7537908203125,9.61682484375,245.24199082031248,1.06683384375C244.7639908203125,0.89685084375,243.8385908203125,0.6368408437499999,242.7097908203125,0.80682374375C240.7876908203125,1.10681184375,239.6894908203125,2.41680484375,239.4249908203125,2.75683484375L239.46549082031248,2.76690484375Z" fill="#617C36" fill-opacity="1"/><path d="M240.89129082031252,2.34880484375L241.0487908203125,2.38798484375L239.9564908203125,3.33387484375Q233.6753908203125,8.77297484375,228.0352908203125,14.60816484375Q221.9434908203125,20.91146484375,216.4041908203125,27.88646484375Q215.7790908203125,29.68406484375,216.46979082031248,31.46576484375Q217.2184908203125,33.38326484375,219.0708908203125,34.29376484375L220.1535908203125,34.82596484375L219.1972908203125,35.56136484375Q197.7238908203125,52.07406484375,198.7633908203125,57.95636484375L198.7747908203125,58.02106484375L198.7747908203125,58.08686484375Q198.7747908203125,60.63716484375,200.0819908203125,62.58956484375Q202.2594908203125,65.83366484375,206.6531908203125,66.21976484375L208.1666908203125,66.35276484375L207.1407908203125,67.47326484375Q198.4283908203125,76.98976484375,189.1826908203125,85.68326484375Q187.6583908203125,87.11446484375,184.8962908203125,89.65576484375Q177.8724508203125,96.11806484375,175.8251008203125,98.74836484375Q172.8014508203125,102.63346484375,172.9236578203125,106.40246484375Q173.1154028203125,111.39446484375,176.4930808203125,114.59246484375Q179.5346208203125,117.46646484375,185.6658908203125,117.85846484375Q200.3396908203125,118.81846484375,229.2663908203125,117.59946484375L229.3153908203125,117.59746484375L230.5516908203125,117.54546484375L230.0257908203125,118.66546484375Q229.9367908203125,118.85546484375,229.7611908203125,119.24446484375Q229.6367908203125,119.52046484375,229.5534908203125,119.70146484375L229.2690908203125,130.36946484375L229.2132908203125,130.50046484375Q228.7934908203125,131.48746484375,230.0315908203125,132.07446484375Q231.7791908203125,132.90246484375,236.10249082031248,133.03746484375Q244.9834908203125,133.31446484375,254.68999082031252,133.04046484375Q257.4049908203125,131.94746484375,256.8788908203125,119.77946484375L256.8463908203125,119.02646484375L282.6950908203125,118.01646484375L307.2420908203125,117.05746484375Q313.3500908203125,112.08746484375,313.1870908203125,106.81946484375Q313.07809082031247,103.39146484375,309.9590908203125,99.87456484375Q300.7310908203125,89.42136484375,281.1460908203125,68.85406484375L280.5590908203125,68.23776484375L281.2440908203125,67.73306484375Q286.4890908203125,63.86876484375,287.3310908203125,60.73476484375Q288.1100908203125,57.83476484375,284.8770908203125,55.38466484375L284.8170908203125,55.33896484375L266.3248908203125,34.31726484375L266.9476908203125,33.82736484375Q271.9405908203125,29.89956484375,270.1831908203125,27.18306484375L257.4731908203125,14.41606484375L244.83469082031252,1.72081784375Q243.8236908203125,1.39753784375,242.8213908203125,1.54846184375Q241.7295908203125,1.71887584375,240.89129082031252,2.34880484375ZM238.7701908203125,2.3771048437499998Q232.5513908203125,7.77762484375,226.9566908203125,13.56566484375Q220.7716908203125,19.96546484375,215.1523908203125,27.05086484375L215.0780908203125,27.14456484375L215.03659082031248,27.25676484375Q214.1541908203125,29.64236484375,215.0711908203125,32.00796484375Q215.8162908203125,33.91626484375,217.4092908203125,35.04716484375Q196.2196908203125,51.49086484375,197.2749908203125,58.15006484375Q197.2912908203125,61.11746484375,198.8354908203125,63.42406484375Q201.0337908203125,66.69906484375,205.0713908203125,67.50806484375Q196.8498908203125,76.41496484375,188.1551908203125,84.59046484375Q186.6369908203125,86.01586484375,183.8806908203125,88.55186484375Q176.7652308203125,95.09836484375,174.6413908203125,97.82706484375Q171.2846658203125,102.13946484375,171.4244448203125,106.45146484375Q171.6399828203125,112.06346484375,175.4617808203125,115.68146484375Q178.8981708203125,118.92946484375,185.5702908203125,119.35546484375Q200.0227908203125,120.30046484375,228.1574908203125,119.14646484375Q228.1423908203125,119.17946484375,228.1289908203125,119.20846484375L228.0622908203125,119.35046484375L227.7769908203125,130.05146484375Q226.9256908203125,132.26246484375,229.3892908203125,133.42946484375Q231.4195908203125,134.39146484375,236.0556908203125,134.53646484375Q245.0362908203125,134.81746484375,254.8529908203125,134.53646484375L254.9617908203125,134.53346484375L255.0651908203125,134.49946484375Q258.8515908203125,133.25846484375,258.40689082031247,120.46646484375L282.7540908203125,119.51546484375L307.7960908203125,118.53646484375L307.9880908203125,118.38246484375Q314.8750908203125,112.87246484375,314.68609082031253,106.77346484375Q314.5600908203125,102.80146484375,311.0810908203125,98.87916484375Q301.97409082031254,88.56306484375,282.8130908203125,68.42946484375Q287.8610908203125,64.54126484375,288.78009082031247,61.12396484375Q289.8130908203125,57.27836484375,285.8440908203125,54.23556484375L268.4894908203125,34.50696484375Q273.8800908203125,29.97296484375,271.3886908203125,26.28686484375L271.3489908203125,26.22806484375L258.5362908203125,13.35776484375L245.6534908203125,0.41717984375L245.4932908203125,0.36019584375Q244.0492908203125,-0.15335515624999996,242.5980908203125,0.06518584375000003Q240.2876908203125,0.42577784375,238.8329908203125,2.29643484375L238.7701908203125,2.3771048437499998Z" fill-rule="evenodd" fill="#000000" fill-opacity="1"/></g></g></svg>