<svg xmlns="http://www.w3.org/2000/svg" xmlns:xlink="http://www.w3.org/1999/xlink" fill="none" version="1.1" width="768.2137164734304" height="167.2605855744332" viewBox="0 0 768.2137164734304 167.2605855744332"><g transform="matrix(0.9998916387557983,0.014722571708261967,-0.014722571708261967,0.9998916387557983,0.03033784479661783,-0.06260219711424364)"><path d="M4.2670593205839396,154.02922842092812Q146.14805932058394,48.00422842092812,177.58905932058394,40.82082842092812Q211.92005932058393,32.97592842092812,183.72505932058394,40.82082842092812C206.02805932058394,30.598728420928122,261.02405932058394,7.23972842092812,318.9410593205839,2.9813694209281207C338.8230593205839,1.5136984209281206,369.13405932058396,1.5653644209281206,400.6570593205839,4.397378420928121C412.6020593205839,5.47227842092812,422.53305932058396,6.753978420928121,429.48305932058395,7.7358284209281205C435.47605932058394,8.97613842092812,444.10405932058393,10.83657842092812,454.4120593205839,13.33782842092812C497.41105932058395,23.79772842092812,528.8930593205839,35.59092842092812,549.4160593205839,43.36342842092812C618.708059320584,69.59582842092811,686.790059320584,105.15122842092812,706.733059320584,115.70422842092812L766.2670593205839,147.37322842092811L371.23105932058394,154.02922842092812L4.277244320583939,154.02922842092812L4.2670593205839396,154.02922842092812Z" fill="#617C36" fill-opacity="1"/><path d="M-1.7504106794160608,156.02922842092812L4.277244320583939,156.02922842092812L371.26405932058395,156.02922842092812L774.040059320584,149.24222842092811L707.6680593205839,113.93622842092812Q622.656059320584,68.95232842092813,550.1240593205839,41.49302842092812Q498.9600593205839,22.11612842092812,454.8830593205839,11.39423842092812Q442.45005932058393,8.37700842092812,429.8880593205839,5.777328420928121L429.82605932058397,5.76440842092812L429.7630593205839,5.75549842092812Q415.1980593205839,3.6977484209281206,400.83605932058396,2.4053964209281204Q355.16305932058395,-1.6979315790718794,318.7940593205839,0.9867584209281206Q258.3980593205839,5.4274584209281205,189.05705932058393,36.22072842092812Q184.49805932058393,37.19042842092812,177.14305932058394,38.87112842092812Q145.29105932058394,46.148328420928124,3.0698493205839394,152.42722842092812L-1.7504106794160608,156.02922842092812ZM162.97905932058393,48.66892842092812L184.26105932058394,42.74762842092812Q191.33905932058394,40.77802842092812,194.51005932058393,39.78812842092812Q196.16605932058394,39.27122842092812,196.84205932058393,38.99202842092812Q197.58205932058394,38.68632842092812,197.94605932058394,38.26082842092812Q198.58205932058394,37.51892842092812,198.40505932058394,36.56682842092812Q198.40005932058395,36.54342842092812,198.39505932058393,36.52042842092812Q262.74905932058397,9.11830842092812,319.08805932058397,4.97598842092812Q355.1310593205839,2.315315420928121,400.47805932058395,6.389348420928121Q414.70705932058394,7.66976842092812,429.14005932058393,9.707238420928121Q441.60305932058395,12.28772842092812,453.94005932058394,15.28142842092812Q497.7750593205839,25.94442842092812,548.708059320584,45.23382842092812Q621.007059320584,72.60462842092812,705.7970593205839,117.47122842092811L758.4940593205839,145.5032284209281L371.19705932058395,152.02922842092812L10.29086932058394,152.02922842092812Q121.98705932058394,68.78202842092811,162.97905932058393,48.66892842092812Z" fill-rule="evenodd" fill="#313131" fill-opacity="1"/></g></svg>