<svg xmlns="http://www.w3.org/2000/svg" xmlns:xlink="http://www.w3.org/1999/xlink" fill="none" version="1.1" width="265.639404296875" height="78.466552734375" viewBox="0 0 265.639404296875 78.466552734375"><g><g><g><path d="M223.93006767578126,5.431638203125C221.80466767578125,7.261658203125,219.57746767578124,9.341618203125,217.30966767578124,11.691648203125C214.83846767578126,14.251648203125,212.68256767578126,16.761658203125002,210.81136767578124,19.121658203125C210.71986767578124,19.371658203125,210.39436767578124,20.341658203125,210.83176767578124,21.451658203125C211.28936767578125,22.621658203125,212.24526767578124,23.131658203125,212.47916767578124,23.241658203125Q200.40796767578126,32.531658203125005,201.02836767578125,36.031658203125005C201.02836767578125,36.531658203125,201.08936767578126,37.651658203125,201.82156767578124,38.751558203125C203.13346767578125,40.701558203125,205.45206767578125,40.911558203125,205.75716767578126,40.941558203125C201.75046767578124,45.321558203125,198.29276767578125,48.701558203125,195.85209767578124,50.991558203125C190.00463767578125,56.491558203125,186.60806667578126,58.951558203125,186.73009529578124,62.761558203125C186.73009529578124,63.051558203125,186.87248267578124,65.721658203125,188.83512767578125,67.581558203125C190.57406767578124,69.221658203125,192.86220767578126,69.421658203125,194.16392767578125,69.501558203125C202.36056767578125,70.041558203125,217.29956767578125,69.401658203125,218.34696767578126,69.351558203125C218.24536767578124,69.571558203125,218.15386767578124,69.791558203125,218.05206767578125,70.011558203125L217.89946767578124,75.911558203125Q217.12656767578125,77.741558203125,222.07916767578126,77.891558203125Q227.03166767578125,78.041558203125,232.45196767578125,77.891558203125Q234.31296767578124,77.281558203125,233.99776767578123,70.131558203125C243.19096767578125,69.771558203125,252.39436767578127,69.411558203125,261.58756767578126,69.051558203125C262.73676767578127,68.131558203125,265.22826767578124,65.881558203125,265.13676767578124,62.971458203125C265.07566767578123,61.021458203125,263.89606767578124,59.601458203125,263.24516767578126,58.871558203125Q258.14006767578127,53.091458203125,247.29936767578124,41.701558203125Q253.34006767578126,37.251558203125,249.31296767578124,34.211558203125L239.40786767578123,22.951558203125Q242.49946767578126,20.511558203125,241.26886767578125,18.691558203125C236.56036767578127,13.961548203125,231.86206767578125,9.241518203125,227.15356767578123,4.511535203125C226.88916767578127,4.411560103125,226.38066767578124,4.271545403125,225.75016767578126,4.371521003125C224.69246767578124,4.531494203125,224.08236767578126,5.261535203125,223.92976767578125,5.451538203125L223.93006767578126,5.431638203125Z" fill="#617C36" fill-opacity="1"/><path d="M223.62956767578126,5.030519203125Q224.46336767578126,4.060466203125,225.67186767578124,3.877690203125Q226.53076767578125,3.741502203125,227.33036767578125,4.043849203125L227.43156767578125,4.082113203125L234.56556767578127,11.248818203125001L241.65656767578125,18.372258203125L241.68306767578125,18.411458203125Q243.08186767578124,20.480358203125,240.12496767578125,23.009658203125L249.65536767578124,33.843758203125Q251.89156767578123,35.555558203125,251.30596767578123,37.733858203125Q250.79756767578124,39.624858203125,248.04756767578124,41.762558203125Q258.6017676757813,52.858658203125,263.61836767578126,58.538758203125Q265.56656767578124,60.723758203125,265.63646767578126,62.955758203125Q265.74366767578124,66.364758203125,261.90006767578126,69.441858203125L261.7715676757813,69.544658203125L247.81386767578124,70.091058203125L234.51676767578124,70.611558203125Q234.75396767578124,77.663158203125,232.60766767578124,78.366658203125L232.53856767578125,78.389358203125L232.46576767578125,78.391358203125Q227.03116767578126,78.541758203125,222.06396767578124,78.391358203125Q219.48316767578126,78.313158203125,218.34386767578124,77.773458203125Q216.91676767578124,77.097358203125,217.40196767578124,75.809358203125L217.55486767578125,69.895358203125L217.55776767578124,69.889158203125Q202.77006767578126,70.569658203125,194.13327767578124,70.000658203125Q190.43015767578126,69.773158203125,188.49118767578125,67.944558203125Q186.23307167578125,65.804558203125,186.23009967578125,62.769558203125Q186.15639567578125,60.367458203125,188.02212767578126,57.968658203125Q189.19645767578126,56.458858203125,193.11801767578126,52.846758203125Q194.65978767578125,51.426658203125,195.50998767578125,50.626958203125Q200.19446767578125,46.231758203125,204.75986767578127,41.287858203125Q202.59226767578124,40.792958203125,201.40536767578124,39.028658203125Q200.53926767578125,37.727558203125,200.52846767578126,36.073558203125Q199.94996767578124,32.355158203125,211.59596767578125,23.292858203125Q210.77356767578124,22.675658203125,210.36656767578125,21.634958203125Q209.84426767578125,20.309358203125,210.34186767578126,18.949858203125L210.36956767578124,18.874158203125L210.41956767578125,18.810958203125Q213.53356767578126,14.883458203125,216.94986767578126,11.344448203125001Q220.15976767578124,8.018178203125,223.60376767578126,5.052740203125L223.62956767578126,5.030519203125ZM223.41616767578125,6.542438203125Q220.45406767578126,9.153288203125001,217.66946767578125,12.038848203125Q214.31536767578126,15.513458203125,211.25506767578125,19.366958203125Q210.92796767578125,20.331858203125,211.29696767578125,21.268358203125Q211.71136767578125,22.328058203125,212.69196767578126,22.789158203125L213.43366767578124,23.137958203125L212.78416767578125,23.637858203125Q200.95326767578126,32.742958203125,201.52066767578125,35.944358203125L201.52836767578125,35.987658203125L201.52836767578125,36.031658203125005Q201.52836767578125,37.408658203125,202.23776767578124,38.474558203125Q203.40466767578124,40.208858203125,205.79686767578124,40.443058203125L205.80616767578124,40.443958203125L206.80046767578125,40.541858203125L206.12606767578126,41.279058203125Q201.22916767578124,46.632158203125,196.19421767578126,51.356258203125Q195.34128767578125,52.158458203125,193.79550767578124,53.582258203125Q187.13290367578125,59.719158203125,187.22983767578125,62.745558203125L187.23009567578126,62.753558203125L187.23009567578126,62.761558203125Q187.23009567578126,65.37165820312501,189.17905767578125,67.218658203125Q190.85285767578125,68.797258203125,194.19458767578124,69.002558203125Q203.01526767578125,69.583658203125,218.32316767578124,68.852158203125L219.14686767578127,68.812758203125L218.80086767578126,69.561358203125Q218.75236767578124,69.666258203125,218.65826767578125,69.880558203125Q218.59416767578125,70.026558203125,218.54926767578124,70.126258203125L218.39686767578127,76.018958203125L218.36006767578124,76.106058203125Q218.16006767578125,76.579758203125,218.77196767578124,76.869658203125Q219.72246767578125,77.319958203125,222.09426767578125,77.391758203125Q226.99496767578125,77.540258203125,232.35606767578125,77.393958203125Q233.79066767578126,76.787858203125,233.49826767578125,70.153558203125L233.47606767578125,69.651558203125L247.77476767578125,69.091858203125L261.4022676757812,68.558358203125Q264.72666767578124,65.842458203125,264.63696767578125,62.987258203125Q264.57846767578127,61.118158203125,262.87196767578126,59.204258203125Q257.7729676757813,53.431258203125,246.93726767578124,42.046258203125L246.54616767578125,41.635358203125L247.00286767578126,41.298958203125Q249.88226767578124,39.177758203125,250.34026767578126,37.474258203125Q250.75606767578125,35.927458203125,249.01166767578124,34.610658203125L248.97106767578126,34.579958203125L238.68406767578125,22.885758203125L239.09806767578124,22.559058203125Q241.78996767578124,20.434458203125,240.87896767578124,19.008558203125L233.85686767578125,11.954298203125L226.87946767578126,4.944921203125Q226.37286767578127,4.779033203125,225.82846767578124,4.865351203125Q224.93296767578124,5.000811203125,224.31966767578126,5.764598203125L223.41176767578125,6.895248203125L223.41616767578125,6.542438203125Z" fill-rule="evenodd" fill="#000000" fill-opacity="1"/></g></g><g><g><path d="M37.70277275390625,1.596188984375C35.57737275390625,3.426208984375,33.35017275390625,5.506168984375,31.08237275390625,7.856198984375C28.61117275390625,10.416198984375,26.45527275390625,12.926208984375,24.58407275390625,15.286208984375C24.49257275390625,15.536208984375,24.16707275390625,16.506208984375,24.60447275390625,17.616208984375C25.06207275390625,18.786208984375,26.01797275390625,19.296208984375,26.25187275390625,19.406208984375Q14.18067275390625,28.696208984375,14.80107275390625,32.196208984375005C14.80107275390625,32.696208984375,14.86207275390625,33.816208984375,15.59427275390625,34.916108984375C16.90617275390625,36.866108984375,19.22477275390625,37.076108984375,19.52987275390625,37.106108984375C15.52317275390625,41.486108984375,12.06547275390625,44.866108984375,9.62480275390625,47.156108984375C3.77734275390625,52.656108984375,0.38077175390625,55.116108984375,0.50280037390625,58.926108984375C0.50280037390625,59.216108984375,0.64518775390625,61.886208984375,2.60783275390625,63.746108984375C4.34677275390625,65.386208984375,6.63491275390625,65.586208984375,7.93663275390625,65.666108984375C16.133272753906247,66.206108984375,31.07227275390625,65.566208984375,32.11967275390625,65.516108984375C32.01807275390625,65.736108984375,31.92657275390625,65.956108984375,31.82477275390625,66.176108984375L31.67217275390625,72.076108984375Q30.89927275390625,73.906108984375,35.85187275390625,74.056108984375Q40.80437275390625,74.206108984375,46.22467275390625,74.056108984375Q48.08567275390625,73.446108984375,47.77047275390625,66.296108984375C56.96367275390625,65.936108984375,66.16707275390625,65.576108984375,75.36027275390624,65.216108984375C76.50947275390625,64.296108984375,79.00097275390625,62.046108984375,78.90947275390624,59.136008984375C78.84837275390625,57.186008984375,77.66877275390625,55.766008984375,77.01787275390625,55.036108984375Q71.91277275390625,49.256008984375,61.07207275390625,37.866108984375Q67.11277275390626,33.416108984375,63.08567275390625,30.376108984375L53.18057275390625,19.116108984375Q56.27217275390625,16.676108984375,55.04157275390625,14.856108984375C50.33307275390625,10.126098984375,45.63477275390625,5.406068984375,40.92627275390625,0.676085984375C40.66187275390625,0.576110884375,40.15337275390625,0.436096184375,39.52287275390625,0.536071784375C38.46517275390625,0.6960449843750001,37.85507275390625,1.426085984375,37.70247275390625,1.616088984375L37.70277275390625,1.596188984375Z" fill="#617C36" fill-opacity="1"/><path d="M37.40227275390625,1.195069984375Q38.23607275390625,0.225016984375,39.44457275390625,0.04224098437500001Q40.30347275390625,-0.09394701562499996,41.10307275390625,0.208399984375L41.20427275390625,0.24666398437499998L48.33827275390625,7.413368984375L55.42927275390625,14.536808984375L55.45577275390625,14.576008984375Q56.85457275390625,16.644908984375,53.89767275390625,19.174208984375L63.42807275390625,30.008308984375Q65.66427275390625,31.720108984375,65.07867275390625,33.898408984375Q64.57027275390625,35.789408984375,61.82027275390625,37.927108984375Q72.37447275390625,49.023208984375,77.39107275390624,54.703308984375Q79.33927275390624,56.888308984375,79.40917275390625,59.120308984375Q79.51637275390625,62.529308984375,75.67277275390624,65.606408984375L75.54427275390626,65.709208984375L61.58657275390625,66.255608984375L48.28947275390625,66.776108984375Q48.52667275390625,73.827708984375,46.38037275390625,74.531208984375L46.31127275390625,74.553908984375L46.23847275390625,74.555908984375Q40.80387275390625,74.706308984375,35.83667275390625,74.555908984375Q33.25587275390625,74.477708984375,32.116572753906254,73.938008984375Q30.68947275390625,73.261908984375,31.17467275390625,71.973908984375L31.32757275390625,66.059908984375L31.33047275390625,66.053708984375Q16.54277275390625,66.734208984375,7.90598275390625,66.165208984375Q4.20286275390625,65.937708984375,2.26389275390625,64.109108984375Q0.005776753906249987,61.969108984375,0.0028047539062500126,58.934108984375Q-0.07089924609374998,56.532008984375,1.79483275390625,54.133208984375Q2.96916275390625,52.623408984375,6.89072275390625,49.011308984375Q8.43249275390625,47.591208984375,9.28269275390625,46.791508984375Q13.96717275390625,42.396308984375,18.53257275390625,37.452408984375Q16.36497275390625,36.957508984375,15.17807275390625,35.193208984375Q14.31197275390625,33.892108984375,14.30117275390625,32.238108984375Q13.72267275390625,28.519708984375,25.36867275390625,19.457408984375Q24.54627275390625,18.840208984375,24.13927275390625,17.799508984375Q23.61697275390625,16.473908984375,24.11457275390625,15.114408984375L24.14227275390625,15.038708984375L24.19227275390625,14.975508984375Q27.30627275390625,11.048008984375,30.72257275390625,7.508998984375Q33.93247275390625,4.182728984375,37.37647275390625,1.217290984375L37.40227275390625,1.195069984375ZM37.18887275390625,2.706988984375Q34.22677275390625,5.317838984375,31.44217275390625,8.203398984375Q28.08807275390625,11.678008984375,25.02777275390625,15.531508984375Q24.70067275390625,16.496408984375,25.06967275390625,17.432908984375Q25.48407275390625,18.492608984375,26.46467275390625,18.953708984375L27.20637275390625,19.302508984375L26.55687275390625,19.802408984375Q14.72597275390625,28.907508984375,15.29337275390625,32.108908984375L15.30107275390625,32.152208984375L15.30107275390625,32.196208984375005Q15.30107275390625,33.573208984375,16.01047275390625,34.639108984375Q17.17737275390625,36.373408984375,19.56957275390625,36.607608984375L19.57887275390625,36.608508984375L20.57317275390625,36.706408984375L19.89877275390625,37.443608984375Q15.00187275390625,42.796708984375,9.96692275390625,47.520808984375Q9.11399275390625,48.323008984375,7.56821275390625,49.746808984375Q0.9056087539062501,55.883708984375,1.00254275390625,58.910108984375L1.00280075390625,58.918108984375L1.00280075390625,58.926108984375Q1.00280075390625,61.536208984375,2.95176275390625,63.383208984375Q4.62556275390625,64.961808984375,7.96729275390625,65.167108984375Q16.78797275390625,65.748208984375,32.09587275390625,65.016708984375L32.91957275390625,64.977308984375L32.57357275390625,65.725908984375Q32.52507275390625,65.830808984375,32.43097275390625,66.045108984375Q32.36687275390625,66.191108984375,32.32197275390625,66.290808984375L32.16957275390625,72.183508984375L32.13277275390625,72.270608984375Q31.93277275390625,72.744308984375,32.54467275390625,73.034208984375Q33.49517275390625,73.484508984375,35.86697275390625,73.556308984375Q40.76767275390625,73.704808984375,46.12877275390625,73.558508984375Q47.56337275390625,72.952408984375,47.27097275390625,66.318108984375L47.24877275390625,65.816108984375L61.54747275390625,65.256408984375L75.17497275390625,64.722908984375Q78.49937275390624,62.007008984375,78.40967275390625,59.151808984375Q78.35117275390625,57.282708984375,76.64467275390625,55.368808984375Q71.54567275390625,49.595808984375,60.70997275390625,38.210808984375L60.31887275390625,37.799908984375L60.77557275390625,37.463508984375Q63.65497275390625,35.342308984375,64.11297275390625,33.638808984375Q64.52877275390625,32.092008984375,62.78437275390625,30.775208984375L62.74377275390625,30.744508984375L52.45677275390625,19.050308984375L52.87077275390625,18.723608984375Q55.56267275390625,16.599008984375,54.65167275390625,15.173108984375L47.62957275390625,8.118848984375L40.65217275390625,1.109471984375Q40.14557275390625,0.943583984375,39.60117275390625,1.029901984375Q38.70567275390625,1.165361984375,38.09237275390625,1.929148984375L37.18447275390625,3.059798984375L37.18887275390625,2.706988984375Z" fill-rule="evenodd" fill="#000000" fill-opacity="1"/></g></g></g></svg>