<svg xmlns="http://www.w3.org/2000/svg" xmlns:xlink="http://www.w3.org/1999/xlink" fill="none" version="1.1" width="324.165283203125" height="334.89794921875" viewBox="0 0 324.165283203125 334.89794921875"><defs><clipPath id="master_svg0_36_54"><rect x="7.46527099609375" y="94.488037109375" width="316.70001220703125" height="240.41000366210938" rx="0"/></clipPath></defs><g><g clip-path="url(#master_svg0_36_54)"><g><path d="M26.885289751303198,95.48803763916015C23.055289751303196,96.93803763916016,20.545289751303194,99.99803763916016,18.385289751303198,102.75803763916015C15.245269751303196,106.74806763916015,13.805269751303197,110.72806763916016,13.105269751303197,113.23806763916016C11.905269751303196,117.43806763916015,10.795269751303195,122.02806763916016,9.865269751303195,126.98806763916016C8.425270751303195,134.75806763916015,7.7352707513031955,141.91806763916014,7.465270951303196,148.25806763916015Q6.785270751303196,182.63806763916017,44.0652897513032,193.61806763916016Q89.99528975130319,207.14826763916017,173.5050897513032,215.06826763916015C193.2550897513032,216.21826763916016,210.1850897513032,218.33826763916016,223.6450897513032,220.45826763916017C251.7350897513032,224.89826763916017,265.2950897513032,229.45826763916017,275.7350897513032,240.44826763916015C277.5350897513032,242.33826763916016,278.8750897513032,244.03826763916015,279.7250897513032,245.18826763916016C285.8550897513032,255.50826763916015,290.7950897513032,268.95826763916017,289.2950897513032,285.3282676391601C289.2550897513032,285.72826763916015,289.2150897513032,286.1382676391602,289.1750897513032,286.54826763916014C287.6950897513032,301.5182676391602,286.2150897513032,316.48826763916014,284.7350897513032,331.45826763916017C290.1950897513032,332.2482676391602,295.6550897513032,333.02826763916016,301.1250897513032,333.8182676391601C305.2350897513032,334.17826763916014,309.3450897513032,334.53826763916015,313.4550897513032,334.89826763916017C319.2950897513032,320.09826763916016,324.0650897513032,301.7582676391602,324.1750897513032,280.6982676391601C324.1950897513032,275.95826763916017,324.0150897513032,272.7682676391602,323.9450897513032,271.7682676391602C323.3550897513032,263.8282676391601,321.0850897513032,246.54826763916014,310.0250897513032,228.61826763916017C308.7350897513032,226.52826763916016,302.6850897513032,216.90826763916016,294.6550897513032,210.10826763916015C291.1050897513032,207.09826763916016,286.2650897513032,203.88826763916018,283.4350897513032,202.41826763916015C283.0050897513032,202.19826763916015,281.6050897513032,201.48826763916014,280.0350897513032,200.71826763916016C279.0250897513032,200.21826763916016,277.5450897513032,199.49826763916016,275.74508975130317,198.67826763916014C272.1350897513032,197.03826763916015,256.05508975130317,189.90806763916015,229.13508975130318,185.92806763916016C220.1550897513032,184.60806763916014,208.3950897513032,183.39806763916016,194.4650897513032,183.38806763916017C185.3050897513032,182.47806763916014,176.10508975130318,181.60806763916014,166.85508975130318,180.73806763916014C151.5650897513032,179.29806763916014,133.3150897513032,177.63806763916017,121.4350897513032,176.74806763916015Q38.715289751303196,166.53806763916015,40.4952897513032,147.63806763916017Q46.115289751303195,122.35806763916015,54.285289751303196,113.67806763916016C54.0252897513032,112.90806763916015,53.7752897513032,112.13806763916016,53.51528975130319,111.36806763916016C49.645289751303196,98.20803763916015,36.44528975130319,91.87803763916015,26.885289751303198,95.48803763916015Z" fill="#313131" fill-opacity="1"/></g></g><g><g><g><g><path d="M37.80085478515625,61.923937109375C31.62805478515625,73.463937109375,30.78385478515625,81.694037109375,32.807654785156245,87.564037109375Q38.16695478515625,103.084037109375,63.59065478515625,102.094037109375C78.13315478515625,101.244037109375,93.20425478515625,79.063937109375,96.31605478515625,75.993937109375C99.42795478515625,72.933937109375,134.74615478515625,44.383937109375,134.56315478515626,41.493937109375C136.96515478515624,37.493937109375,132.31615478515624,33.494037109375,134.56315478515626,30.264037109375C136.81115478515625,27.034037109375,135.77315478515624,20.904037109375,132.48915478515624,15.454037109375C131.89915478515624,14.474037109375,131.22815478515625,13.774037109375,130.49615478515625,13.274037109375C126.51915478515625,10.574037109375,123.46815478515624,11.874057109375,118.64815478515625,10.174037109375C114.22415478515624,8.614047109375,114.87515478515625,6.504027109375,110.03515478515625,4.304047109375C105.70215478515625,2.334045109375,101.70595478515625,2.454040509375,99.42785478515626,2.514038109375C88.50585478515625,2.834045109375,76.50575478515626,10.634037109375,68.22775478515625,15.534037109375C49.48535478515625,26.624037109375,37.21085478515625,33.874037109374996,30.36675478515625,29.744037109375C23.71595478515625,25.734037109375,27.60075478515625,14.054037109375,18.94645478515625,9.834017109375C15.38715478515625,8.094027109375,10.28204478515625,7.734007109375,6.83457478515625,10.174007109375001C2.39051178515625,13.314037109375,2.47182348515625,19.824037109375,2.50236175515625,22.774037109375C2.54307948515625,26.434037109375,3.5091347851562498,29.144037109375,4.23112478515625,31.114037109375C5.2887947851562505,34.014037109374996,7.55656478515625,38.924037109375,12.53965478515625,43.884037109375C12.02099478515625,48.184037109375,11.63454478515625,56.364037109375,15.13295478515625,65.674037109375C19.65825478515625,77.694037109375,27.99735478515625,84.514037109375,31.57705478515625,87.124037109375" fill="#FFFFFF" fill-opacity="1"/><path d="M12.79325478515625,66.554837109375Q17.96575478515625,80.293837109375,30.10415478515625,89.144037109375L30.51485478515625,88.580837109375Q36.56905478515625,105.648037109375,63.73655478515625,104.590037109375Q76.83995478515625,103.824037109375,95.59935478515625,80.710637109375Q97.62675478515625,78.212637109375,98.06885478515625,77.776437109375Q98.85855478515624,76.999937109375,106.43715478515625,70.624837109375Q133.04815478515624,48.239337109375,136.53415478515626,42.677337109375L136.70715478515626,42.780837109375Q138.51515478515626,39.769737109375,136.96215478515626,34.696537109375Q136.21815478515626,32.263537109375,136.61515478515625,31.691937109375Q138.84215478515625,28.492637109375,138.07315478515625,23.324037109375Q137.39415478515625,18.748937109375,134.63115478515624,14.164937109375Q133.51315478515625,12.307117109375,131.90015478515625,11.205797109375Q129.07315478515625,9.286317109375,124.23915478515624,8.760007109375Q121.22415478515624,8.431687109375,119.47915478515625,7.816347109375Q117.76015478515625,7.209997109375,116.20815478515625,5.653537109375Q113.85515478515624,3.294314109375,111.06915478515624,2.028291109375Q106.24315478515625,-0.1666228906249998,99.40955478515625,0.01364710937499991L99.35465478515626,0.01510710937500015Q88.75555478515625,0.3256571093749998,69.24545478515626,12.015237109375Q67.68805478515625,12.948337109375,66.95465478515625,13.382437109375Q49.98885478515625,23.421237109375,43.85165478515625,26.048237109375Q35.21045478515625,29.746937109375,31.65765478515625,27.603037109375Q29.47945478515625,26.289837109375,28.04675478515625,20.166837109375Q26.97975478515625,15.607137109375,25.88435478515625,13.427937109375Q23.89195478515625,9.464147109375,20.04445478515625,7.588027109375Q11.83271478515625,3.5736871093750002,5.39193478515625,8.132247109375001Q-0.10926521484375007,12.019197109375,0.0022147851562501764,22.772537109375L0.0025147851562499213,22.801837109375Q0.04886478515624981,26.967537109375,1.88245578515625,31.970637109375Q4.45408478515625,39.021637109375,9.92681478515625,44.786537109375Q8.83623478515625,56.024337109375,12.79325478515625,66.554837109375ZM29.33395478515625,82.107037109375Q29.05985478515625,72.964837109375,35.59645478515625,60.744837109375L40.00535478515625,63.103137109375Q32.10855478515625,77.865937109375,35.17065478515625,86.747937109375Q39.92415478515625,100.513637109375,63.44485478515625,99.598237109375Q74.34725478515625,98.961037109375,91.71705478515625,77.559737109375Q93.91855478515625,74.847337109375,94.56325478515625,74.211337109375Q95.49125478515624,73.298737109375,103.21815478515624,66.798637109375Q132.12115478515625,42.485437109375,132.06815478515625,41.651937109375L132.01915478515625,40.874637109375L132.42015478515626,40.206937109375Q133.08215478515626,39.104237109375,132.18115478515625,36.159537109375Q130.72515478515626,31.402637109375,132.51115478515624,28.836137109375Q133.60415478515625,27.265337109375,133.12815478515626,24.059037109375Q132.59515478515624,20.473237109375,130.34715478515625,16.743137109375Q129.79215478515624,15.820537109375,129.09115478515625,15.342337109375Q127.29415478515625,14.122137109375,123.69815478515625,13.730637109375Q120.10715478515625,13.339637109375,117.81715478515625,12.531737109375Q115.02415478515626,11.546787109375,112.66715478515626,9.184237109375001Q110.95815478515625,7.469607109375,109.00015478515625,6.579797109375Q105.22215478515625,4.8620371093750006,99.54145478515625,5.0119071093750005L99.50105478515626,5.0129671093749995Q90.20615478515624,5.285297109375,71.81525478515626,16.304337109375Q70.24595478515624,17.244537109375003,69.50085478515625,17.685637109375Q52.25525478515625,27.889937109375,45.81915478515625,30.644837109375Q34.82165478515625,35.352237109375,29.07595478515625,31.884937109375Q25.09155478515625,29.482637109375,23.17825478515625,21.306037109375Q21.42775478515625,13.825337109375,17.84855478515625,12.080007109375Q12.30083478515625,9.367997109375,8.27721478515625,12.215777109375Q4.91765478515625,14.589537109375,5.00194478515625,22.720737109375L5.00220478515625,22.746237109375Q5.03899478515625,26.053237109375,6.57979478515625,30.257437109375Q8.96569478515625,36.799237109375,14.30325478515625,42.112137109375L15.16765478515625,42.972537109375L15.02165478515625,44.183337109375Q13.73535478515625,54.847537109375,17.472554785156248,64.79313710937501Q21.28615478515625,74.922437109375,29.33395478515625,82.107037109375Z" fill-rule="evenodd" fill="#313131" fill-opacity="1"/></g><g><path d="M89.51995107421875,61.413157421875Q89.52395107421876,61.131457421875,89.65805107421875,60.801957421875L94.28955107421875,62.685757421875Q94.99935107421875,60.940657421875,92.41935107421875,53.903257421875Q90.89715107421875,49.751557421875,73.02664107421874,26.192967421875L69.04306107421876,29.214747421875Q86.46065107421875,52.176257421875,87.72485107421875,55.624357421875004Q88.81185107421875,58.589057421875,89.25915107421875,60.231057421875Q89.45495107421876,60.949657421875,89.50855107421876,61.334057421875L89.51995107421875,61.413157421875Z" fill-rule="evenodd" fill="#313131" fill-opacity="1"/></g><g><path d="M118.60675751953124,11.870726015625Q73.34388751953125,25.543916015625,74.13606751953125,35.394316015625L79.11997751953125,34.993516015625005Q78.94113751953125,32.769816015625,88.08845751953125,28.286216015625Q98.58125751953125,23.143286015625,120.05265751953125,16.657106015625L118.60675751953124,11.870726015625Z" fill-rule="evenodd" fill="#313131" fill-opacity="1"/></g><g><path d="M134.74766376953124,29.50983591796875Q106.42946376953125,26.29083591796875,85.32604376953125,48.10561591796875L88.91968376953125,51.58211591796875Q108.31126376953125,31.53691101796875,134.18286376953125,34.47783591796875L134.74766376953124,29.50983591796875Z" fill-rule="evenodd" fill="#313131" fill-opacity="1"/></g><g><path d="M23.868575644531248,80.103759765625Q11.012685644531249,103.603859765625,27.96527564453125,112.49385976562499Q37.46953564453125,120.653759765625,46.46523564453125,117.99385976562499Q55.02293564453125,117.153759765625,63.07203564453125,105.493759765625L63.59063564453125,102.093659765625Q43.11943564453125,102.333659765625,37.96363564453125,94.943659765625Q31.811035644531252,89.723689765625,29.61453564453125,85.603639765625Q27.41797564453125,81.483579765625,23.868575644531248,80.103759765625Z" fill="#FFFFFF" fill-opacity="1"/><path d="M46.947635644531246,120.45675976562501Q56.52823564453125,119.373659765625,65.12943564453124,106.913959765625L65.45653564453124,106.440059765625L66.50623564453124,99.559359765625L63.56133564453125,99.593859765625Q44.412935644531245,99.818359765625,40.01393564453125,93.513159765625L39.82833564453125,93.247159765625L39.58093564453125,93.037359765625Q33.79243564453125,88.126249765625,31.820535644531247,84.427519765625Q29.18793564453125,79.489374765625,24.77440564453125,77.773639765625L22.72870564453125,76.978369765625L21.67531564453125,78.903919765625Q14.85880564453125,91.36425976562501,15.98456564453125,100.265059765625Q17.15678564453125,109.533059765625,26.55159564453125,114.573959765625Q36.86273564453125,123.307859765625,46.947635644531246,120.45675976562501ZM45.984435644531246,115.529059765625L45.75643564453125,115.596459765625Q38.06553564453125,117.870559765625,29.59383564453125,110.597059765625L29.37813564453125,110.411859765625L29.126335644531252,110.279859765625Q21.80550564453125,106.440759765625,20.94504564453125,99.637659765625Q20.11850564453125,93.102659765625,24.879925644531248,83.561409765625Q26.32072564453125,84.739549765625,27.40841564453125,86.779759765625Q29.78583564453125,91.239059765625,36.11203564453125,96.650559765625Q41.75373564453125,104.263559765625,60.65623564453125,104.586659765625Q53.44493564453125,114.79665976562501,46.22103564453125,115.50585976562499L45.984435644531246,115.529059765625Z" fill-rule="evenodd" fill="#313131" fill-opacity="1"/></g></g></g></g></g></svg>