<svg xmlns="http://www.w3.org/2000/svg" xmlns:xlink="http://www.w3.org/1999/xlink" fill="none" version="1.1" width="747" height="52" viewBox="0 0 747 52"><defs><clipPath id="master_svg0_56_56"><rect x="102" y="0" width="50" height="50" rx="0"/></clipPath><clipPath id="master_svg1_56_61"><rect x="202" y="0" width="50" height="50" rx="0"/></clipPath><clipPath id="master_svg2_56_66"><rect x="402" y="0" width="50" height="50" rx="0"/></clipPath><clipPath id="master_svg3_56_74"><rect x="502" y="2" width="50" height="50" rx="0"/></clipPath><clipPath id="master_svg4_56_75"><rect x="502" y="2" width="50" height="50" rx="0"/></clipPath><clipPath id="master_svg5_56_83"><rect x="602" y="1" width="50" height="50" rx="0"/></clipPath><clipPath id="master_svg6_56_84"><rect x="602" y="1" width="50" height="50" rx="0"/></clipPath><clipPath id="master_svg7_56_92"><rect x="697" y="1" width="50" height="50" rx="0"/></clipPath></defs><g><g><g><g><path d="M38.2812,1C38.2812,1,11.7188,1,11.7188,1C5.24666,1,0,5.98733,0,12.1395C0,12.1395,0,37.3891,0,37.3891C0,43.5412,5.24666,48.5286,11.7188,48.5286C11.7188,48.5286,38.2812,48.5286,38.2812,48.5286C44.7533,48.5286,50,43.5412,50,37.3891C50,37.3891,50,12.1395,50,12.1395C50,5.98733,44.7533,1,38.2812,1C38.2812,1,38.2812,1,38.2812,1Z" fill="#E14E1D" fill-opacity="1"/></g><g><path d="M9.375,8.055033206939697C9.375,8.055033206939697,11.05664,25.988333206939696,11.05664,25.988333206939696C11.05664,25.988333206939696,32.6797,25.988333206939696,32.6797,25.988333206939696C32.6797,25.988333206939696,31.9541,33.6801332069397,31.9541,33.6801332069397C31.9541,33.6801332069397,24.992,35.4695332069397,24.992,35.4695332069397C24.992,35.4695332069397,18.04297,33.6827332069397,18.04297,33.6827332069397C18.04297,33.6827332069397,17.578319999999998,28.743933206939698,17.578319999999998,28.743933206939698C17.578319999999998,28.743933206939698,11.31641,28.743933206939698,11.31641,28.743933206939698C11.31641,28.743933206939698,12.21191,38.26463320693969,12.21191,38.26463320693969C12.21191,38.26463320693969,24.9906,41.638433206939695,24.9906,41.638433206939695C24.9906,41.638433206939695,37.7855,38.26463320693969,37.7855,38.26463320693969C37.7855,38.26463320693969,39.501000000000005,20.0587332069397,39.501000000000005,20.0587332069397C39.501000000000005,20.0587332069397,16.7625,20.0587332069397,16.7625,20.0587332069397C16.7625,20.0587332069397,16.1916,13.985893206939696,16.1916,13.985893206939696C16.1916,13.985893206939696,40.066199999999995,13.985893206939696,40.066199999999995,13.985893206939696C40.066199999999995,13.985893206939696,40.625,8.055033206939697,40.625,8.055033206939697C40.625,8.055033206939697,9.375,8.055033206939697,9.375,8.055033206939697C9.375,8.055033206939697,9.375,8.055033206939697,9.375,8.055033206939697Z" fill="#FFFFFF" fill-opacity="1"/></g><g><path d="M25,8.055033206939697C25,8.055033206939697,9.375,8.055033206939697,9.375,8.055033206939697C9.375,8.055033206939697,11.05664,25.988333206939696,11.05664,25.988333206939696C11.05664,25.988333206939696,25,25.988333206939696,25,25.988333206939696C25,25.988333206939696,25,20.0587332069397,25,20.0587332069397C25,20.0587332069397,16.7625,20.0587332069397,16.7625,20.0587332069397C16.7625,20.0587332069397,16.1916,13.985893206939696,16.1916,13.985893206939696C16.1916,13.985893206939696,25,13.985893206939696,25,13.985893206939696C25,13.985893206939696,25,8.055033206939697,25,8.055033206939697C25,8.055033206939697,25,8.055033206939697,25,8.055033206939697ZM25,35.4669332069397C25,35.4669332069397,24.992,35.4695332069397,24.992,35.4695332069397C24.992,35.4695332069397,18.04297,33.6827332069397,18.04297,33.6827332069397C18.04297,33.6827332069397,17.578319999999998,28.743933206939698,17.578319999999998,28.743933206939698C17.578319999999998,28.743933206939698,11.31641,28.743933206939698,11.31641,28.743933206939698C11.31641,28.743933206939698,12.21191,38.26463320693969,12.21191,38.26463320693969C12.21191,38.26463320693969,24.9906,41.638433206939695,24.9906,41.638433206939695C24.9906,41.638433206939695,25.0002,41.6358332069397,25.0002,41.6358332069397C25.0002,41.6358332069397,25,35.4669332069397,25,35.4669332069397C25,35.4669332069397,25,35.4669332069397,25,35.4669332069397Z" fill="#EBEBEB" fill-opacity="1"/></g></g><g clip-path="url(#master_svg0_56_56)"><g><g><path d="M140.2812,0C140.2812,0,113.7188,0,113.7188,0C107.24666,0,102,5.24666,102,11.7188C102,11.7188,102,38.2812,102,38.2812C102,44.7533,107.24666,50,113.7188,50C113.7188,50,140.2812,50,140.2812,50C146.7533,50,152,44.7533,152,38.2812C152,38.2812,152,11.7188,152,11.7188C152,5.24666,146.7533,0,140.2812,0C140.2812,0,140.2812,0,140.2812,0Z" fill="#0277BD" fill-opacity="1"/></g><g><path d="M112.49863,20.048975C112.49863,20.048975,113.05762,26.287675,113.05762,26.287675C113.05762,26.287675,127.0187,26.287675,127.0187,26.287675C127.0187,26.287675,127.0187,20.048975,127.0187,20.048975C127.0187,20.048975,112.49863,20.048975,112.49863,20.048975C112.49863,20.048975,112.49863,20.048975,112.49863,20.048975ZM127.01859999999999,7.421875C127.01859999999999,7.421875,111.375,7.421875,111.375,7.421875C111.375,7.421875,111.942187,13.660544999999999,111.942187,13.660544999999999C111.942187,13.660544999999999,127.01859999999999,13.660544999999999,127.01859999999999,13.660544999999999C127.01859999999999,13.660544999999999,127.01859999999999,7.421875,127.01859999999999,7.421875C127.01859999999999,7.421875,127.01859999999999,7.421875,127.01859999999999,7.421875ZM127.01859999999999,42.742375C127.01859999999999,42.742375,127.01859999999999,36.251575,127.01859999999999,36.251575C127.01859999999999,36.251575,126.99119999999999,36.258775,126.99119999999999,36.258775C126.99119999999999,36.258775,120.04316,34.382774999999995,120.04316,34.382774999999995C120.04316,34.382774999999995,119.59902,29.407075,119.59902,29.407075C119.59902,29.407075,113.33633,29.407075,113.33633,29.407075C113.33633,29.407075,114.21035,39.202775,114.21035,39.202775C114.21035,39.202775,126.9898,42.750375,126.9898,42.750375C126.9898,42.750375,127.01859999999999,42.742375,127.01859999999999,42.742375C127.01859999999999,42.742375,127.01859999999999,42.742375,127.01859999999999,42.742375Z" fill="#EBEBEB" fill-opacity="1"/></g><g><path d="M134.6793003125,26.287675C134.6793003125,26.287675,133.9550803125,34.378675,133.9550803125,34.378675C133.9550803125,34.378675,126.9970703125,36.256875,126.9970703125,36.256875C126.9970703125,36.256875,126.9970703125,42.747275,126.9970703125,42.747275C126.9970703125,42.747275,139.7866703125,39.202775,139.7866703125,39.202775C139.7866703125,39.202775,139.8804703125,38.148675,139.8804703125,38.148675C139.8804703125,38.148675,141.3464703125,21.724375000000002,141.3464703125,21.724375000000002C141.3464703125,21.724375000000002,141.4986703125,20.048975,141.4986703125,20.048975C141.4986703125,20.048975,142.6249703125,7.421875,142.6249703125,7.421875C142.6249703125,7.421875,126.9970703125,7.421875,126.9970703125,7.421875C126.9970703125,7.421875,126.9970703125,13.660544999999999,126.9970703125,13.660544999999999C126.9970703125,13.660544999999999,135.7878903125,13.660544999999999,135.7878903125,13.660544999999999C135.7878903125,13.660544999999999,135.2203103125,20.048975,135.2203103125,20.048975C135.2203103125,20.048975,126.9970703125,20.048975,126.9970703125,20.048975C126.9970703125,20.048975,126.9970703125,26.287675,126.9970703125,26.287675C126.9970703125,26.287675,134.6793003125,26.287675,134.6793003125,26.287675C134.6793003125,26.287675,134.6793003125,26.287675,134.6793003125,26.287675Z" fill="#FFFFFF" fill-opacity="1"/></g></g></g><g clip-path="url(#master_svg1_56_61)"><g><g><path d="M240.2812,0C240.2812,0,213.7188,0,213.7188,0C207.24666,0,202,5.24666,202,11.7188C202,11.7188,202,38.2812,202,38.2812C202,44.7533,207.24666,50,213.7188,50C213.7188,50,240.2812,50,240.2812,50C246.7533,50,252,44.7533,252,38.2812C252,38.2812,252,11.7188,252,11.7188C252,5.24666,246.7533,0,240.2812,0C240.2812,0,240.2812,0,240.2812,0Z" fill="#F0DB4F" fill-opacity="1"/></g><g><path d="M215.14687412956056,41.78363243103027C215.14687412956056,41.78363243103027,218.97304892456054,39.46793243103028,218.97304892456054,39.46793243103028C219.71132892456055,40.77673243103027,220.38280892456055,41.884132431030274,221.99355892456055,41.884132431030274C223.53749892456054,41.884132431030274,224.51093892456055,41.28023243103027,224.51093892456055,38.931032431030275C224.51093892456055,38.931032431030275,224.51093892456055,22.954882431030274,224.51093892456055,22.954882431030274C224.51093892456055,22.954882431030274,229.20977892456054,22.954882431030274,229.20977892456054,22.954882431030274C229.20977892456054,22.954882431030274,229.20977892456054,38.997432431030276,229.20977892456054,38.997432431030276C229.20977892456054,43.864032431030274,226.35707892456054,46.079332431030274,222.19491892456054,46.079332431030274C218.43612892456053,46.079332431030274,216.25429892456054,44.132632431030274,215.14667892456055,41.78323243103027M231.76187892456056,41.28003243103028C231.76187892456056,41.28003243103028,235.58767892456055,39.065032431030275,235.58767892456055,39.065032431030275C236.59487892456053,40.709732431030275,237.90387892456056,41.91793243103027,240.21957892456055,41.91793243103027C242.16657892456055,41.91793243103027,243.40797892456055,40.944532431030275,243.40797892456055,39.60193243103028C243.40797892456055,37.99103243103028,242.13257892456056,37.420332431030275,239.98457892456054,36.48083243103027C239.98457892456054,36.48083243103027,238.81017892456055,35.97713243103027,238.81017892456055,35.97713243103027C235.42007892456056,34.53413243103027,233.17127892456054,32.72163243103027,233.17127892456054,28.895512431030273C233.17127892456054,25.371292431030273,235.85647892456055,22.686132431030273,240.05197892456056,22.686132431030273C243.03907892456056,22.686132431030273,245.18707892456055,23.726752431030274,246.73087892456056,26.445312431030274C246.73087892456056,26.445312431030274,243.07247892456056,28.794722431030273,243.07247892456056,28.794722431030273C242.26677892456055,27.351562431030274,241.39457892456056,26.781052431030275,240.05197892456056,26.781052431030275C238.67577892456055,26.781052431030275,237.80307892456054,27.65371243103027,237.80307892456054,28.794722431030273C237.80307892456054,30.204292431030275,238.67577892456055,30.775002431030273,240.68947892456055,31.647852431030273C240.68947892456055,31.647852431030273,241.86407892456054,32.151172431030275,241.86407892456054,32.151172431030275C245.85797892456054,33.86313243103027,248.10687892456053,35.608032431030274,248.10687892456053,39.53473243103028C248.10687892456053,43.76403243103027,244.78417892456054,46.07973243103027,240.32027892456054,46.07973243103027C235.95717892456054,46.07973243103027,233.13787892456054,43.99883243103027,231.76187892456056,41.28003243103028C231.76187892456056,41.28003243103028,231.76187892456056,41.28003243103028,231.76187892456056,41.28003243103028Z" fill="#323330" fill-opacity="1"/></g></g></g><g><path d="M343.11,17.405C342.5778,17.21,342.0412,17.0293,341.5006,16.863C341.5914,16.4666,341.675,16.0749,341.7492,15.6901C342.9676,9.3713,342.1711,4.280749999999999,339.4506,2.604695C336.8422,0.9979199999999999,332.5764,2.673348,328.2682,6.67923C327.8436,7.07471,327.4284,7.48161,327.023,7.89954C326.7517,7.62165,326.4755,7.34914,326.1947,7.08217C321.6795,2.798969,317.1537,0.9937499999999999,314.4361,2.6746C311.83008,4.286379999999999,311.0584,9.071860000000001,312.1553,15.0603C312.2644,15.6534,312.3876,16.243499999999997,312.5248,16.829900000000002C311.88418,17.0244,311.26602,17.2314,310.67441,17.451700000000002C305.38066,19.4237,302,22.5139,302,25.7193C302,29.0299,305.6293,32.3505,311.14297,34.364C311.58998,34.5265,312.0407,34.6771,312.4947,34.8157C312.3473,35.4473,312.2164,36.0832,312.1021,36.7226C311.05645,42.6071,311.87305,47.2795,314.4721,48.8811C317.1564,50.535,321.6619,48.8352,326.0488,44.7379C326.4045,44.4047,326.7524,44.0622,327.0922,43.7106C327.5312,44.1631,327.9819,44.6025,328.4438,45.0281C332.6934,48.9349,336.8902,50.5125,339.4867,48.9065C342.16859999999997,47.2478,343.0402,42.2284,341.9086,36.1216C341.8194,35.6432,341.7195,35.1671,341.6088,34.6939C341.9252,34.5937,342.2357,34.4906,342.5385,34.3834C348.27049999999997,32.3544,352,29.0741,352,25.7193C352,22.5022,348.5102,19.3911,343.11,17.405C343.11,17.405,343.11,17.405,343.11,17.405ZM341.8668,32.2173C341.5931,32.313900000000004,341.3131,32.407399999999996,341.027,32.498000000000005C340.3941,30.3577,339.5402,28.0819,338.4951,25.7304C339.4924,23.435,340.3135,21.1882,340.9285,19.0618C341.44,19.22,341.9363,19.3867,342.4148,19.5626C347.0418,21.2646,349.8641,23.7805,349.8641,25.7193C349.8641,27.7843,346.81600000000003,30.4651,341.8668,32.2173C341.8668,32.2173,341.8668,32.2173,341.8668,32.2173ZM339.8133,36.5648C340.3137,39.265,340.385,41.7065,340.0535,43.6152C339.7559,45.3303,339.157,46.4736,338.4164,46.9316C336.8408,47.9061,333.4711,46.6395,329.8369,43.2982C329.4073,42.9025,328.9881,42.494,328.5797,42.0733C329.9887,40.4271,331.3967,38.5134,332.7709,36.3879C335.1881,36.1587,337.4717,35.784,339.5426,35.2725C339.6448,35.7124,339.735,36.1432,339.8133,36.5648C339.8133,36.5648,339.8133,36.5648,339.8133,36.5648ZM319.0461,46.7632C317.5066,47.344,316.2805,47.3607,315.5393,46.9041C313.9621,45.9323,313.3064,42.1806,314.2008,37.1483C314.3071,36.5536,314.4288,35.9622,314.5658,35.3748C316.6139,35.8589,318.8809,36.2069,321.3037,36.4169C322.6873,38.4967,324.1359,40.4083,325.59590000000003,42.0823C325.2856,42.403,324.968,42.7156,324.6434,43.0197C322.7033,44.8314,320.7594,46.1168,319.0461,46.7632C319.0461,46.7632,319.0461,46.7632,319.0461,46.7632ZM311.83398,32.2046C309.3959,31.3142,307.38242,30.1571,306.00234,28.8945C304.76211,27.7599,304.13613,26.6333,304.13613,25.7193C304.13613,23.7741,306.85039,21.2929,311.37754,19.6067C311.92695,19.4022,312.502,19.2091,313.0986,19.028C313.7244,21.2024,314.5451,23.4759,315.5355,25.7748C314.5322,28.1078,313.6998,30.4175,313.068,32.617599999999996C312.6535,32.490700000000004,312.2421,32.353,311.83398,32.2046C311.83398,32.2046,311.83398,32.2046,311.83398,32.2046ZM314.2516,14.6219C313.3119,9.49129,313.9359,5.62105,315.5064,4.64968C317.1791,3.61509,320.8779,5.09019,324.7766,8.788689999999999C325.0308,9.0304,325.2809,9.27702,325.5268,9.52843C324.074,11.1951,322.6387,13.0926,321.2674,15.1601C318.9158,15.393,316.6648,15.7669,314.5953,16.267899999999997C314.4678,15.7225,314.3532,15.1735,314.2516,14.6219C314.2516,14.6219,314.2516,14.6219,314.2516,14.6219ZM335.8193,20.3122C335.33050000000003,19.4101,334.8236,18.5193,334.2988,17.6406C335.8941,17.856099999999998,337.4227,18.1422,338.858,18.4919C338.4271,19.9677,337.89,21.5104,337.2578,23.0921C336.7957,22.1553,336.3161,21.2285,335.8193,20.3122C335.8193,20.3122,335.8193,20.3122,335.8193,20.3122ZM327.024,11.15962C328.0092,12.3,328.9959,13.5731,329.9664,14.9545C327.9977,14.8552,326.0256,14.8548,324.0568,14.9533C325.0283,13.5846,326.0234,12.3132,327.024,11.15962C327.024,11.15962,327.024,11.15962,327.024,11.15962ZM318.1723,20.3276C317.6817,21.2366,317.2111,22.1576,316.7607,23.09C316.1389,21.5139,315.6066,19.9641,315.1721,18.4675C316.5986,18.1266,318.11990000000003,17.8478,319.7051,17.636200000000002C319.1745,18.5203,318.6634,19.4179,318.1723,20.3276C318.1723,20.3276,318.1723,20.3276,318.1723,20.3276ZM319.7506,33.964600000000004C318.1129,33.7692,316.5688,33.5049,315.1426,33.173100000000005C315.584,31.6498,316.1279,30.067,316.7633,28.4571C317.2154,29.3902,317.688,30.3118,318.1807,31.2211C318.6873,32.156,319.2119,33.071600000000004,319.7506,33.964600000000004C319.7506,33.964600000000004,319.7506,33.964600000000004,319.7506,33.964600000000004ZM327.08299999999997,40.4396C326.0705,39.2728,325.0607,37.9817,324.0746,36.5932C325.032,36.6333,326.008,36.6537,327,36.6537C328.0191,36.6537,329.0266,36.6293,330.0182,36.5821C329.04449999999997,37.9957,328.0615,39.2886,327.08299999999997,40.4396C327.08299999999997,40.4396,327.08299999999997,40.4396,327.08299999999997,40.4396ZM337.2779,28.3749C337.9463,30.0025,338.5096,31.5769,338.9568,33.074200000000005C337.5072,33.4276,335.942,33.7123,334.2928,33.9237C334.8213,33.0286,335.33299999999997,32.122299999999996,335.8277,31.2055C336.3308,30.2736,336.8143,29.3298,337.2779,28.3749C337.2779,28.3749,337.2779,28.3749,337.2779,28.3749ZM333.9775,30.0653C333.2201,31.471,332.4201,32.85,331.5789,34.2001C330.055,34.3155,328.5277,34.3728,327,34.3719C325.4439,34.3719,323.9305,34.3201,322.473,34.2191C321.6098,32.8721,320.79449999999997,31.4907,320.02909999999997,30.0778C319.2672,28.6725,318.5557,27.2367,317.8959,25.7736C318.554,24.3101,319.2635,22.8736,320.0229,21.4672C320.0229,21.4672,320.0227,21.4674,320.0227,21.4674C320.7816,20.0605,321.5903,18.685,322.4471,17.3438C323.934,17.223599999999998,325.4588,17.161,326.9998,17.161C328.5479,17.161,330.0748,17.2243,331.5613,17.3453C332.4094,18.6845,333.213,20.0553,333.9705,21.4551C334.7322,22.8585,335.4511,24.2879,336.126,25.7412C335.45799999999997,27.2093,334.7414,28.6516,333.9775,30.0653C333.9775,30.0653,333.9775,30.0653,333.9775,30.0653ZM338.3838,4.58145C340.058,5.61312,340.7092,9.77341,339.6572,15.2291C339.58979999999997,15.5775,339.5149,15.9315,339.4326,16.2913C337.358,15.7796,335.1055,15.3992,332.7471,15.1628C331.3732,13.0725,329.9496,11.17214,328.52049999999997,9.52697C328.8951,9.141259999999999,329.2785,8.76553,329.6705,8.40014C333.3619,4.968109999999999,336.8119,3.613,338.3838,4.58145C338.3838,4.58145,338.3838,4.58145,338.3838,4.58145ZM327,20.9491C329.4658,20.9491,331.4648,23.0848,331.4648,25.7193C331.4648,28.3538,329.4658,30.4895,327,30.4895C324.5342,30.4895,322.5352,28.3538,322.5352,25.7193C322.5352,23.0848,324.5342,20.9491,327,20.9491C327,20.9491,327,20.9491,327,20.9491Z" fill="#00D8FF" fill-opacity="1"/></g><g clip-path="url(#master_svg2_56_66)"><g><path d="M442,0C442,0,452,0,452,0C452,0,427,49.9548,427,49.9548C427,49.9548,402,0,402,0C402,0,421.125,0,421.125,0C421.125,0,427,11.5837,427,11.5837C427,11.5837,432.75,0,432.75,0C432.75,0,442,0,442,0C442,0,442,0,442,0Z" fill="#41B883" fill-opacity="1"/></g><g><path d="M402,0C402,0,427,49.9548,427,49.9548C427,49.9548,452,0,452,0C452,0,442,0,442,0C442,0,427,29.9728,427,29.9728C427,29.9728,411.875,0,411.875,0C411.875,0,402,0,402,0C402,0,402,0,402,0Z" fill="#41B883" fill-opacity="1"/></g><g><path d="M411.875,0C411.875,0,427,30.1176,427,30.1176C427,30.1176,442,0,442,0C442,0,432.75,0,432.75,0C432.75,0,427,11.5837,427,11.5837C427,11.5837,421.125,0,421.125,0C421.125,0,411.875,0,411.875,0C411.875,0,411.875,0,411.875,0Z" fill="#35495E" fill-opacity="1"/></g></g><g clip-path="url(#master_svg3_56_74)"><g clip-path="url(#master_svg4_56_75)"><g><g><path d="M540.2812,2C540.2812,2,513.7188,2,513.7188,2C507.24666,2,502,7.24666,502,13.7188C502,13.7188,502,40.2812,502,40.2812C502,46.7533,507.24666,52,513.7188,52C513.7188,52,540.2812,52,540.2812,52C546.7533,52,552,46.7533,552,40.2812C552,40.2812,552,13.7188,552,13.7188C552,7.24666,546.7533,2,540.2812,2C540.2812,2,540.2812,2,540.2812,2Z" fill="#001E36" fill-opacity="1"/></g><g><path d="M513.25,36.77343631896973C513.25,36.77343631896973,513.25,15.335937318969727,513.25,15.335937318969727C513.25,15.190038318969727,513.3125003,15.106836318969727,513.458399,15.106836318969727C513.8125,15.106836318969727,514.145899,15.106835318969727,514.625,15.085937318969727C515.125,15.065038918969726,515.6459,15.065039418969727,516.2084,15.044336218969727C516.7709,15.023437818969727,517.375,15.023436918969727,518.0209,15.002538518969727C518.6666,14.981835377460726,519.2916,14.981836318969734,519.9166,14.981836318969734C521.625,14.981836318969734,523.0416,15.190039318969726,524.2084,15.627539318969726C525.2542,15.982716318969727,526.2078,16.566306318969726,527,17.335936318969726C527.6713,18.009466318969725,528.19,18.819426318969725,528.5209,19.710936318969726C528.8334,20.585936318969726,529,21.481836318969727,529,22.419336318969727C529,24.21093631896973,528.5834,25.690036318969725,527.75,26.856836318969727C526.9166,28.02343631896973,525.75,28.89843631896973,524.3959,29.39843631896973C522.9791,29.919336318969727,521.4166,30.106836318969727,519.7084,30.106836318969727C519.2084,30.106836318969727,518.875,30.106836318969727,518.6666,30.08593631896973C518.4584,30.065036318969725,518.1666,30.065036318969725,517.7709,30.065036318969725C517.7709,30.065036318969725,517.7709,36.75253631896973,517.7709,36.75253631896973C517.7916,36.89843631896973,517.6875,37.02343631896973,517.5416,37.04433631896973C517.5416,37.04433631896973,513.500001,37.04433631896973,513.500001,37.04433631896973C513.3333989,37.04433631896973,513.25,36.96093631896973,513.25,36.77343631896973C513.25,36.77343631896973,513.25,36.77343631896973,513.25,36.77343631896973ZM517.7916,19.127536318969725C517.7916,19.127536318969725,517.7916,26.127536318969725,517.7916,26.127536318969725C518.0834,26.14843631896973,518.3541,26.169336318969727,518.6041,26.169336318969727C518.6041,26.169336318969727,519.7084,26.169336318969727,519.7084,26.169336318969727C520.5209,26.169336318969727,521.3334,26.044336318969727,522.1041,25.794336318969727C522.7709,25.606836318969727,523.3541,25.21093631896973,523.8125,24.690036318969725C524.25,24.169336318969727,524.4584,23.46093631896973,524.4584,22.544336318969727C524.478,21.893266318969726,524.3117,21.25008631896973,523.9791,20.690036318969725C523.625,20.148436318969726,523.125,19.731836318969727,522.5209,19.502536318969725C521.75,19.190036318969725,520.9166,19.065036318969725,520.0625,19.085936318969726C519.5209,19.085936318969726,519.0416,19.085936318969726,518.6459,19.106836318969727C518.2291,19.085936318969726,517.9375,19.106836318969727,517.7916,19.127536318969725C517.7916,19.127536318969725,517.7916,19.127536318969725,517.7916,19.127536318969725ZM542,24.856836318969727C541.375,24.52343631896973,540.7084,24.294336318969727,540,24.14843631896973C539.2291,23.981836318969727,538.4584,23.877536318969725,537.6666,23.877536318969725C537.25,23.856836318969727,536.8125,23.919336318969727,536.4166,24.02343631896973C536.1459,24.08593631896973,535.9166,24.231836318969727,535.7709,24.440036318969725C535.6666,24.606836318969727,535.6041,24.815036318969725,535.6041,25.002536318969725C535.6041,25.190036318969725,535.6875,25.377536318969725,535.8125,25.544336318969727C536,25.77343631896973,536.25,25.96093631896973,536.5209,26.106836318969727C537.0039,26.357036318969726,537.4974,26.586336318969728,538,26.794336318969727C539.125,27.169336318969727,540.2084,27.690036318969725,541.2084,28.315036318969725C541.8959,28.752536318969725,542.4584,29.33593631896973,542.8541,30.044336318969727C543.1875,30.71093631896973,543.3541,31.440036318969728,543.3334,32.19003631896973C543.3541,33.16933631896973,543.0625,34.14843631896973,542.5209,34.96093631896973C541.9398,35.792536318969724,541.1289,36.436836318969725,540.1875,36.81503631896973C539.1666,37.25253631896973,537.9166,37.48183631896973,536.4166,37.48183631896973C535.4584,37.48183631896973,534.5209,37.39843631896973,533.5834,37.21093631896973C532.8486,37.08403631896972,532.134,36.85983631896973,531.4584,36.54433631896973C531.3125,36.46093631896973,531.2084,36.31503631896973,531.2291,36.14843631896973C531.2291,36.14843631896973,531.2291,32.52343631896973,531.2291,32.52343631896973C531.2291,32.46093631896973,531.25,32.37753631896973,531.3125,32.33593631896973C531.375,32.29433631896973,531.4375,32.31503631896973,531.5,32.35683631896973C532.3125,32.83593631896973,533.1666,33.16933631896973,534.0834,33.37753631896973C534.875,33.58593631896973,535.7084,33.69003631896973,536.5416,33.69003631896973C537.3334,33.69003631896973,537.8959,33.58593631896973,538.2709,33.39843631896973C538.6041,33.25253631896973,538.8334,32.89843631896973,538.8334,32.52343631896973C538.8334,32.23183631896973,538.6666,31.960936318969726,538.3334,31.690036318969728C538,31.419336318969727,537.3125,31.106836318969727,536.2916,30.71093631896973C535.2444,30.341936318969726,534.2499,29.83763631896973,533.3334,29.21093631896973C532.6806,28.745636318969726,532.1397,28.140636318969726,531.75,27.440036318969725C531.4166,26.77343631896973,531.25,26.044336318969727,531.2709,25.315036318969725C531.2709,24.419336318969727,531.5209,23.565036318969725,531.9791,22.794336318969727C532.5,21.960936318969726,533.2709,21.294336318969727,534.1666,20.877536318969725C535.1459,20.377536318969725,536.375,20.148436318969726,537.8541,20.148436318969726C538.7084,20.148436318969726,539.5834,20.210936318969726,540.4375,20.335936318969726C541.0625,20.419336318969727,541.6666,20.585936318969726,542.2291,20.815036318969725C542.3125,20.835936318969726,542.3959,20.919336318969727,542.4375,21.002536318969725C542.4584,21.085936318969726,542.4791,21.169336318969727,542.4791,21.252536318969725C542.4791,21.252536318969725,542.4791,24.64843631896973,542.4791,24.64843631896973C542.4791,24.731836318969727,542.4375,24.815036318969725,542.375,24.856836318969727C542.1875,24.89843631896973,542.0834,24.89843631896973,542,24.856836318969727C542,24.856836318969727,542,24.856836318969727,542,24.856836318969727Z" fill="#31A8FF" fill-opacity="1"/></g></g></g></g><g clip-path="url(#master_svg5_56_83)"><g clip-path="url(#master_svg6_56_84)"><g><g><path d="M640.2812,1C640.2812,1,613.7188,1,613.7188,1C607.24666,1,602,6.24666,602,12.7188C602,12.7188,602,39.2812,602,39.2812C602,45.7533,607.24666,51,613.7188,51C613.7188,51,640.2812,51,640.2812,51C646.7533,51,652,45.7533,652,39.2812C652,39.2812,652,12.7188,652,12.7188C652,6.24666,646.7533,1,640.2812,1C640.2812,1,640.2812,1,640.2812,1Z" fill="#330000" fill-opacity="1"/></g><g><path d="M626.1665768936157,30.7525375C626.1665768936157,30.7525375,618.4165968936157,30.7525375,618.4165968936157,30.7525375C618.4165968936157,30.7525375,616.8332068936157,35.6484375,616.8332068936157,35.6484375C616.7915968936157,35.8359375,616.6249968936157,35.9609375,616.4374968936157,35.9400375C616.4374968936157,35.9400375,612.5207038936157,35.9400375,612.5207038936157,35.9400375C612.2916018936157,35.9400375,612.2291018936157,35.8150375,612.2916018936157,35.5650375C612.2916018936157,35.5650375,618.9999968936157,16.2525375,618.9999968936157,16.2525375C619.0624968936157,16.0443375,619.1249968936157,15.815037499999999,619.2082068936157,15.565037499999999C619.2916068936157,15.127537499999999,619.3332068936157,14.669337500000001,619.3332068936157,14.2109375C619.3124968936157,14.1068375,619.3957068936157,14.0025375,619.4999968936157,13.9818375C619.4999968936157,13.9818375,624.8956768936157,13.9818375,624.8956768936157,13.9818375C625.0624768936157,13.9818375,625.1456768936157,14.0443375,625.1665768936157,14.1484375C625.1665768936157,14.1484375,632.7706768936157,35.6068375,632.7706768936157,35.6068375C632.8331768936157,35.8359375,632.7706768936157,35.9400375,632.5624768936157,35.9400375C632.5624768936157,35.9400375,628.2081768936157,35.9400375,628.2081768936157,35.9400375C628.0624768936157,35.9609375,627.9165768936157,35.8568375,627.8749768936157,35.7109375C627.8749768936157,35.7109375,626.1665768936157,30.7525375,626.1665768936157,30.7525375C626.1665768936157,30.7525375,626.1665768936157,30.7525375,626.1665768936157,30.7525375ZM619.6249968936157,26.5234375C619.6249968936157,26.5234375,624.9165768936157,26.5234375,624.9165768936157,26.5234375C624.7915768936157,26.0859375,624.6249768936157,25.565037500000003,624.4374768936157,25.0234375C624.2499768936157,24.4609375,624.0624768936157,23.856837499999997,623.8749768936157,23.231837499999997C623.6665768936157,22.5859375,623.4790768936157,21.9609375,623.2706768936157,21.315037500000003C623.0624768936157,20.669337499999997,622.8749768936157,20.0650375,622.7081768936157,19.4609375C622.5415768936157,18.877737500000002,622.3956768936157,18.3359375,622.2499968936157,17.8359375C622.2499968936157,17.8359375,622.2082068936157,17.8359375,622.2082068936157,17.8359375C622.0207068936157,18.7318375,621.7915968936157,19.627737500000002,621.4999968936157,20.5234375C621.1874968936157,21.5234375,620.8749968936157,22.565037500000003,620.5415968936157,23.606837499999997C620.2725368936158,24.5901375,619.9667868936157,25.5630375,619.6249968936157,26.5234375C619.6249968936157,26.5234375,619.6249968936157,26.5234375,619.6249968936157,26.5234375ZM637.4165768936157,17.6275375C636.7290768936157,17.6484375,636.0624768936157,17.3775375,635.5624768936157,16.8984375C635.0833768936158,16.3775375,634.8333768936158,15.690037499999999,634.8540768936157,14.981837500000001C634.8333768936158,14.2734375,635.1040768936157,13.6068375,635.6040768936157,13.1275385C636.1040768936157,12.6484375,636.7708768936158,12.3984375,637.4583768936158,12.3984375C638.2708768936158,12.3984375,638.8958768936158,12.6484375,639.3540768936157,13.1275385C639.8157768936157,13.6326375,640.0624768936157,14.2978275,640.0415768936157,14.981837500000001C640.0624768936157,15.690037499999999,639.8124768936157,16.3775375,639.3124768936157,16.8984375C638.8333768936158,17.3984375,638.1249768936157,17.6693375,637.4165768936157,17.6275375C637.4165768936157,17.6275375,637.4165768936157,17.6275375,637.4165768936157,17.6275375ZM635.0833768936158,35.7109375C635.0833768936158,35.7109375,635.0833768936158,19.6693375,635.0833768936158,19.6693375C635.0833768936158,19.4609375,635.1665768936157,19.3775375,635.3540768936157,19.3775375C635.3540768936157,19.3775375,639.4790768936157,19.3775375,639.4790768936157,19.3775375C639.6665768936157,19.3775375,639.7499768936157,19.4818375,639.7499768936157,19.6693375C639.7499768936157,19.6693375,639.7499768936157,35.7109375,639.7499768936157,35.7109375C639.7499768936157,35.9400375,639.6665768936157,36.0443375,639.4790768936157,36.0443375C639.4790768936157,36.0443375,635.3958768936158,36.0443375,635.3958768936158,36.0443375C635.1874768936157,36.0443375,635.0833768936158,35.9193375,635.0833768936158,35.7109375C635.0833768936158,35.7109375,635.0833768936158,35.7109375,635.0833768936158,35.7109375Z" fill="#FF9A00" fill-opacity="1"/></g></g></g></g><g clip-path="url(#master_svg7_56_92)"><g><path d="M714.77344,51.39065C719.4219,51.39065,723.1719,47.64065,723.1719,42.99219C723.1719,42.99219,723.1719,34.59375,723.1719,34.59375C723.1719,34.59375,714.77344,34.59375,714.77344,34.59375C710.125,34.59375,706.375,38.34375,706.375,42.99219C706.375,47.64065,710.125,51.39065,714.77344,51.39065C714.77344,51.39065,714.77344,51.39065,714.77344,51.39065Z" fill="#0ACF83" fill-opacity="1"/></g><g><path d="M706.375,26.195315C706.375,21.546875,710.125,17.796875,714.77344,17.796875C714.77344,17.796875,723.1719,17.796875,723.1719,17.796875C723.1719,17.796875,723.1719,34.593775,723.1719,34.593775C723.1719,34.593775,714.77344,34.593775,714.77344,34.593775C710.125,34.593775,706.375,30.843775,706.375,26.195315C706.375,26.195315,706.375,26.195315,706.375,26.195315Z" fill="#A259FF" fill-opacity="1"/></g><g><path d="M706.375,9.39844C706.375,4.75,710.125,1,714.77344,1C714.77344,1,723.1719,1,723.1719,1C723.1719,1,723.1719,17.7969,723.1719,17.7969C723.1719,17.7969,714.77344,17.7969,714.77344,17.7969C710.125,17.7969,706.375,14.0469,706.375,9.39844C706.375,9.39844,706.375,9.39844,706.375,9.39844Z" fill="#F24E1E" fill-opacity="1"/></g><g><path d="M723.171875,1C723.171875,1,731.570315,1,731.570315,1C736.218775,1,739.968775,4.75,739.968775,9.39844C739.968775,14.0469,736.218775,17.7969,731.570315,17.7969C731.570315,17.7969,723.171875,17.7969,723.171875,17.7969C723.171875,17.7969,723.171875,1,723.171875,1C723.171875,1,723.171875,1,723.171875,1Z" fill="#FF7262" fill-opacity="1"/></g><g><path d="M739.968775,26.195315C739.968775,30.843775,736.218775,34.593775,731.570315,34.593775C726.921875,34.593775,723.171875,30.843775,723.171875,26.195315C723.171875,21.546875,726.921875,17.796875,731.570315,17.796875C736.218775,17.796875,739.968775,21.546875,739.968775,26.195315C739.968775,26.195315,739.968775,26.195315,739.968775,26.195315Z" fill="#1ABCFE" fill-opacity="1"/></g></g></g></g></svg>