<svg xmlns="http://www.w3.org/2000/svg" xmlns:xlink="http://www.w3.org/1999/xlink" fill="none" version="1.1" width="45" height="45" viewBox="0 0 45 45"><g><g><path d="M0 35C0 35 0 35 0 35L45 35C45 35 45 35 45 35L45 40C45 42.76142374915397 42.76142374915397 45 40 45L5 45C2.2385762508460334 45 0 42.76142374915397 0 40Z" fill="#000000" fill-opacity="1"/></g><g><rect x="0" y="0" width="45" height="43" rx="7" fill="#537293" fill-opacity="1"/><rect x="1" y="1" width="43" height="41" rx="6" fill-opacity="0" stroke-opacity="1" stroke="#000000" fill="none" stroke-width="2"/></g><g><rect x="12" y="21" width="3" height="10" rx="0" fill="#FFFFFF" fill-opacity="1"/></g><g><rect x="18" y="16" width="3" height="15" rx="0" fill="#FFFFFF" fill-opacity="1"/></g><g><rect x="24" y="22" width="3" height="9" rx="0" fill="#FFFFFF" fill-opacity="1"/></g><g><rect x="30" y="26" width="3" height="5" rx="0" fill="#FFFFFF" fill-opacity="1"/></g></g></svg>