<svg xmlns="http://www.w3.org/2000/svg" xmlns:xlink="http://www.w3.org/1999/xlink" fill="none" version="1.1" width="185.139404296875" height="81.411376953125" viewBox="0 0 185.139404296875 81.411376953125"><g><g><path d="M129.13686746875,38.0775C128.36397646875,36.9375,128.50636446875,35.7375,129.62498346875,30.5275C130.85551546875,24.8076,131.44529546875,21.9475,132.37075546875,18.9075C133.96737546875,13.6275,134.77074546875,10.9976,135.72667546875,9.45752C137.04869546875,7.34753,139.64195546875,4.16754,144.81825546875,1.66754C149.14025546875,0.287537,156.23855546875,-1.14246,163.64185546875,1.40753C177.00465546875,6.01752,186.09605546875,21.7675,185.05885546874998,40.4675Q185.05885546874998,75.9575,160.65215546875,79.2775Q142.21485546875,82.3375,133.25549546875,61.7875C139.20465546875,48.1075,138.80805546875,42.8375,136.57076546875,40.9875C134.47585546875,39.2476,130.81485546875,40.5576,129.12668846875,38.0676L129.13686746875,38.0775Z" fill="#FFFFFF" fill-opacity="1"/></g><g><path d="M25.4996,1.187438975C23.5674,1.117431675,19.5199,1.237426375,15.0962,3.407409375C10.581,5.617429375,8.0284,8.807429375,6.93008,10.377379375C4.04191,16.217409375000003,0.828382,24.807409375,0.187699,35.467409375C-0.0868975,39.987409375,-0.442805,46.897409375,2.20124,55.207409375C5.68937,66.167409375,12.4317,73.397409375,16.6724,77.217409375C18.4215,78.137409375,26.4758,82.107409375,36.0148,79.277409375C49.6826,75.217409375,53.3741,61.037409375,53.5368,60.367409375Q40.947,40.967409375,56.3944,39.307409375C57.2182,22.827409375,50.3436,8.587459375,38.7707,3.337459375C36.1571,2.157469375,31.7334,0.707458375,25.4995,1.197448775L25.4996,1.187438975Z" fill="#FFFFFF" fill-opacity="1"/></g><g><ellipse cx="148.0012331008911" cy="31.097362518310547" rx="15.366101264953613" ry="27.799999237060547" fill="#313131" fill-opacity="1"/></g><g><ellipse cx="19.062358856201172" cy="29.257383346557617" rx="14.928813934326172" ry="26.940000534057617" fill="#313131" fill-opacity="1"/></g><g transform="matrix(0.9802985191345215,-0.19752196967601776,0.20399783551692963,0.9789713621139526,-2.3387511586952314,5.001170429877675)"><ellipse cx="27.481849431991577" cy="19.64235210418701" rx="3.628089666366577" ry="5.874041557312012" fill="#FFFFFF" fill-opacity="1"/></g><g transform="matrix(0.9802985191345215,-0.19752196967601776,0.20399783551692963,0.9789713621139526,0.3762068608630216,30.04188742396036)"><ellipse cx="155.8013892173767" cy="18.58790874481201" rx="5.061032772064209" ry="5.874041557312012" fill="#FFFFFF" fill-opacity="1"/></g><g><g><path d="M53.547106734375,44.1474609375C53.872538234375,47.9374409375,55.011515234375,55.2174609375,59.760655234375,62.7174609375C65.465765234375,71.7174609375,73.153865234375,75.93746093749999,76.825065234375,77.62746093749999C77.597965234375,77.9874609375,79.753865234375,78.62746093749999,82.133565234375,79.2674609375C85.367465234375,80.13746093750001,89.028465234375,80.9974609375,90.248765234375,81.0874609375C108.614865234375,81.4874609375,124.052165234375,73.10746093750001,129.960665234375,59.8974609375C131.892865234375,55.5774609375,132.767365234375,50.3974609375,132.045365234375,44.1574707375L53.536865234375,44.1574707375L53.547106734375,44.1474609375Z" fill="#313131" fill-opacity="1"/></g><g><path d="M82.27606553125,46.1074829102C81.72693453125,49.457461875,82.74388453125,52.487491875,84.92010453125,53.767451875C85.39804453125,54.047481875,86.14046453125,54.367431875,87.21842453125,54.427431874999996C87.82856453125,54.347411875,89.77097453125,53.997431875000004,91.27604453125,52.337401875C93.59469453125,49.767391875,92.75059453125,46.397399875,92.66929453125,46.107421875L82.28618253125,46.107421875L82.27606553125,46.1074829102Z" fill="#FFFFFF" fill-opacity="1"/></g><g><path d="M94.8047520546875,45.87750244145C94.2556210546875,49.22748140625,95.2725710546875,52.25751140625,97.4487910546875,53.53747140625C97.9267310546875,53.81750140625,98.6691510546875,54.13745140625,99.7471110546875,54.197451406249996C100.3572510546875,54.11743140625,102.2996610546875,53.767451406250004,103.8047310546875,52.10742140625C106.1233810546875,49.53741140625,105.2792810546875,46.16741940625,105.1979810546875,45.87744140625L94.8148690546875,45.87744140625L94.8047520546875,45.87750244145Z" fill="#FFFFFF" fill-opacity="1"/></g><g><path d="M88.4284258203125,66.9373828125C82.4691158203125,69.8273928125,82.0318358203125,73.60738281249999,81.8589098203125,74.3873828125C81.4114498203125,76.3773828125,81.7775358203125,78.1373828125,82.1436848203125,79.2673828125C85.7030058203125,80.5573828125,88.7640358203125,81.0473828125,90.9403158203125,81.2573828125C94.8657658203125,81.6273828125,97.9673658203125,81.2573828125,100.7233658203125,80.9173828125C102.26916582031251,80.7273828125,104.5979658203125,80.4473828125,107.0996658203125,79.7973828125C117.6250658203125,77.0773828125,124.0115658203125,69.7573828125,125.0894658203125,68.4973728125C126.3200658203125,67.0573728125,128.0589658203125,64.7873528125,129.6352658203125,61.6273808125C126.51316582031251,61.2073978125,122.34366582031251,60.8173828125,117.4114658203125,60.8173828125C113.6284658203125,60.8173828125,109.10306582031251,60.8474121125,103.4589658203125,61.9273728125C99.6860658203125,62.6473428125,94.4080658203125,64.0473628125,88.4284258203125,66.9373828125Z" fill="#A34435" fill-opacity="1"/></g></g></g></svg>