<svg xmlns="http://www.w3.org/2000/svg" xmlns:xlink="http://www.w3.org/1999/xlink" viewBox="0 0 1000 1000"
    width="1000" height="1000" preserveAspectRatio="xMidYMid meet">
    <defs>
        <clipPath id="__lottie_element_1965">
            <rect width="1000" height="1000" x="0" y="0"></rect>
        </clipPath>
    </defs>
    <g clip-path="url(#__lottie_element_1965)">
        <g id="sun-wings" transform="matrix(0.3117581903934479,0.9370296001434326,-0.9370296001434326,0.3117581903934479,499.7869873046875,499.7869873046875)"
            opacity="1" style="display: block;">
            <g opacity="1" transform="matrix(1,0,0,1,0,0)">
                <path fill="rgb(252,207,61)" fill-opacity="1"
                    d=" M132.1999969482422,-468.0320129394531 C132.1999969482422,-468.0320129394531 127.08499908447266,-474.2869873046875 127.08499908447266,-474.2869873046875 C127.08499908447266,-474.2869873046875 119.52799987792969,-471.4280090332031 119.52799987792969,-471.4280090332031 C42.50699996948242,-442.2869873046875 -42.50699996948242,-442.2869873046875 -119.52799987792969,-471.4280090332031 C-119.52799987792969,-471.4280090332031 -127.08499908447266,-474.2869873046875 -127.08499908447266,-474.2869873046875 C-127.08499908447266,-474.2869873046875 -132.1999969482422,-468.0320129394531 -132.1999969482422,-468.0320129394531 C-184.33099365234375,-404.28399658203125 -257.9549865722656,-361.7770080566406 -339.2279968261719,-348.5039978027344 C-339.2279968261719,-348.5039978027344 -347.2019958496094,-347.2019958496094 -347.2019958496094,-347.2019958496094 C-347.2019958496094,-347.2019958496094 -348.5039978027344,-339.2279968261719 -348.5039978027344,-339.2279968261719 C-361.7770080566406,-257.9549865722656 -404.28399658203125,-184.33099365234375 -468.0320129394531,-132.1999969482422 C-468.0320129394531,-132.1999969482422 -474.2869873046875,-127.08499908447266 -474.2869873046875,-127.08499908447266 C-474.2869873046875,-127.08499908447266 -471.4280090332031,-119.52799987792969 -471.4280090332031,-119.52799987792969 C-442.2869873046875,-42.50699996948242 -442.2869873046875,42.50699996948242 -471.4280090332031,119.52799987792969 C-471.4280090332031,119.52799987792969 -474.2869873046875,127.08499908447266 -474.2869873046875,127.08499908447266 C-474.2869873046875,127.08499908447266 -468.0320129394531,132.1999969482422 -468.0320129394531,132.1999969482422 C-404.28399658203125,184.33099365234375 -361.7770080566406,257.9549865722656 -348.5039978027344,339.2279968261719 C-348.5039978027344,339.2279968261719 -347.2019958496094,347.2019958496094 -347.2019958496094,347.2019958496094 C-347.2019958496094,347.2019958496094 -339.2279968261719,348.5039978027344 -339.2279968261719,348.5039978027344 C-257.9549865722656,361.7770080566406 -184.33099365234375,404.2850036621094 -132.1999969482422,468.0320129394531 C-132.1999969482422,468.0320129394531 -127.08499908447266,474.2869873046875 -127.08499908447266,474.2869873046875 C-127.08499908447266,474.2869873046875 -119.52799987792969,471.4280090332031 -119.52799987792969,471.4280090332031 C-42.50699996948242,442.2869873046875 42.50699996948242,442.2860107421875 119.52799987792969,471.427001953125 C119.52799987792969,471.427001953125 127.08499908447266,474.2869873046875 127.08499908447266,474.2869873046875 C127.08499908447266,474.2869873046875 132.1999969482422,468.0320129394531 132.1999969482422,468.0320129394531 C184.33099365234375,404.28399658203125 257.9549865722656,361.7770080566406 339.2279968261719,348.5039978027344 C339.2279968261719,348.5039978027344 347.2019958496094,347.2019958496094 347.2019958496094,347.2019958496094 C347.2019958496094,347.2019958496094 348.5039978027344,339.2279968261719 348.5039978027344,339.2279968261719 C361.7770080566406,257.9549865722656 404.2850036621094,184.33099365234375 468.0320129394531,132.1999969482422 C468.0320129394531,132.1999969482422 474.2869873046875,127.08499908447266 474.2869873046875,127.08499908447266 C474.2869873046875,127.08499908447266 471.4280090332031,119.52799987792969 471.4280090332031,119.52799987792969 C442.2869873046875,42.50699996948242 442.2860107421875,-42.50699996948242 471.427001953125,-119.52799987792969 C471.427001953125,-119.52799987792969 474.2869873046875,-127.08499908447266 474.2869873046875,-127.08499908447266 C474.2869873046875,-127.08499908447266 468.0320129394531,-132.1999969482422 468.0320129394531,-132.1999969482422 C404.28399658203125,-184.33099365234375 361.7770080566406,-257.9549865722656 348.5039978027344,-339.2279968261719 C348.5039978027344,-339.2279968261719 347.2019958496094,-347.2019958496094 347.2019958496094,-347.2019958496094 C347.2019958496094,-347.2019958496094 339.2279968261719,-348.5039978027344 339.2279968261719,-348.5039978027344 C257.9549865722656,-361.7770080566406 184.33099365234375,-404.28399658203125 132.1999969482422,-468.0320129394531z">
                </path>
                <path stroke-linecap="butt" stroke-linejoin="miter" fill-opacity="0" stroke-miterlimit="4"
                    stroke="rgb(49,49,49)" stroke-opacity="1" stroke-width="5"
                    d=" M132.1999969482422,-468.0320129394531 C132.1999969482422,-468.0320129394531 127.08499908447266,-474.2869873046875 127.08499908447266,-474.2869873046875 C127.08499908447266,-474.2869873046875 119.52799987792969,-471.4280090332031 119.52799987792969,-471.4280090332031 C42.50699996948242,-442.2869873046875 -42.50699996948242,-442.2869873046875 -119.52799987792969,-471.4280090332031 C-119.52799987792969,-471.4280090332031 -127.08499908447266,-474.2869873046875 -127.08499908447266,-474.2869873046875 C-127.08499908447266,-474.2869873046875 -132.1999969482422,-468.0320129394531 -132.1999969482422,-468.0320129394531 C-184.33099365234375,-404.28399658203125 -257.9549865722656,-361.7770080566406 -339.2279968261719,-348.5039978027344 C-339.2279968261719,-348.5039978027344 -347.2019958496094,-347.2019958496094 -347.2019958496094,-347.2019958496094 C-347.2019958496094,-347.2019958496094 -348.5039978027344,-339.2279968261719 -348.5039978027344,-339.2279968261719 C-361.7770080566406,-257.9549865722656 -404.28399658203125,-184.33099365234375 -468.0320129394531,-132.1999969482422 C-468.0320129394531,-132.1999969482422 -474.2869873046875,-127.08499908447266 -474.2869873046875,-127.08499908447266 C-474.2869873046875,-127.08499908447266 -471.4280090332031,-119.52799987792969 -471.4280090332031,-119.52799987792969 C-442.2869873046875,-42.50699996948242 -442.2869873046875,42.50699996948242 -471.4280090332031,119.52799987792969 C-471.4280090332031,119.52799987792969 -474.2869873046875,127.08499908447266 -474.2869873046875,127.08499908447266 C-474.2869873046875,127.08499908447266 -468.0320129394531,132.1999969482422 -468.0320129394531,132.1999969482422 C-404.28399658203125,184.33099365234375 -361.7770080566406,257.9549865722656 -348.5039978027344,339.2279968261719 C-348.5039978027344,339.2279968261719 -347.2019958496094,347.2019958496094 -347.2019958496094,347.2019958496094 C-347.2019958496094,347.2019958496094 -339.2279968261719,348.5039978027344 -339.2279968261719,348.5039978027344 C-257.9549865722656,361.7770080566406 -184.33099365234375,404.2850036621094 -132.1999969482422,468.0320129394531 C-132.1999969482422,468.0320129394531 -127.08499908447266,474.2869873046875 -127.08499908447266,474.2869873046875 C-127.08499908447266,474.2869873046875 -119.52799987792969,471.4280090332031 -119.52799987792969,471.4280090332031 C-42.50699996948242,442.2869873046875 42.50699996948242,442.2860107421875 119.52799987792969,471.427001953125 C119.52799987792969,471.427001953125 127.08499908447266,474.2869873046875 127.08499908447266,474.2869873046875 C127.08499908447266,474.2869873046875 132.1999969482422,468.0320129394531 132.1999969482422,468.0320129394531 C184.33099365234375,404.28399658203125 257.9549865722656,361.7770080566406 339.2279968261719,348.5039978027344 C339.2279968261719,348.5039978027344 347.2019958496094,347.2019958496094 347.2019958496094,347.2019958496094 C347.2019958496094,347.2019958496094 348.5039978027344,339.2279968261719 348.5039978027344,339.2279968261719 C361.7770080566406,257.9549865722656 404.2850036621094,184.33099365234375 468.0320129394531,132.1999969482422 C468.0320129394531,132.1999969482422 474.2869873046875,127.08499908447266 474.2869873046875,127.08499908447266 C474.2869873046875,127.08499908447266 471.4280090332031,119.52799987792969 471.4280090332031,119.52799987792969 C442.2869873046875,42.50699996948242 442.2860107421875,-42.50699996948242 471.427001953125,-119.52799987792969 C471.427001953125,-119.52799987792969 474.2869873046875,-127.08499908447266 474.2869873046875,-127.08499908447266 C474.2869873046875,-127.08499908447266 468.0320129394531,-132.1999969482422 468.0320129394531,-132.1999969482422 C404.28399658203125,-184.33099365234375 361.7770080566406,-257.9549865722656 348.5039978027344,-339.2279968261719 C348.5039978027344,-339.2279968261719 347.2019958496094,-347.2019958496094 347.2019958496094,-347.2019958496094 C347.2019958496094,-347.2019958496094 339.2279968261719,-348.5039978027344 339.2279968261719,-348.5039978027344 C257.9549865722656,-361.7770080566406 184.33099365234375,-404.28399658203125 132.1999969482422,-468.0320129394531z">
                </path>
            </g>
        </g>
        <g id="sun-core" transform="matrix(1.012468934059143,0,0,1.012468934059143,499.4179992675781,505.6504821777344)" opacity="1" style="display: block;">
            <g opacity="1" transform="matrix(1,0,0,1,0,0)">
                <path fill="rgb(252,207,61)" fill-opacity="1" d=" M0,-409.68798828125 C230.16099548339844,-409.68798828125 409.68798828125,-230.16200256347656 409.68798828125,0 C409.68798828125,230.16099548339844 230.16099548339844,409.68798828125 0,409.68798828125 C-230.16200256347656,409.68798828125 -409.68798828125,230.16099548339844 -409.68798828125,0 C-409.68798828125,-230.16200256347656 -230.16200256347656,-409.68798828125 0,-409.68798828125z">
                </path>
                <path stroke-linecap="butt" stroke-linejoin="miter" fill-opacity="0" stroke-miterlimit="4" stroke="rgb(49,49,49)" stroke-opacity="1" stroke-width="10"
                    d=" M0,-409.68798828125 C230.16099548339844,-409.68798828125 409.68798828125,-230.16200256347656 409.68798828125,0 C409.68798828125,230.16099548339844 230.16099548339844,409.68798828125 0,409.68798828125 C-230.16200256347656,409.68798828125 -409.68798828125,230.16099548339844 -409.68798828125,0 C-409.68798828125,-230.16200256347656 -230.16200256347656,-409.68798828125 0,-409.68798828125z">
                </path>
            </g>
        </g>
    </g>
</svg>
