<svg xmlns="http://www.w3.org/2000/svg" xmlns:xlink="http://www.w3.org/1999/xlink" fill="none" version="1.1" width="88.92131805419922" height="83.22198486328125" viewBox="0 0 88.92131805419922 83.22198486328125"><g><path d="M42.2293,1.73694C39.8496,3.78693,37.348,6.10693,34.8056,8.72693C32.0293,11.5869,29.609,14.3869,27.514,17.0169C27.4123,17.2869,27.0463,18.3769,27.5344,19.6269C28.0428,20.9269,29.1208,21.4969,29.375,21.6269Q15.8395,31.9969,16.531,35.8969C16.531,36.4569,16.592,37.7069,17.4157,38.9369C18.8801,41.1169,21.4835,41.3569,21.8293,41.3769C17.3343,46.2669,13.4598,50.0369,10.7242,52.5969C4.16484,58.7369,0.36146100000000003,61.4869,0.50384832,65.7469C0.5140277,66.0769,0.656384,69.0469,2.86318,71.1269C4.80555,72.9569,7.37843,73.1769,8.84284,73.2669C18.0361,73.8669,34.775,73.1569,35.9547,73.1069C35.8429,73.3469,35.731,73.5969,35.6191,73.8369L35.4462,80.4269Q34.5818,82.4669,40.1344,82.637Q45.6869,82.8069,51.7581,82.637Q53.8428,81.957,53.4971,73.967C63.8089,73.567,74.1208,73.167,84.4327,72.767C85.714,71.7469,88.5106,69.227,88.4191,65.977C88.3479,63.807,87.0259,62.217,86.3039,61.397Q80.5784,54.937,68.4259,42.227Q75.1988,37.257,70.6836,33.867L59.5785,21.287Q63.0463,18.567,61.6632,16.527C56.3852,11.2469,51.1073,5.97699,45.8395,0.69696C45.5445,0.5869751,44.975,0.4269409,44.2632,0.5369873000000001C43.0734,0.71698,42.392,1.52698,42.2293,1.73694Z" fill="#617C36" fill-opacity="1"/><path d="M44.1884,0.04260999999999998L44.1868,0.04285699999999998Q42.7649,0.258513,41.866,1.3899409999999999Q37.9634,4.75474,34.4468,8.378730000000001Q30.5947,12.347,27.123,16.7054L27.0739,16.767L27.0461,16.8407Q26.4881,18.3222,27.0686,19.8088Q27.5175,20.9565,28.496,21.6726Q15.3819,31.8177,16.031100000000002,35.9391Q16.0419,37.7841,17.0003,39.2151Q18.3898,41.2836,20.8017,41.7528Q15.6888,47.2662,10.38253,52.2318Q9.44044,53.1136,7.72857,54.6837Q3.31936,58.7276,2.00228,60.4147Q-0.08528000000000002,63.0887,0.0041280000000000205,65.7636Q0.11072900000000002,69.2196,2.52023,71.4907Q4.66452,73.511,8.81216,73.766Q17.8151,74.3535,35.1591,73.6406L35.122,73.7213L34.9488,80.324Q34.4172,81.7183,35.9729,82.4517Q37.2389,83.0485,40.1191,83.1367Q45.6865,83.3071,51.7721,83.1368L51.8444,83.1347L51.9131,83.1123Q54.2844,82.3388,54.016,74.4472L68.1364,73.8995L84.6158,73.2602L84.7441,73.1582Q89.0256,69.7499,88.9189,65.9629Q88.8387,63.5193,86.6791,61.0666Q81.0375,54.7011,69.1764,42.2885Q72.2898,39.8918,72.8595,37.7824Q73.5068,35.3853,71.0251,33.4984L60.298,21.3465Q63.6301,18.5372,62.077,16.2464L62.0504,16.2071L46.1161,0.266506L46.0142,0.22847800000000001Q45.1275,-0.10217399999999999,44.1884,0.04260999999999998ZM42.6245,2.04322Q43.2853,1.190611,44.338,1.031363L44.3396,1.031118Q44.9696,0.9337260000000001,45.5661,1.1307749999999999L61.2741,16.845Q62.3356,18.4889,59.2699,20.8936L58.8529,21.2206L70.3425,34.2362L70.3834,34.2669Q72.3702,35.7585,71.8941,37.5217Q71.3753,39.4425,68.1301,41.8239L67.6709,42.1608L68.0645,42.5725Q80.2094,55.2745,85.9286,61.7274Q87.8511,63.9107,87.9193,65.9911Q88.0104,69.2246,84.2483,72.2737L68.0976,72.9002L52.9758,73.4868L52.9975,73.9886Q53.321,81.464,51.6637,82.1394Q45.651,82.3056,40.1497,82.1372Q37.4773,82.0554,36.3993,81.5472Q35.6619,81.1996,35.9066,80.622L35.9436,80.5348L36.1163,73.9526L36.2412,73.6808L36.7506,72.5728L35.9335,72.6074L35.9312,72.6075Q18.0368,73.3658,8.87352,72.7678Q5.08695,72.5351,3.20613,70.763Q1.097506,68.7756,1.0035699999999999,65.7302Q0.926285,63.418,2.79052,61.03Q4.0565,59.4084,8.40449,55.4207Q10.12011,53.8472,11.0658,52.9619Q16.7422,47.65,22.1974,41.7153L22.9112,40.9387L21.8582,40.8777Q19.2192,40.7249,17.8312,38.6587Q17.031,37.4638,17.031,35.8969L17.031,35.8529L17.0233,35.8096Q16.384900000000002,32.2089,29.6791,22.0238L30.3077,21.5422L29.6027,21.1817Q28.4486,20.5916,28.0001,19.445Q27.5732,18.3518,27.9558,17.2648Q31.3745,12.9794,35.1644,9.07513Q38.6665,5.46608,42.5556,2.11576L42.5937,2.0829500000000003L42.6245,2.04322Z" fill-rule="evenodd" fill="#000000" fill-opacity="1"/></g></svg>