<svg xmlns="http://www.w3.org/2000/svg" xmlns:xlink="http://www.w3.org/1999/xlink" fill="none" version="1.1" width="105.79344177246094" height="100.25860595703125" viewBox="0 0 105.79344177246094 100.25860595703125"><g><path d="M50.2229,1.98364C47.3856,4.453609999999999,44.4059,7.26367,41.3754,10.42365C38.0703,13.8737,35.1822,17.2537,32.6907,20.4337C32.5686,20.7637,32.1314,22.0737,32.7212,23.5837C33.3314,25.1537,34.6127,25.8437,34.9178,25.9937Q18.7788,38.5137,19.6127,43.2336C19.6127,43.9136,19.6839,45.4236,20.6703,46.9036C22.4195,49.5336,25.5212,49.8236,25.9381,49.8536C20.5788,55.7636,15.9517,60.3036,12.6975,63.3936C4.87711,70.8036,0.34152099999999996,74.1236,0.50423625,79.2636C0.5144079,79.6536,0.687287,83.2436,3.31102,85.7536C5.62966,87.9736,8.70085,88.2236,10.43983,88.3436C21.4025,89.0736,41.3551,88.2136,42.7585,88.1436C42.6263,88.4336,42.4941,88.7336,42.3619,89.0236L42.1585,96.9836Q41.1212,99.4437,47.7415,99.6536Q54.3619,99.8636,61.6026,99.6536Q64.0839,98.8336,63.667,89.1936C75.9619,88.7136,88.2568,88.2236,100.542,87.7436C102.077,86.5036,105.403,83.4736,105.291,79.5436C105.209,76.9236,103.633,75.0036,102.769,74.0135Q95.9449,66.2136,81.4636,50.8735Q89.528,44.8735,84.1483,40.7736L70.9076,25.5936Q75.0466,22.3135,73.389,19.8436C67.1043,13.4736,60.8093,7.10358,54.5246,0.733582C54.1687,0.603577,53.4873,0.4135742,52.6534,0.5435791C51.2399,0.76355,50.4263,1.74359,50.2229,1.99359L50.2229,1.98364Z" fill="#617C36" fill-opacity="1"/><path d="M49.8932,1.60768Q50.9965,0.295402,52.5764,0.04954700000000001Q53.6507,-0.11793100000000001,54.6961,0.263928L54.8016,0.302438L73.7779,19.5258L73.8042,19.5649Q75.6299,22.2854,71.6241,25.6543L84.4922,40.4071Q87.4021,42.6484,86.6502,45.477Q85.9735,48.0228,82.2094,50.9353Q96.406,65.9811,103.145,73.6847Q105.7,76.6106,105.79,79.5294Q105.919,84.0439,100.856,88.1326L100.727,88.2367L65.0627,89.6395L64.18639999999999,89.6737Q64.5278,99.2135,61.7595,100.1284L61.6901,100.1513L61.6171,100.1534Q54.3609,100.3639,47.7257,100.1534Q44.3105,100.0451,42.8199,99.3322Q41.044,98.4829,41.661,96.8806L41.8646,88.9101L41.9669,88.6831Q22.314,89.6352,10.4054,88.8424Q5.45733,88.5008,2.96538,86.1149Q0.11154700000000001,83.3848,0.004485000000000017,79.2794Q-0.096418,76.092,2.3702,72.8957Q3.93623,70.8665,9.18589,65.9929Q11.2281,64.0971,12.3532,63.031Q18.9105,56.8047,24.9194,50.2299Q21.9215,49.6877,20.2543,47.1809Q19.1235,45.4844,19.1128,43.276Q18.3212,38.3378,34.0293,26.0519Q32.8193,25.2163,32.2555,23.7656Q31.5723,22.0166,32.2217,20.2602L32.2488,20.1869L32.2971,20.1253Q36.3752,14.9203,41.0145,10.07756Q45.3154,5.59296,49.8932,1.60768ZM49.7262,3.08499Q45.618,6.72222,41.7363,10.7697Q37.1599,15.5468,33.1338,20.6788Q32.656,22.0426,33.1869,23.4018Q33.7557,24.8653,35.1384,25.5449L35.8568,25.8981L35.2243,26.3887Q19.3237,38.7239,20.1051,43.1467L20.1127,43.1898L20.1127,43.2336Q20.1127,45.1655,21.0864,46.6263Q22.7465,49.1225,25.9741,49.3549L26.9984,49.4287L26.3085,50.1895Q19.9808,57.1674,13.0417,63.7562Q11.912,64.8267,9.86625,66.7258Q4.67728,71.543,3.16187,73.5067Q0.914433,76.4189,1.003984,79.2478Q1.100467,82.9469,3.65666,85.3923Q5.8874,87.5281,10.47427,87.8448Q22.5686,88.6501,42.7336,87.6442L43.5503,87.6035L43.016,88.7891L42.8591,89.1372L42.6559,97.0909L42.6192,97.1779Q42.2859,97.9684,43.2513,98.4301Q44.5523,99.0522,47.7574,99.1539Q54.3259,99.3622,61.5082,99.1561Q63.5621,98.3398,63.1674,89.2152L63.1457,88.7136L65.0237,88.6402L100.3553,87.2505Q104.904,83.5218,104.791,79.5578Q104.711,76.999,102.392,74.3424Q95.5757,66.5507,81.1,51.2168L80.7141,50.808L81.1651,50.4724Q85.0574,47.5765,85.6837,45.2201Q86.269,43.0184,83.8453,41.1712L83.8049,41.1405L70.1863,25.5272L70.5971,25.2017Q74.34,22.2355,72.9986,20.1598L63.5939,10.6326L54.2503,1.167454Q53.4975,0.918029,52.7304,1.037611Q51.4879,1.2309679999999998,50.6108,2.3091299999999997L49.7272,3.39518L49.7262,3.08499Z" fill-rule="evenodd" fill="#000000" fill-opacity="1"/></g></svg>