<svg xmlns="http://www.w3.org/2000/svg" xmlns:xlink="http://www.w3.org/1999/xlink" fill="none" version="1.1" width="128.0357666015625" height="133.500244140625" viewBox="0 0 128.0357666015625 133.500244140625"><g><g><ellipse cx="63.999267578125" cy="123.500244140625" rx="42.5" ry="10" fill="#546635" fill-opacity="1"/></g><g><path d="M60.779267578125,2.273074140625C57.342067578125,5.233094140625,53.731867578125,8.583064140625,50.060667578125,12.373044140625C46.053867578125,16.503044140625,42.555567578125,20.543044140625,39.525067578125,24.353044140625C39.382667578125,24.753044140625,38.853867578125,26.313044140625,39.555567578125,28.123044140625C40.287767578125,30.003044140625,41.853867578125,30.823044140625,42.219967578125,31.013044140625Q22.664067578125,45.993044140625,23.660667578125,51.643044140625C23.660667578125,52.453044140625,23.752167578125,54.263044140625,24.941967578125,56.033044140625C27.067467578125,59.183144140625,30.819967578125,59.523044140625,31.328467578125,59.563144140625C24.830167578125,66.633144140625,19.226767578125,72.073144140625,15.280967578125,75.773144140625C5.803007578125,84.643144140625,0.301327578125,88.613144140625,0.504714188125,94.773144140625C0.525057478125,95.243144140625,0.728444578125,99.543144140625,3.911497578125,102.543244140625C6.718277578125,105.193244140625,10.440307578125,105.503244140625,12.545367578125,105.643244140625C25.826767578125,106.513244140625,50.019967578125,105.483244140625,51.718267578125,105.413244140625C51.555567578125,105.763244140625,51.403067578125,106.113244140625,51.240367578125,106.473244140625L50.986067578125,115.993244140625Q49.735267578125,118.943244140625,57.758967578125,119.183244140625Q65.782667578125,119.433244140625,74.558967578125,119.183244140625Q77.569167578125,118.203244140625,77.070867578125,106.663244140625C91.969167578125,106.083244140625,106.867267578125,105.503244140625,121.776267578125,104.923244140625C123.626267578125,103.443244140625,127.674267578125,99.803144140625,127.532267578125,95.113144140625C127.440267578125,91.973144140625,125.528267578125,89.683144140625,124.471267578125,88.493144140625Q116.193267578125,79.163144140625,98.640267578125,60.793144140625Q108.423267578125,53.613144140625,101.904267578125,48.703144140625L85.857267578125,30.533144140625Q90.870767578125,26.603144140625,88.867367578125,23.653144140625C81.240267578125,16.033144140624998,73.623367578125,8.403134140625,65.996267578125,0.783142140625C65.569067578125,0.6331181406249999,64.745367578125,0.393127140625,63.728467578125,0.553161640625C62.009767578125,0.813171140625,61.023367578125,1.983154140625,60.789467578125,2.293154140625L60.779267578125,2.273074140625Z" fill="#617C36" fill-opacity="1"/><path d="M60.493467578125,1.859374140625Q61.700867578125,0.35421514062500004,63.650667578125,0.05924014062499999Q64.889167578125,-0.13564885937500004,66.161967578125,0.31139414062500004L66.269267578125,0.349108140625L77.785367578125,11.864544140625L89.254467578125,23.333044140625L89.281067578125,23.372244140625Q91.457267578125,26.576744140625,86.578867578125,30.594844140625L102.246267578125,48.334644140625Q105.729267578125,50.981544140625,104.830267578125,54.310944140625Q104.008267578125,57.355244140625,99.392067578125,60.856244140625Q116.648267578125,78.923444140625,124.844267578125,88.161044140625Q127.930267578125,91.633344140625,128.03126757812498,95.097944140625Q128.19326757812502,100.431744140625,122.088267578125,105.313244140625L121.959267578125,105.416244140625L77.590467578125,107.143244140625Q78.013367578125,118.584244140625,74.713767578125,119.658244140625L74.645267578125,119.681244140625L74.573167578125,119.683244140625Q65.781667578125,119.933244140625,57.744067578125,119.683244140625Q53.628167578125,119.560244140625,51.840867578125,118.718244140625Q49.763267578125,117.739244140625,50.488667578125,115.889244140625L50.743167578125,106.359244140625L50.784667578125,106.267244140625Q50.835167578125,106.155244140625,50.928767578125,105.946244140625Q25.405167578125,106.986244140625,12.512267578125,106.142244140625Q6.577067578125,105.747244140625,3.568567578125,102.907244140625Q0.219708578125,99.750744140625,0.004988578124999976,94.789644140625Q-0.11994342187499996,91.005844140625,2.844847578125,87.209144140625Q4.735217578125,84.788344140625,11.084667578125,78.967844140625Q13.569867578125,76.689644140625,14.938967578125,75.408444140625Q22.884067578125,67.958344140625,30.299067578125,59.941844140625Q26.558367578125,59.322544140625,24.527067578125,56.312044140625Q23.171667578125,54.295744140625,23.160767578125,51.685544140625Q22.206967578125,45.813944140625,41.328067578125,31.067944140625Q39.759967578125,30.025544140625,39.089367578125,28.303744140625Q38.306767578125,26.285044140625,39.053967578125,24.185344140625L39.081967578125,24.106944140625L39.133767578125,24.041744140625Q44.096267578125,17.802844140625,49.701567578125,12.025144140625Q54.796467578125,6.765294140625,60.453067578125,1.894194140625L60.493467578125,1.859374140625ZM60.621267578125,3.070644140625Q55.264767578125,7.719204140625,50.419767578125,12.720944140625Q44.878067578125,18.433144140625,39.969267578125,24.597844140625Q39.387767578125,26.306944140625,40.021767578125,27.942344140625Q40.688867578125,29.655144140625,42.450267578125,30.569244140625L43.148467578125,30.931644140625L42.524067578125,31.409944140625Q23.209067578125,46.205244140625,24.153067578125,51.556244140625L24.160667578125,51.599344140625L24.160667578125,51.643044140625Q24.160667578125,53.974444140625,25.356967578125,55.754144140625Q27.378767578125,58.750544140625,31.367667578125,59.064644140625L32.391567578125,59.145244140625L31.696567578125,59.901444140625Q23.949867578125,68.329544140625,15.622967578125,76.137844140625Q14.249567578125,77.423244140625,11.760367578125,79.705044140625Q5.472217578125,85.469344140625,3.633007578125,87.824644140625Q0.8914815781250001,91.335344140625,1.004443578125,94.756644140625Q1.201205578125,99.301744140625,4.254437578125,102.179244140625Q7.002127578125,104.773244140625,12.578567578125,105.144244140625Q25.592667578125,105.997244140625,51.584767578125,104.918244140625L51.697667578125,104.913244140625L52.517667578125,104.880244140625L52.171667578125,105.624244140625Q52.069167578125,105.844244140625,51.869567578125,106.291244140625Q51.790367578125,106.469244140625,51.737467578125,106.587244140625L51.483367578125,116.101244140625L51.446367578125,116.188244140625Q51.008667578125,117.220244140625,52.266967578125,117.813244140625Q53.866067578125,118.566244140625,57.773967578125,118.683244140625Q65.747667578125,118.932244140625,74.467267578125,118.685244140625Q77.047367578125,117.711244140625,76.571267578125,106.684244140625L76.549667578125,106.183244140625L77.061867578125,106.163244140625L121.591267578125,104.430244140625Q127.177267578125,99.908444140625,127.032267578125,95.128344140625Q126.941267578125,92.025944140625,124.097267578125,88.825344140625Q115.820267578125,79.496844140625,98.278767578125,61.138544140625L97.885467578125,60.726944140625L98.344467578125,60.390044140625Q103.094267578125,56.903644140625,103.865267578125,54.050344140625Q104.593267578125,51.354144140625,101.604267578125,49.102544140625L101.563267578125,49.072044140625L85.131467578125,30.466744140625L85.548767578125,30.139644140625Q90.160467578125,26.524644140625,88.479167578125,23.972044140625L65.725167578125,1.219191140625Q64.745167578125,0.899315140625,63.806167578125,1.0470831406249999Q62.169167578125,1.2947511406249999,61.188567578125,2.594314140625L60.704467578125,3.235844140625L60.621267578125,3.070644140625Z" fill-rule="evenodd" fill="#000000" fill-opacity="1"/></g></g></svg>