<svg width="1448" height="98" viewBox="0 0 1448 98" fill="none" xmlns="http://www.w3.org/2000/svg">
<g clip-path="url(#clip0_1702_13387)">
<path d="M-69.647 8.81887L-121 60.172V98L1508 97.9999L1508 16.0226C1508 10.0503 1500.78 7.05931 1496.56 11.2824L1456.65 51.1916C1451.69 56.1512 1443.65 56.1512 1438.69 51.1916L1396.31 8.81875C1391.35 3.85909 1383.31 3.85908 1378.35 8.81875L1335.98 51.1916C1331.02 56.1512 1322.98 56.1512 1318.02 51.1916L1275.65 8.81875C1270.69 3.85909 1262.65 3.85909 1257.69 8.81875L1215.31 51.1916C1210.35 56.1512 1202.31 56.1512 1197.35 51.1916L1154.98 8.81877C1150.02 3.85911 1141.98 3.85912 1137.02 8.81877L1094.65 51.1916C1089.69 56.1513 1081.65 56.1513 1076.69 51.1916L1034.31 8.81878C1029.35 3.85912 1021.31 3.85912 1016.35 8.81878L973.98 51.1916C969.021 56.1513 960.979 56.1513 956.02 51.1916L913.647 8.81878C908.687 3.85912 900.646 3.85913 895.686 8.81879L853.314 51.1916C848.354 56.1513 840.313 56.1513 835.353 51.1916L792.98 8.8188C788.021 3.85915 779.979 3.85915 775.02 8.8188L732.647 51.1916C727.687 56.1513 719.646 56.1513 714.686 51.1916L672.314 8.81882C667.354 3.85915 659.313 3.85915 654.353 8.81881L611.98 51.1916C607.021 56.1513 598.979 56.1513 594.02 51.1916L551.647 8.81881C546.687 3.85915 538.646 3.85916 533.686 8.81882L491.314 51.1916C486.354 56.1513 478.313 56.1513 473.353 51.1916L430.98 8.81884C426.021 3.85918 417.979 3.85918 413.02 8.81883L370.647 51.1917C365.687 56.1513 357.646 56.1513 352.686 51.1917L310.314 8.81884C305.354 3.85918 297.313 3.85918 292.353 8.81884L249.98 51.1917C245.021 56.1513 236.979 56.1513 232.02 51.1917L189.647 8.81885C184.687 3.85919 176.646 3.8592 171.686 8.81886L129.314 51.1917C124.354 56.1513 116.313 56.1513 111.353 51.1917L68.9802 8.81886C64.0206 3.85921 55.9794 3.85921 51.0198 8.81886L8.64697 51.1917C3.68731 56.1513 -4.35394 56.1513 -9.3136 51.1917L-51.6864 8.81887C-56.6461 3.85922 -64.6873 3.85921 -69.647 8.81887Z" fill="#A24436"/>
</g>
<defs>
<clipPath id="clip0_1702_13387">
<rect width="1448" height="98" fill="#222" transform="matrix(-1 0 0 -1 1448 98)"/>
</clipPath>
</defs>
</svg>
