<svg xmlns="http://www.w3.org/2000/svg" xmlns:xlink="http://www.w3.org/1999/xlink" fill="none" version="1.1" width="1921.678955078125" height="3927" viewBox="0 0 1921.678955078125 3927"><g><g><g><path d="M1.678950309753418,716L1921.6789503097534,716L1921.6789503097534,0L961.6789503097534,0L1.678950309753418,0L1.678950309753418,716Z" fill="#1D1D1D" fill-opacity="1"/></g></g><g><g><path d="M1915.26455078125,663.4959L1857.87455078125,625.24445C1855.37455078125,623.579861,1851.42455078125,623.579861,1848.92455078125,625.24445L1794.70455078125,661.3879L1739.44455078125,624.56224C1736.95455078125,622.897652,1733.00455078125,622.897652,1730.50455078125,624.56224L1674.75455078125,661.7222L1620.03455078125,625.2445C1617.54455078125,623.579903,1613.59455078125,623.579903,1611.09455078125,625.2445L1556.64455078125,661.538L1501.27455078125,624.63732C1498.78455078125,622.9727266,1494.83455078125,622.9727266,1492.33455078125,624.63732L1436.81455078125,661.6472L1382.20455078125,625.2445C1379.70455078125,623.579903,1375.75455078125,623.579903,1373.26455078125,625.2445L1319.03455078125,661.3879L1263.77455078125,624.56229C1261.28455078125,622.897694,1257.33455078125,622.897694,1254.83455078125,624.56229L1199.09455078125,661.7222L1144.36455078125,625.2445C1141.87455078125,623.579903,1137.92455078125,623.579903,1135.42455078125,625.2445L1080.97455078125,661.538L1025.61455078125,624.63732C1023.11455078125,622.9727266,1019.16455078125,622.9727266,1016.66455078125,624.63732L960.46655078125,662.0974L905.17355078125,625.24445C902.67655078125,623.579861,898.72855078125,623.579861,896.23155078125,625.24445L842.00355078125,661.3879L786.74955078125,624.56224C784.25255078125,622.897652,780.30555078125,622.897652,777.80855078125,624.56224L722.06055078125,661.7222L667.33955078125,625.2445C664.84255078125,623.579903,660.89555078125,623.579903,658.39855078125,625.2445L603.94355078125,661.538L548.58055078125,624.63732C546.08355078125,622.9727266,542.13555078125,622.9727266,539.63955078125,624.63732L484.08855078125,661.6608L428.98255078125,624.93066C426.48555078125,623.266072,422.53855078125,623.266072,420.04155078125,624.93066L365.81355078125,661.0741L310.55955078125,624.24845C308.06255078125,622.583862,304.11455078125,622.583862,301.61855078125,624.24845L245.87055078125,661.4084L191.14855078125,624.93071C188.65155078125,623.266113,184.70455078125,623.266113,182.20755078125,624.93071L127.75255078125,661.2243L72.38965078125,624.32353C69.89295078125,622.658937,65.94545078125,622.658937,63.44875078125,624.32353L4.68108078125,663.496L0.66455078125,663.496L0.66455078125,2803L1920.66455078125,2803L1920.66455078125,663.4959L1915.26455078125,663.4959Z" fill="#A34437" fill-opacity="1"/></g><g><path d="M1919.85,3860.88L1919.64,3849.5L1919.85,2406L0.829447,2406L0.829447,3841.85L7.48614,3822C4.08781,3821.1,-0.899694,3834.13,0.139794,3837.49L0.13979,3912.25C1.10931,3915.42,5.07735,3916.4700000000003,7.48616,3914.19L49.9252,3874.17L108.107,3925.51C109.796,3927,112.334,3927,114.024,3925.51L173.174,3873.3199999999997L225.549,3921.76C229.137,3925.08,234.674,3925.08,238.262,3921.76L288.727,3875.09C288.907,3875.2799999999997,289.097,3875.46,289.297,3875.6400000000003L343.111,3923.12C346.979,3926.5299999999997,352.776,3926.5299999999997,356.644,3923.12L410.457,3875.6400000000003C410.667,3875.45,410.867,3875.26,411.057,3875.0699999999997C411.247,3875.27,411.447,3875.46,411.657,3875.6400000000003L465.47,3923.12C469.338,3926.5299999999997,475.135,3926.5299999999997,479.004,3923.12L532.337,3876.06L585.671,3923.12C589.539,3926.5299999999997,595.336,3926.5299999999997,599.204,3923.12L653.018,3875.6400000000003C653.138,3875.54,653.238,3875.4300000000003,653.348,3875.3199999999997C653.458,3875.4300000000003,653.567,3875.5299999999997,653.677,3875.6400000000003L707.491,3923.12C711.359,3926.5299999999997,717.156,3926.5299999999997,721.024,3923.12L774.518,3875.92L827.412,3922.59C831.28,3926,837.077,3926,840.945,3922.59L894.279,3875.5299999999997L947.612,3922.59C951.48,3926,957.277,3926,961.146,3922.59L1014.96,3875.1099999999997C1015.08,3875.01,1015.18,3874.9,1015.29,3874.79C1015.4,3874.9,1015.51,3875,1015.62,3875.1099999999997L1069.43,3922.59C1073.3,3926,1079.1,3926,1082.97,3922.59L1136.34,3875.5L1188.57,3921.59C1192.44,3925,1198.24,3925,1202.11,3921.59L1255.44,3874.5299999999997L1308.77,3921.59C1312.64,3925,1318.44,3925,1322.31,3921.59L1376.12,3874.1099999999997C1376.24,3874.01,1376.34,3873.9,1376.45,3873.79C1376.56,3873.9,1376.67,3874,1376.78,3874.1099999999997L1430.59,3921.59C1434.46,3925,1440.26,3925,1444.13,3921.59L1495.53,3876.24C1495.76,3876.49,1496.01,3876.73,1496.27,3876.96L1550.08,3924.44C1553.95,3927.85,1559.75,3927.85,1563.62,3924.44L1616.95,3877.38L1670.29,3924.44C1674.15,3927.85,1679.96,3927.85,1683.82,3924.44L1737.63,3876.96C1738.29,3876.38,1738.85,3875.75,1739.31,3875.09L1792.02,3921.59C1795.88,3925,1801.68,3925,1805.55,3921.59L1859.36,3874.1099999999997Q1859.39,3874.08,1859.4,3874.0699999999997L1906.11,3915.2799999999997C1909.98,3918.69,1915.77,3918.69,1919.64,3915.2799999999997L1919.64,3874.0699999999997C1919.85,3874.0699999999997,1919.64,3869.5,1919.64,3865C1919.64,3860.4700000000003,1919.71,3854.21,1919.85,3849.5Q1920.15,3840.08,1919.85,3833L1919.85,3860.88ZM893.919,3861.16C893.799,3861.0699999999997,893.679,3860.9700000000003,893.559,3860.88L894.289,3860.88C894.169,3860.9700000000003,894.049,3861.06,893.929,3861.16L893.919,3861.16Z" fill="#A34437" fill-opacity="1"/></g></g></g></svg>